<svg width="44" height="44" viewBox="0 0 44 44" fill="none" xmlns="http://www.w3.org/2000/svg">
<path d="M21.7177 4.37167C21.9514 4.49556 22.9779 5.58127 23.1897 5.86253C23.8639 6.76073 24.2178 7.85063 24.7853 8.80408C25.763 8.52198 26.7886 8.24573 27.7302 7.86486C29.4392 7.17509 30.8827 5.62229 32.7489 6.95661C34.3597 11.1078 35.587 15.4087 37.0624 19.6009C37.5231 20.9084 38.6277 22.8346 38.9573 24.0433C39.1624 24.7942 38.7446 26.2533 38.1242 26.6869C37.7307 26.9614 36.6362 27.0569 36.0788 27.3641C35.4214 27.7265 34.2933 28.7989 33.4501 29.2802C30.0412 31.2264 26.3027 32.6135 23.1645 34.9565C19.2016 36.0573 15.8549 38.5476 12.0828 40C10.578 38.9017 11.1076 37.8529 10.8361 36.3335C10.4376 34.1085 8.66547 30.9611 7.84666 28.6967C7.16488 26.8141 6.64367 24.8662 6.01737 22.966C5.80972 22.3357 5.10104 21.0968 5.01361 20.6816C4.68911 19.1338 7.79706 18.2733 8.88321 17.6706C10.6066 16.7154 12.1803 15.4791 14.002 14.7039C14.1601 14.0711 13.6565 14.457 13.3741 14.1673C13.0832 13.8693 12.9394 13.0758 12.662 12.674C11.8415 11.4853 10.2131 11.1078 11.1808 9.13975C12.1072 7.2521 14.815 7.30652 16.4459 6.62847C18.128 5.9295 19.0704 2.97121 21.7177 4.37167ZM20.3365 8.3939C19.9985 8.14361 15.4959 10.0279 15.1159 10.6231C14.8755 11.0014 16.0953 12.4881 16.2517 12.987C18.0389 12.278 19.6606 11.2944 21.088 10.017L20.3365 8.3939ZM31.4156 8.38385C31.0937 8.11598 29.2652 9.2854 28.7516 9.49468C21.5016 12.4446 15.2092 15.4715 8.50575 19.3782C8.37208 19.4561 8.05599 19.3891 7.86095 19.5046C7.57765 19.672 7.44735 20.5619 6.85131 20.7427C8.88237 26.3512 11.4052 31.7873 14.0323 37.1338C14.2904 37.2845 15.3084 36.7814 15.6186 36.6265C22.5617 33.1752 28.4346 28.2531 35.925 25.6204C36.2613 25.5024 36.6068 25.5124 36.9548 25.5242L31.4156 8.38385Z" fill="#486CA1"/>
<path d="M28.2639 25.6446C27.5544 26.5964 26.6809 26.9655 25.7881 27.5674C25.4073 27.8244 25.1559 28.3869 24.7129 28.5384C20.9728 29.8141 15.8985 25.9911 16.9678 21.8442C17.2444 20.7727 19.2015 18.2405 20.2103 17.7248C22.2741 16.6701 26.3371 16.9639 28.0487 18.577C30.2781 20.6781 30.0133 23.2982 28.2639 25.6446ZM25.6192 19.4668C24.8314 18.8147 22.3498 18.5829 21.441 18.9453C20.3019 19.4007 20.1523 20.5149 19.4184 21.2231C19.1334 21.4993 18.5475 21.6014 18.5021 21.7814C18.1986 22.9868 19.1662 25.2729 20.3524 25.8338C24.5599 27.8235 28.2681 21.6609 25.6192 19.4668Z" fill="#486CA1"/>
<path d="M10.0326 19.3223C10.6126 19.0711 11.3457 18.8024 11.9947 18.5245C14.8193 17.3166 15.407 16.0702 16.2266 20.2782C15.9046 21.5364 12.5983 22.1809 11.6752 22.9008C11.0212 23.4115 11.0204 24.4863 10.009 24.3122C9.8594 24.2862 8.28314 22.8489 8.17806 22.6514C7.88467 22.1023 7.59211 20.4222 8.14191 19.9945C8.27053 19.894 9.56852 19.5232 10.0326 19.3223ZM9.90479 21.646C10.6572 21.8947 11.0456 21.2861 11.5391 21.1321C12.1544 20.9404 14.8143 20.4348 14.8185 19.7216C14.8202 19.4914 14.5991 19.2444 14.6151 18.9941C13.8677 19.2352 13.3272 20.1636 12.5672 20.3385C12.0527 20.4565 11.7862 20.1435 11.1977 20.3695C10.98 20.4532 9.58954 21.3757 9.90479 21.646Z" fill="#486CA1"/>
<path d="M34.4449 23.4341C34.2591 23.6083 32.0179 24.1155 31.4858 24.2637C31.3084 24.3131 30.8973 24.6873 30.809 24.1951C30.688 23.5237 34.0767 21.919 34.6114 22.6607C34.7711 22.8566 34.5853 23.3027 34.4449 23.4341Z" fill="#486CA1"/>
<path d="M24.8052 19.8709C26.3512 21.1148 24.316 26.237 21.3846 25.0098C20.5548 24.6624 20.0454 23.0217 20.1597 22.1746C20.3707 20.6059 23.4484 18.7794 24.8052 19.8709Z" fill="#486CA1"/>
</svg>
