<svg width="44" height="44" viewBox="0 0 44 44" fill="none" xmlns="http://www.w3.org/2000/svg">
<path d="M31.2307 38.7272C29.3499 40.463 27.0949 40.1405 24.8948 39.4198C19.2554 37.5736 13.3178 33.5571 8.10166 30.8136C6.03295 29.7252 3.19189 29.2721 3.20399 26.1811C3.20802 25.0637 3.9602 24.6058 4.35524 23.7537C5.37186 21.556 6.3522 19.2535 7.44863 17.0945C8.14922 15.7142 9.18197 14.4912 9.70841 13.0127L5.84752 6.9855C5.03245 5.95276 6.67549 4.37986 7.60504 5.22637C7.82352 5.4247 9.12472 8.25769 9.57055 8.93167C9.70761 9.13887 11.0161 10.9746 11.1152 10.8988C12.2463 9.00907 13.3258 3.96951 15.9105 4.00014C20.7671 4.05658 28.0688 7.78767 32.1877 10.3506C34.096 11.5373 36.0881 12.6305 38.031 13.8052C38.8445 14.2969 40.7657 15.2547 40.7931 16.2173C40.8358 17.7563 40.4077 19.7227 39.8668 21.1698C38.0335 26.0723 35.9478 29.4261 33.5284 33.8812C33.0052 34.8446 31.679 38.3137 31.2307 38.7272ZM15.6533 4.77732C15.2293 4.67977 15.1148 5.01031 14.8592 5.22799C13.6048 6.29701 12.6365 9.6895 11.6876 11.3567C11.5046 11.6776 11.1056 11.58 11.686 12.0323L15.6533 4.77732ZM28.1245 37.8872C30.3907 38.1637 30.5447 37.7348 31.5653 36.0007C34.1798 31.5577 36.0139 26.3392 38.0601 21.6301C38.8985 19.7001 41.3187 17.5113 38.9945 15.79C37.1805 14.4477 34.2709 13.2739 32.3602 11.9928C28.4623 9.37911 23.3066 6.56709 18.6105 5.55934C18.2275 5.4771 17.8615 5.40777 17.4681 5.45776L38.6357 16.4003C38.8953 16.9945 38.0327 19.2446 37.7586 19.9678C36.0494 24.4672 33.4381 28.94 31.3315 33.2725C30.9478 34.0626 30.7132 35.2469 30.3431 35.9128C29.969 36.586 28.5396 37.0761 28.1245 37.8872ZM28.1228 36.9826C28.1164 33.9328 38.8574 18.2626 37.9964 16.7849C35.5351 15.3369 32.6876 14.7395 30.1125 13.5601C26.7862 12.038 23.6428 9.88621 20.3478 8.35846C19.7367 8.07549 15.6614 6.22445 15.4445 6.37843L12.5253 13.2456C12.6543 14.1301 13.7297 14.6742 14.0708 15.1531C15.405 17.0259 16.2257 19.1712 17.2351 21.2206C16.5998 22.0679 16.4096 20.9771 15.771 20.4192C14.8487 19.613 13.6983 19.0769 12.9324 18.0434C12.3552 17.2638 12.2117 16.1496 11.3474 15.6626L6.35623 26.7729C7.42364 26.9083 8.16857 27.8774 9.07877 28.249C12.4479 29.6244 16.0492 30.6435 19.3667 32.2478C19.9472 32.5284 23.5912 35.1751 23.8153 34.9413C23.8597 33.2523 25.1125 31.9495 25.6301 30.4072C24.7263 30.6902 21.4548 30.5387 21.1291 29.5736C20.7066 26.5214 25.4954 26.0989 26.6507 28.586C29.1064 26.9156 28.1212 22.8015 25.9727 21.3302C25.7075 21.148 24.1684 20.4434 23.9129 20.4273C23.068 20.3709 21.1686 21.8752 20.0673 21.7994L17.2448 21.6729C18.708 20.6885 21.2322 21.0884 22.685 19.8517C23.1824 19.4276 21.8949 18.3191 21.8329 17.7878C21.6958 16.6148 24.8174 14.2413 25.7437 16.3455C26.404 17.845 25.485 18.4456 24.5006 19.4042C27.6649 20.6369 30.048 24.7106 28.3147 27.987C27.9858 28.6086 26.816 29.5801 26.6531 29.9534C26.2573 30.8555 26.0122 31.8939 25.4696 33.079C24.037 36.2111 25.4664 35.8854 28.1228 36.9826ZM4.7664 27.9096L4.86315 26.0941L10.4356 13.8487L8.23548 17.6548C7.28336 20.1685 5.60324 22.7588 4.72932 25.2621C4.47456 25.9925 3.87878 27.4428 4.7664 27.9096ZM24.7199 16.3415C23.0607 16.6381 22.3045 17.5121 23.7024 18.8334C24.6876 18.0716 25.2882 17.7047 24.7199 16.3415ZM29.2572 38.7998C27.5754 38.2492 25.963 37.4873 24.3321 36.8069C20.8187 35.3404 17.9841 33.624 14.5642 32.0616C12.7518 31.2336 10.1696 30.4814 8.4201 29.5881C7.82029 29.2818 5.60566 27.1091 5.22433 27.4557L5.11146 28.3764L5.74352 28.8642C10.4421 30.6378 14.9213 32.8299 19.2675 35.2952C20.7582 36.1409 22.4149 37.4115 24.1152 38.1581C25.5535 38.7893 26.9369 38.8522 28.4937 38.9965C28.7468 39.0207 29.3088 39.2045 29.2572 38.7998ZM23.2969 28.1854C23.0196 28.2474 21.9006 28.8545 22.452 29.1609C23.0252 29.2995 25.4043 29.8897 25.6293 29.1544C25.9501 28.1055 23.9701 28.0354 23.2969 28.1854Z" fill="#6C914A"/>
</svg>
