<svg width="44" height="44" viewBox="0 0 44 44" fill="none" xmlns="http://www.w3.org/2000/svg">
<path d="M35.4194 15.0894L38.3576 15.6798C38.8891 16.0414 37.8896 17.0071 37.714 17.4863C37.3524 18.4754 37.4402 19.7737 37.1969 20.8401C36.6533 23.2218 35.69 25.812 35.2688 28.283C34.8556 30.7154 34.8838 33.7253 34.3095 36.0836C34.1162 36.8801 33.6482 37.6123 33.4735 38.5095C33.3325 39.2287 34.005 39.8312 32.4659 39.956C29.8338 40.1695 26.956 39.5614 24.3649 39.0862C23.491 38.9251 23.247 38.8526 22.2934 38.7302C20.3555 38.4805 18.4161 38.379 18.9138 35.879C18.3339 35.9877 17.8611 35.5359 17.3835 35.4747C15.0067 35.1718 13.1365 35.5254 10.8757 35.6631C9.75052 35.7324 9.24632 35.6253 8.87099 34.4131C8.20169 32.2497 8.13565 29.9801 7.69669 27.8473C7.51627 26.9694 7.01691 26.1543 6.92509 25.1451C6.85341 24.3622 7.16028 23.6438 7.09101 22.9688C6.9863 21.9395 6.6432 20.4543 6.47245 19.2921C6.23243 17.6531 5.58084 15.4599 5.49305 13.9384C5.4713 13.5655 5.51963 13.2071 5.72743 12.8906C8.65997 12.3791 11.4532 10.8343 14.4429 10.8134L14.4832 6.27081C15.5004 4.72198 17.7041 4.63983 19.4341 4.49888C24.1016 4.11711 29.1596 3.63868 33.7304 4.41914C34.2354 4.50532 35.7907 4.40303 36.0073 5.03529L35.4194 15.0894ZM15.4602 7.65452C15.3152 8.33108 15.4602 9.89844 15.4602 10.7103C15.4602 11.262 16.9631 10.8585 17.2933 10.8126V7.75601C18.5224 7.44995 19.7974 7.46686 21.0401 7.32833C21.5814 7.26792 22.1798 6.92642 22.6977 6.93448C23.2269 6.94253 23.578 7.33719 24.1169 7.36296C24.7475 7.39276 25.3967 6.96428 25.921 7.00294C26.401 7.03838 26.7884 7.51116 27.1356 7.50633C27.6196 7.49908 28.2253 6.91193 28.8052 6.9232C29.2506 6.93206 29.477 7.28323 29.8289 7.33961C30.6577 7.4725 31.5098 7.32189 32.3652 7.75601V13.8684C31.8884 13.8949 32.0052 13.9376 31.9577 13.5663C31.7491 11.9329 32.0422 9.85333 31.9456 8.17483C30.9984 8.14905 29.688 7.74795 28.7948 7.75037C28.1295 7.75198 27.6945 8.33672 27.1759 8.34638C26.6161 8.35605 26.1433 7.79145 25.7809 7.80111C25.4297 7.81078 24.9239 8.16436 24.3198 8.17966C23.5345 8.2006 23.152 7.79548 22.6993 7.78017C22.1879 7.76245 20.6084 7.91548 19.8393 7.94126C19.149 7.96542 18.441 8.30531 17.7009 8.16597L18.11 10.8118C19.2022 10.2005 20.4667 10.4389 21.67 10.4026C22.0671 10.3914 22.4585 10.186 22.8934 10.1852C24.0162 10.1828 25.5239 10.815 26.7442 10.786L26.8682 11.6269C28.3631 10.9697 29.8249 12.3026 30.6182 13.4761C30.7906 13.7314 30.8776 14.3943 30.9646 14.4539C31.1248 14.5643 31.8473 14.4289 32.2186 14.5224C32.6543 14.6327 33.5725 15.3971 34.0147 14.7576C34.7879 13.6388 34.332 7.93642 34.7251 6.33846C34.8105 6.13308 34.659 6.00824 34.4738 5.95428C32.9991 5.52579 30.8639 6.14355 29.3086 5.92125L29.3102 6.73957C28.2704 7.06415 27.5302 5.98569 26.7659 5.90515C26.2061 5.84716 25.511 6.09764 24.9279 6.1218C22.4754 6.2249 19.683 5.91642 17.2603 6.23295C16.7231 6.30302 15.5737 7.12133 15.4602 7.65452ZM24.6138 34.4341C24.8949 31.0094 24.6662 27.6025 24.6339 24.148C24.6025 20.8272 24.8152 17.7263 25.035 14.3798C25.0616 13.9723 25.4466 12.1657 25.3524 12.0231C23.1721 10.9721 20.7228 12.4524 18.4104 12.6425C16.9252 12.7649 15.4594 12.3944 14.1481 12.4355C13.0922 12.4693 11.8495 13.0484 10.8564 13.2361C9.41143 13.5075 7.95603 13.7025 6.49822 13.87C6.47325 14.2236 7.05799 14.4877 7.09745 14.6303C8.06074 18.1178 8.84442 23.0067 9.50245 26.6521C9.94543 29.1046 9.8077 31.6666 10.7855 34.0273C11.9437 33.9854 13.1897 33.6109 14.3422 33.6149C17.1854 33.627 19.6564 34.7441 22.2894 34.8545C23.2518 34.894 23.7254 34.5033 24.6138 34.4341ZM29.9199 14.4781C29.6123 12.5016 26.2722 11.4102 26.4598 14.2751L29.9199 14.4781ZM26.2553 32.2038V35.6672C24.0081 35.7944 21.8391 36.297 19.534 36.0755L19.7692 37.0622L32.569 38.7245C32.5561 38.3677 32.5569 38.0134 32.6254 37.6598C33.4912 33.172 34.3876 28.6535 35.1922 24.1319C35.3622 23.1783 35.2736 21.8767 35.4685 20.9448C35.7504 19.5957 36.7773 18.5165 36.849 17.0248C36.8707 16.5673 36.8305 16.7856 36.5397 16.726C35.2583 16.4651 34.092 16.6374 32.8766 16.5142C31.9923 16.4248 26.4912 15.4655 26.2536 15.7007L26.0531 21.2026C26.8859 20.3254 28.028 20.2111 29.1959 20.4004C31.9271 20.8425 31.8513 23.9539 30.5377 25.7919C30.3726 26.023 29.9433 26.0931 29.8201 26.2952C29.2249 27.265 30.3943 28.664 30.5143 29.674C30.5965 30.3675 30.2534 31.6006 30.342 31.8704C30.5176 32.4044 32.1155 32.2876 32.163 32.5099C32.2347 32.8466 32.275 33.0471 31.857 33.0213C29.9578 32.907 28.1238 32.5059 26.2553 32.2038ZM27.6221 21.0423C24.4777 21.7494 27.4086 28.4747 30.0295 25.4866C31.9802 23.2628 30.8462 20.3174 27.6221 21.0423ZM26.8674 25.8893L25.8493 25.6847L26.2569 32.0017C27.1565 31.5257 29.4681 32.6331 29.9747 31.5442C30.4499 30.5229 29.9232 29.5186 29.7154 28.5359C29.0791 28.4151 29.3666 28.8275 29.3135 29.2302C28.4243 29.7175 28.4259 28.6068 28.4976 27.9254L29.1048 27.8264L28.5958 27.3149C27.3982 28.7268 26.1167 27.5694 26.8674 25.8893ZM27.2741 27.3133C27.5737 27.3785 27.7002 27.2239 27.883 27.0056L27.374 26.2969L27.2741 27.3133Z" fill="#D56342"/>
<path d="M11.7951 27.1099L17.7012 26.5002C17.7447 25.2284 17.4209 23.6337 18.5115 22.7308C16.4681 21.989 15.6321 18.9856 17.9614 18.1021C20.0233 17.3208 20.5935 19.8361 20.3495 21.4059C20.3881 21.4534 21.6083 20.9597 21.5665 21.5082C21.5487 21.7377 20.492 21.9182 20.1513 22.1268C19.1357 22.7485 17.7729 24.7138 18.1458 25.9461C18.4422 26.9271 20.7514 26.2674 21.5673 26.2932L21.9756 24.2595C22.0094 25.0996 22.0666 26.0153 22.5885 26.7008L11.9231 27.6938C11.7032 27.6197 10.8141 25.2059 10.6868 24.7613C10.3807 23.6861 10.0054 21.9592 9.80728 20.8461C9.55599 19.4334 9.44645 17.9506 9.35141 16.5178L11.7951 27.1099ZM19.685 21.7611C20.4034 21.0056 19.8106 19.0025 18.7966 18.6022C15.1762 18.7609 18.0798 23.4501 19.685 21.7611Z" fill="#D56342"/>
<path d="M15.2356 28.9664C15.3725 29.5512 15.0632 30.0932 14.6492 30.4726C15.6641 31.1636 17.5665 30.5845 16.8996 29.0744C17.8637 28.1602 18.7625 29.0285 18.1077 30.1649C19.3827 30.5282 19.7604 29.7984 20.5506 29.4497C21.3882 29.08 21.1659 30.214 20.5683 30.6917C19.8031 31.303 18.9011 31.0468 18.0183 30.9623C16.9938 30.864 17.3643 30.9309 16.3825 30.988C15.0664 31.0638 14.0701 30.5588 12.8137 31.1846L13.9372 30.3743L14.228 28.8271L15.2356 28.9664ZM14.6436 29.9619L14.8433 29.4521L14.4438 29.1485L14.2376 29.9611L14.6436 29.9619ZM17.9031 29.1493H17.498V29.7582H17.9031V29.1493Z" fill="#D56342"/>
<path d="M14.9952 17.5952C16.0873 18.4868 15.6443 20.2595 15.1128 21.3565C14.9589 21.6747 14.4805 21.5466 14.6384 22.1047C15.9649 23.0785 16.7172 24.6386 16.4772 26.2946C15.7724 26.4645 16.1526 25.4754 16.0527 24.989C15.5187 22.3875 13.5913 21.5418 11.1831 22.6267C12.243 21.2333 14.3073 22.6621 14.9887 20.8338C16.4763 16.8477 11.1469 17.2642 12.6087 21.404C11.2886 21.6457 11.7445 19.0296 12.1166 18.3676C12.6055 17.4993 14.1881 16.9363 14.9952 17.5952Z" fill="#D56342"/>
<path d="M20.3471 14.074L18.82 14.3648C15.4775 13.9871 12.3412 14.2504 9.14688 15.2935C8.72081 14.9205 10.3751 14.3857 10.5282 14.3342C13.8127 13.2187 16.9957 13.9935 20.3471 14.074Z" fill="#D56342"/>
<path d="M22.5866 14.4789L22.792 15.6137L22.1831 18.5527C22.6228 17.2995 22.0325 15.8868 22.1791 14.7825C22.2161 14.5055 22.2983 14.1753 22.5866 14.4789Z" fill="#D56342"/>
<path d="M18.9214 15.7029C18.9826 15.7601 18.8473 16.911 18.4164 16.7186C17.7366 16.4149 18.4728 15.2841 18.9214 15.7029Z" fill="#D56342"/>
<path d="M16.4784 17.5327L15.4611 16.8247C15.8928 16.1498 16.2279 17.2299 16.4784 17.5327Z" fill="#D56342"/>
<path d="M10.7743 17.7376C10.3998 17.8713 9.77718 17.1167 9.96162 16.925C10.3361 16.7913 10.9587 17.546 10.7743 17.7376Z" fill="#D56342"/>
<path d="M12.6073 14.8879L12.5074 15.9043C12.1635 15.6611 12.1692 15.2761 12.2022 14.8879H12.6073Z" fill="#D56342"/>
<path d="M15.2554 15.0916L15.0492 15.9043H14.6465L14.8518 15.0916H15.2554Z" fill="#D56342"/>
<path d="M32.7699 30.165L34.5918 19.0905L32.5742 18.2432L26.4594 17.1301C27.0361 17.2364 27.6353 16.8699 28.1717 16.9247C28.5052 16.9577 28.7734 17.242 29.0537 17.2831C31.0624 17.5811 32.9761 17.9548 34.9244 18.5404C35.3634 19.1517 33.8733 25.0909 33.6341 26.2402C33.5423 26.6784 33.6365 27.1342 33.5399 27.5724C33.3643 28.3665 32.9173 29.329 32.7699 30.165Z" fill="#D56342"/>
<path d="M29.5131 35.8737C29.5099 36.9787 28.123 35.6981 27.775 35.6675C27.3369 35.6297 26.5218 36.27 26.6611 35.4637L27.4786 35.4645C26.8802 32.7543 30.3016 33.3334 28.4991 35.3614L29.5131 35.8737Z" fill="#D56342"/>
<path d="M33.3825 21.6108V22.0143L32.3661 22.2197C32.3105 21.5979 32.8799 21.5536 33.3825 21.6108Z" fill="#D56342"/>
<path d="M28.2905 18.3514V19.1641C27.4795 19.16 27.4899 18.3514 28.2905 18.3514Z" fill="#D56342"/>
<path d="M31.9568 19.3701C32.0438 19.8606 31.4977 20.0056 31.1449 20.1836C30.95 19.9476 31.6475 19.2187 31.9568 19.3701Z" fill="#D56342"/>
<path d="M29.2736 10.772C28.7557 11.1723 27.4098 9.82647 27.4775 9.49061C27.5741 9.01541 28.8137 9.489 29.1737 9.0146C30.4753 9.45839 29.7456 9.96983 29.2736 10.772ZM29.5128 9.38671C29.0223 9.29972 28.8773 9.8458 28.6993 10.1986C29.0908 10.2775 29.2639 9.92956 29.512 9.68874L29.5128 9.38671Z" fill="#D56342"/>
</svg>
