<?xml version="1.0" encoding="UTF-8"?>
<svg id="Layer_1" data-name="Layer 1" xmlns="http://www.w3.org/2000/svg" viewBox="0 0 373.08 174.82">
  <defs>
    <style>
      .cls-1 {
        fill: #505a6d;
      }

      .cls-2 {
        fill: #ad915c;
      }

      .cls-3 {
        fill: #c9827b;
      }

      .cls-4 {
        fill: #db8f5a;
      }
    </style>
  </defs>
  <path class="cls-1" d="M143.14,174.82c-3.88-.78-12.38-11.18-6.25-13.24,4.66-1.57,3.31,2.11,4.7,3.65,1.97,2.18,7.74,1.85,7.16-1.95-.82-5.43-11.34-12.2-12.3-19.86-1.1-8.73,7.86-16.36,15.86-12.24,6.6,3.4,3.87,14.72-1.03,12.05l-2.23-5.22-4.87,1.06c-.5,6.7,5.52,9.64,8.37,14.15,1.34,2.13,4.59,8.62,4.53,10.92-.13,4.9-5.46,9.31-9.8,10.67h-4.15Z"/>
  <path class="cls-1" d="M176.31,174.82c-3.72-.86-3.81-3.91-4.51-7.15-1.82-8.38-2.15-18.06-1.19-26.53-.44-.46-11.47,3.35-10.89-2.32.1-.95.91-1.53,1.6-2.06,2.77-2.11,19.44-5.31,23.05-4.98,3.56.33,5.01,2.4,2.82,5.46-2.09,2.93-5.1,2.25-8.26,2.88-.57.59,1.3,13.2,1.42,15.26.08,1.46-.51,3.76-.43,5.72.11,2.71,1.93,10.81,0,12.4-.95.79-2.26.47-3.1,1.31h-.52Z"/>
  <path class="cls-1" d="M372.71,146.84v4.15c-1.46,3.12-6.45,8.89-10.36,6.47-.24-.15-3.89-3.75-4.01-4.01-1.81-4.29,6.08-10.55,10.36-9.62,1.7.37,2.56,2.25,4,3.01Z"/>
  <path class="cls-1" d="M307.16,144.76c3.86.54,6.27,2.96,3.39,6.5-3.45,4.23-9.49-.63-13.49-.28l-1.03,8.29c.54.41,10.44,1.23,12.46,1.8,7.69,2.17,5.34,8.03-1.84,8.05-2.91,0-5.51-1.68-7.8-2.03-7.14-1.1-12.82,1.9-11.5-8.45.64-4.99,5.53-17.22,4.52-21.29-.07-.29-2.68-.86.34-2.86,2.74-1.82,17.29-3.79,20.54-3.07,3.97.88,2.75,5.31,1.84,8.09-5.56,2.2-10.86-.59-16.5-.43l-.52,5.7c3,.3,6.69-.41,9.59,0Z"/>
  <path class="cls-1" d="M327.25,170.54c-1.01-1.08-.79-3.48-.08-4.73,1-1.75,5.98-3.1,8.19-4.77,1.56-1.18,5.42-4.89,5.71-6.72,1.39-8.57-7.54-13.35-15-13.19-.47,4.32,1.79,8.15,2.45,12.32.61,3.83,1.38,8.11-2.84,9.87-1.66-.16-4.97-1.55-5.3-3.29-.81-4.23.11-12.79.01-17.63-.08-4.08-1.64-5.49,4-6.84,16.14-3.89,33.44,8.97,22.1,25.21-2.61,3.74-14.79,14.52-19.25,9.76Z"/>
  <path class="cls-1" d="M116.56,127.76c2.6-.79,7.17,1.06,7.82,3.89s-.8,6.71-.95,9.72c-.4,8.36,1.53,14.93-4.38,22.05-6.86,8.27-14.53,5.99-18.28-3.5-1.99-5.02-2.4-13.25-1.11-18.48.51-2.06,2.83-5.88,4.88-3.42,1.85,2.22,2.04,15.34,3.85,19.47,2.26,5.15,5.26.69,6.11-2.76.64-2.57,1.18-8.68,1.13-11.31-.06-3.24-3.7-14.24.93-15.65Z"/>
  <path class="cls-1" d="M270.11,137.51c-.12,2.39.89,4.62,1.05,6.98.35,5.17.52,14.68-.02,19.71-.21,1.97-1.47,5.58-3.84,5.45-.43-.02-4.7-1.98-4.85-2.2-2.7-3.76,1.46-24.45,1.44-29.94-4.78.09-9.67.11-14.2-1.5-1.84-3.13,5.14-3.93,7.27-4.13,3.36-.32,7.05.29,10.3-.06,2.76-.3,5.67-1.75,8.87-2.01,3.97-.33,10.77-.85,8.9,5.27-.91,3-12.1,3.3-14.93,2.44Z"/>
  <path class="cls-1" d="M70.44,134.47c6.23-1.74,5.41,14.6,5.35,17.83-.04,2.31-1.84,6,1.9,6.86,3.48.8,11.21-1.87,10.88,4.44-.28,5.34-11.32,4.79-15.13,4.48-8.69-.71-5.55-4.76-5.43-11.11.12-6.2-.22-13.08.49-19.21.13-1.12.69-2.94,1.93-3.29Z"/>
  <path class="cls-1" d="M59.63,163.33c-4.05.21-8,.84-12.09.6-2.09-.12-6.64-.38-7.75-2.1-1.51-2.34-.28-3.76-.27-5.91.02-3.72-.71-20.83,1.89-22.61l1.38-.35c5.87.78,4.79,17.97,4.72,22.19,4.18,1.59,8.79-1.44,12.71,1.8,2.27,1.87.13,4.11-.58,6.37Z"/>
  <path class="cls-1" d="M11.87,148.02c2.11,2.55-2.9,8.81-5.67,8.56-6.17-.56-8.03-6.18-4.25-10.76,2.67-3.24,7.82-.34,9.92,2.2Z"/>
  <g>
    <path class="cls-1" d="M22.5,170.58c-2.29-3.85-.98-8.71-1.11-13.15-.11-3.72-.87-7.44-.56-11.4.6-7.65,5.29-9.98,7.12-1.38,1.27,6,.55,12.85.65,19.04.03,2.08,1.61,4.75-1.14,6.07-.69.33-4.43,1.12-4.95.82Z"/>
    <path class="cls-1" d="M20.71,130.38c11.07-2.05,6.14,11.35-3.28,5.07.09-2.63.43-4.54,3.28-5.07Z"/>
  </g>
  <path class="cls-1" d="M207.4,154.1c-.17.74.07.84.54,1.27,2.5,2.3,14.74,5.43,11.41,10.94-2.84,4.69-13-4.86-16.61-5.47-.12,3.56,1.09,9.66-3.88,9.9-6.17.3-3.95-5.95-3.88-9.62.08-4.14-.22-8.32-.02-12.45.08-1.53,1.22-5.67,1.07-6.67-.1-.7-3.89-.72-1.07-4.74,3.17-4.52,12.15-5.29,16.24-1.73,5.4,4.71,2.04,15.62-3.8,18.58ZM201.71,150.98c3.34-1.29,7.99-7.21,4.14-10.1-1.09-.82-5.17-2.19-5.21.02l1.07,10.09Z"/>
  <path class="cls-1" d="M225.58,163.89c-1.74-1.53,2.2-11.15,2.8-13.43,1.04-3.94,3.19-17.66,7.02-18.89,6.37-2.04,7.94,9.04,9.89,13.38.71,1.58,1.98,2.67,2.78,4.48,1.49,3.35,5.95,16.73-1.83,14.27-2.71-.86-1.87-3.84-3.55-5.25-1.98-1.66-8.13.53-10.92.03-1.06,1.14-3.78,7.52-6.19,5.41ZM238.49,151.49l-2.58-4.14-1.04,4.66,3.62-.52Z"/>
  <path class="cls-1" d="M.74,100.59c2.53-9.93,10.09-17.88,18.04-22.75,2.45-1.5,12.21-5.12,12.97-6.57,1.46-2.78.79-16.9.15-20.56-.97-5.56-3.96-10.16-9.59-8.19-9.75,3.42-5.77,22.95-14.41,24.3-3.59.56-5.75.2-6.13-4.15C-.02,42.48,40.57,21.79,42.47,52.2c1,15.93-1.53,32.8-.54,48.68.15,2.33.63,8.71,3.33,8.98,4.44.44,4.15-11.14,4.72-14.15.75-.76,3.89-.99,3.89.18v8.84c0,1.11-1.15,5.23-1.61,6.5-2.48,6.84-11.17,13.28-16.26,5.66-1.8-2.7-1.78-5.81-3.25-8.56-1.68-.4-4.64,5.32-5.92,6.65-8.74,9.16-22.44,6.57-26.09-6.66v-7.74ZM32.02,77.38c-9.29,2.25-19.23,10.09-20.29,21.34-1.5,15.94,10.36,18.01,16.92,6.12,4.88-8.85,3.95-17.55,3.38-27.46Z"/>
  <path class="cls-1" d="M203.31,109.43c-1.01-1.16-6.36,4.84-7.49,5.76-10.4,8.38-25.55,6.64-27.63-9.49-1.89-14.65.3-29.95.39-44.6.04-5.7-.12-11.69-1-17.17-1.93-2.11-7.52-.17-7.51-3.85,0-1.94,1.28-2.31,2.77-2.5,2.05-.26,13.22-.27,14.54.42.45.23.86.5,1.03,1.07.54,17.27-.44,34.62.06,51.88.04,1.31.48,2.51.54,3.82.28,6.78-1.7,15.99,6.81,17.28,9.05,1.37,15.15-7.03,16.5-16.16l-.72-52.24-6.72-1.91c-1.28-2.05-.42-3.74,1.77-4.11,2.49-.42,11.94-.52,14.35-.02.66.14,1.17.41,1.51,1.09l.74,65.5c.56,3.43,7.96,1.44,7.97,4.41,0,2.53-7.92,3.74-10.12,5.35-1.87,1.36-4.28,5.75-6.53,5.46-.44-.06-1.24-.51-1.24-.86v-9.12Z"/>
  <path class="cls-2" d="M128.34,75.16c-2.38,12.26,2.58,42.21,19.14,35.4,2.53-1.04,5.23-4.54,6.45-7.2,1.93-4.24,1.56-12.78,6.68-12.18.51,10.4-5.11,27.16-15.68,28.69-35.58,5.18-36.93-76.04-6.79-82.72,11.83-2.62,18.99,5.47,21.73,17.55,1.34,5.91,2.66,15.54-1,20.45h-30.53ZM139.62,41.58c-5.83,1.2-9.42,12.42-10.54,18.1-.56,2.81-2.27,9.72.72,10.82,2.33.85,14.33.28,17.05-.42,6.77-1.76,3.28-20.82.27-25.49-1.84-2.85-4.43-3.63-7.5-3Z"/>
  <path class="cls-2" d="M300.37,75.16c-3.1,1.12.09,19.76,1.1,23.09,4.92,16.15,19.48,18.81,25.2,1.77.95-2.82.86-9.18,4.42-8.79,2.46.94-.16,10.67-.8,12.81-1.99,6.58-6.71,14.31-13.26,15.63-35.97,7.28-38.07-75.74-7.6-82.52,14.97-3.33,21.97,10.41,22.96,25.02.14,2.08.49,12.98-2.23,12.98h-29.79ZM299.65,70.16c4.47.42,18.53,2.25,21.26-1.97,2.71-4.19.32-22.42-3.73-25.56-2.79-2.17-7.28-1.23-9.79,1.12-5.12,4.8-8.33,19.12-7.75,26.42Z"/>
  <path class="cls-1" d="M369.08,62.38c-.37.27-1.59.13-2.07-.04-3.27-1.19-3.89-19.07-12.56-20.29-6.08-.85-9.89,4.17-9.65,10.7.49,13.45,24.2,20.71,27.6,38.41,3.8,19.84-8.46,30.42-25.36,28.79-2.73-.26-9.65-1.93-10.13-5.31-.56-3.99.07-10.05-.01-14.36-.04-2.1-1.61-5.92,1.33-6.8,3.16-.95,4.19,8.29,5.22,11.12,2.18,5.99,5.96,11.45,12.48,10.86,7.34-.66,8.88-9.45,8.25-16.25-1.42-15.48-23.87-20.28-27.16-37.19-2.5-12.84,4.24-22.76,15.63-24.86,3.65-.67,15.63-.7,16.5,4.57.54,3.3,1.14,11.59,1.02,14.94-.07,2.01-.49,3.84-1.07,5.71Z"/>
  <path class="cls-4" d="M270.5,21.37c-1.04-1.17-2.03-3.96-2.16-5.62-1.03-13.54,17.35-13.11,14.19,1.98-1.21,5.79-8.59,7.51-12.03,3.64Z"/>
  <g>
    <path class="cls-3" d="M91.1,0h-7.94c-10.84,2.72-18.21,13.95-19.72,25.85-1.04,8.21,1.33,12.15-8.58,13.39l.53,3.28c1.14.19,6.65-.47,6.94.95l.23,68.72c-1.51,3.55-12.66-.08-8.58,6.51l27.37.03c4.98-6.47-7.61-3.05-7.61-7.37V43.38l.74-.83h13.9c1.21,0,1.44-4.24,0-4.97h-13.9l-.74-.83v-20.45c0-.78,1.98-4.54,2.57-5.43,3.46-5.26,9.01-7.72,14.66-5.46,6,2.4,7.42,10.99,7.91,17.98.43-5.35,3.41-16.21,3.41-16.21-3.13-3.56-7.12-5.4-11.17-7.18Z"/>
    <path class="cls-4" d="M117.94,114.64c-7.43-.68-8.87-.85-9.46-9.37-.92-13.23.33-27.13.51-40.32.28-20.59,1.04-41.2-.13-61.8-2.7-5.57-5.6.54-6.59,4.02,0,0-2.99,10.86-3.41,16.21.1,1.39.16,2.73.21,3.93,1.14,26.96-1.54,54.72-.55,81.79-.86,6.28-7.8,3.92-9.19,6.95-.41.9.33,2.29,1.13,2.64,9.05,1.57,18.33-.33,27.48-.12.72-.56.73-3.39,0-3.94Z"/>
  </g>
  <path class="cls-3" d="M261.89,45.88c.14-10.39-10.66-10.73-16.84-6.3-3.02,2.16-4.51,5.98-7,8.79l-.99-.56v-10.22c-3.82-.87-5.77,3.22-8.59,5.08-1.48.98-3.27,1.68-4.91,2.27-2.28.81-6.35-.01-4.04,4.3,1.77,1.25,5.6-.55,7.15,2.41.48.91.9,5.76.98,7.2.7,12.88-.89,25.89-1.03,38.69-.04,3.58,1.22,11.84-.04,14.33-1.46,2.89-8.65,2.07-7.83,5.48.09.37,1.05,1.49,1.18,1.49h26.81c4.32-7.3-7.47-2.22-8.58-7.58.92-14.14-4.51-52.87,5.33-62.91,6.72-6.85,6.9,4.77,11.81,5.7,3.6.68,6.02-.95,6.86-4.87-2.67-.83-.28-3.29-.28-3.29Z"/>
  <path class="cls-4" d="M289.38,114.9c-2.76-2.17-7.77,1.51-8.56-5.81l-.06-70.12-.46-1.15c-2.04-1.64-7.82,4.92-10.11,5.96-.98.45-8,2.44-8.29,2.1,0,0-2.39,2.46.28,3.29,2.39.87,7.56.14,8.15,3.63l-.02,56.87c-.75,5.98-8.1,3.61-8.85,6.2-.42,1.45.26,2.25,1.42,2.7,3.47,1.33,21.88,1.33,25.36,0,1.51-.58,2.57-2.56,1.16-3.67Z"/>
</svg>