<svg xmlns="http://www.w3.org/2000/svg" width="146" height="62" viewBox="0 0 146 62" fill="none">
  <path fill-rule="evenodd" clip-rule="evenodd" d="M30.8314 0.428561C27.1859 1.74722 24.8059 5.32973 24.3415 10.1977C24.2405 11.2555 24.0759 12.274 23.9757 12.461C23.7544 12.8736 23.1658 13.1829 22.0738 13.46C21.34 13.6462 21.2531 13.7288 21.2531 14.2393C21.2531 14.8077 21.2579 14.8103 22.398 14.8103C23.1813 14.8103 23.6386 14.9059 23.8463 15.1132C24.1155 15.3821 24.1497 16.7498 24.1497 27.2561C24.1497 39.0961 24.1497 39.0961 23.7152 39.3747C23.4764 39.528 22.8462 39.7083 22.3152 39.7754C20.7831 39.9688 20.5305 40.0468 20.4087 40.3642C20.3455 40.5283 20.4002 40.8328 20.5303 41.0408C20.7559 41.4014 21.0117 41.4187 26.1204 41.4187C31.2159 41.4187 31.4839 41.4008 31.6741 41.0458C31.9319 40.5647 31.9288 40.537 31.5795 40.1882C31.4177 40.0266 30.7601 39.8349 30.1184 39.7624C29.2182 39.6608 28.8882 39.5338 28.6734 39.2066C28.4373 38.8468 28.4027 36.9745 28.4448 26.8446C28.4946 14.9067 28.4946 14.9067 31.3912 14.8103C34.2878 14.7138 34.2878 14.7138 34.2878 13.9426C34.2878 13.1713 34.2878 13.1713 31.3429 13.1181C29.1827 13.079 28.3963 13.002 28.3917 12.8289C28.388 12.6991 28.3809 11.0467 28.3755 9.15711C28.366 5.82545 28.3813 5.6899 28.8756 4.6811C30.6767 1.00488 35.5044 0.481971 37.1609 3.78354C38.1621 5.77937 38.1544 5.62242 38.0907 22.6042C38.0542 32.3531 37.9595 38.534 37.8437 38.7504C37.6102 39.1859 36.827 39.5918 35.8947 39.7601C34.131 40.0789 33.9537 41.2544 35.6349 41.4847C36.5464 41.6094 44.5763 41.4621 45.3432 41.3067C45.6742 41.2396 45.7777 41.0848 45.7777 40.6567C45.7777 40.0391 45.6749 39.9844 44.1363 39.781C41.7825 39.4698 41.8157 39.6849 42.0329 26.1863C42.2347 13.6456 42.2013 1.84479 41.9619 1.02397C41.6376 -0.0868339 40.3456 0.226491 39.9607 1.5091C39.834 1.93155 39.651 2.27727 39.5542 2.27727C39.4575 2.27727 39.0149 2.02873 38.5709 1.72486C36.7246 0.460954 35.7442 0.103667 33.9016 0.0228779C32.4112 -0.0426793 31.9738 0.0151652 30.8314 0.428561ZM105.654 2.42227C104.725 2.89524 104.25 3.63103 104.141 4.76728C104.026 5.96544 104.317 6.71973 105.188 7.48424C105.741 7.96802 106.011 8.06153 106.854 8.06095C108.09 8.06018 108.929 7.59299 109.373 6.65745C109.792 5.77667 109.785 4.28313 109.358 3.45055C108.722 2.21075 107.006 1.7343 105.654 2.42227ZM120.744 12.9153C118.534 13.1661 116.652 14.2748 115.17 16.1987C110.498 22.2604 110.8 34.3675 115.748 39.3774C116.466 40.1053 117.396 40.8048 118.096 41.1449C119.152 41.6578 119.435 41.708 121.282 41.708C123.682 41.708 124.521 41.3904 125.993 39.9244C127.565 38.3578 128.897 34.9801 128.775 32.8703C128.725 32.0136 128.658 31.8659 128.294 31.8142C127.788 31.7425 127.41 32.3753 126.986 33.998C126.244 36.8436 124.3 38.8938 122.331 38.9079C118.805 38.9331 116.474 35.3061 116.14 29.2714C115.954 25.9218 115.425 26.1863 122.31 26.1863C129.511 26.1863 128.917 26.4796 128.894 22.9351C128.875 20.1489 128.552 18.5383 127.634 16.6592C126.213 13.7471 124.001 12.5453 120.744 12.9153ZM138.083 12.8275C134.738 13.0813 132.333 14.5621 131.18 17.0772C130.295 19.0067 130.635 22.3356 131.903 24.1504C132.67 25.2493 134.187 26.6547 136.459 28.3715C138.906 30.221 140.281 31.6648 140.918 33.0546C141.37 34.0387 141.407 34.3048 141.322 35.9223C141.205 38.1557 140.73 39.1393 139.434 39.8309C138.734 40.2048 138.373 40.2761 137.576 40.1984C135.14 39.9609 133.931 38.5944 132.77 34.7666C132.191 32.8543 132.018 32.5492 131.517 32.5492C130.736 32.5492 130.644 33.0131 130.719 36.5791C130.758 38.4444 130.861 40.1562 130.947 40.3831C131.368 41.4878 136.416 42.2023 139.052 41.5306C141.16 40.9934 142.978 39.6458 143.874 37.9569C144.666 36.4636 144.899 33.0918 144.342 31.1864C143.659 28.8493 142.444 27.425 138.257 24.0553C134.581 21.096 133.619 19.659 133.908 17.5565C134.069 16.3842 134.502 15.6563 135.386 15.0721C136.064 14.624 136.289 14.5764 137.298 14.6676C139.176 14.8376 139.868 15.6378 141.173 19.149C142.019 21.4288 142.211 21.7516 142.717 21.7516C143.567 21.7516 143.726 20.5486 143.423 16.4046C143.272 14.3469 143.237 14.216 142.712 13.7754C141.951 13.1355 139.807 12.6966 138.083 12.8275ZM8.60463 13.089C5.83316 13.769 2.25142 16.4943 1.18779 18.7325C0.491256 20.1983 0.280383 21.4874 0.585878 22.412C0.850241 23.2114 1.30926 23.3938 2.67182 23.2405C3.8739 23.1052 4.5044 22.3898 5.0422 20.5513C5.87372 17.7085 6.2047 16.8074 6.66816 16.1266C7.18568 15.3659 8.51657 14.6174 9.35099 14.6174C10.773 14.6174 11.8484 15.9824 12.1684 18.1932C12.4449 20.1034 12.4189 24.055 12.1259 24.6305C11.9485 24.9791 11.3182 25.3248 9.66324 25.9808C1.85845 29.0745 -2.10854 35.4981 1.13739 39.7864C3.18336 42.4892 7.32762 42.6456 9.96989 40.1195C10.3874 39.7206 10.9895 39.0616 11.3081 38.6553C12.185 37.5368 12.5585 37.6158 12.9766 39.0085C13.8708 41.9856 16.2281 42.7555 18.4554 40.7979C20.0425 39.4028 20.6738 37.6423 20.6738 34.6098C20.6738 33.392 20.6489 33.3217 20.1746 33.2027C19.4153 33.0124 19.1413 33.4495 18.9455 35.1634C18.742 36.9431 18.5506 37.5243 18.0068 38.0132C17.4649 38.5005 17.0013 38.3586 16.5324 37.5618C16.1449 36.9028 16.1371 36.6751 16.1926 27.536C16.2316 21.0725 16.1804 17.8137 16.0267 16.9842C15.7361 15.4159 14.9586 14.2139 13.7948 13.5329C12.9936 13.0641 12.6419 12.9868 11.1245 12.9463C10.1634 12.9207 9.02947 12.9849 8.60463 13.089ZM52.9226 13.0628C48.9765 14.2688 46.2019 18.4523 45.3837 24.4306C45.0564 26.8226 45.2323 30.6136 45.7738 32.8385C46.726 36.7507 48.9626 40.004 51.5002 41.1679C52.9711 41.8423 55.4809 42.0116 56.9228 41.5335C58.1979 41.1106 59.8414 39.6205 60.5998 38.2001C61.373 36.7516 62.1917 33.9333 62.1917 32.7205C62.1917 31.846 62.1572 31.778 61.7134 31.778C61.0904 31.778 60.7336 32.341 60.2485 34.0891C59.7597 35.8502 59.4577 36.431 58.4794 37.4905C57.8988 38.1195 57.4276 38.4166 56.6542 38.641C53.5429 39.5442 50.934 37.2368 49.9418 32.7043C49.6091 31.1845 49.2592 28.09 49.3608 27.5679C49.6581 26.0421 49.0153 26.1863 55.5195 26.1863C62.0202 26.1863 61.7609 26.2363 62.2033 24.8981C62.5266 23.9202 62.3087 20.7038 61.7947 18.8599C61.0545 16.206 59.5809 14.141 57.8542 13.3383C57.0489 12.9639 56.5818 12.8885 55.1433 12.9006C54.1875 12.9087 53.1881 12.9816 52.9226 13.0628ZM96.3171 13.1592C95.1583 13.572 94.4193 14.1753 93.3066 15.6172C91.8921 17.4505 91.851 17.3899 91.7434 13.3159C91.7299 12.8019 90.7692 13.1056 89.7264 13.9538C88.5209 14.9342 87.4665 15.4552 86.0421 15.7739C85.0092 16.0051 84.7819 16.2018 84.9233 16.7419C85.02 17.1115 85.5215 17.3099 86.3693 17.3141C87.1751 17.3182 87.8699 17.7177 88.0244 18.2657C88.1702 18.7828 88.1953 24.9595 88.0871 33.6637C88.0149 39.4682 88.0545 39.3296 86.3459 39.7771C85.0293 40.122 84.6647 40.4481 84.9663 41.0105C85.1809 41.411 85.2855 41.4187 90.4679 41.4187C96.1362 41.4187 95.9854 41.4451 95.9854 40.452C95.9854 40.0447 95.7537 39.9583 94.1833 39.7798C92.2799 39.5633 92.3838 39.9601 92.2186 32.2724C92.1399 28.5954 92.1362 24.8758 92.2107 24.0068C92.5908 19.5795 93.5828 17.103 95.2805 16.3441C96.2685 15.9024 96.5469 16.0421 97.4321 17.4239C98.1484 18.5418 98.6674 18.8594 99.7784 18.8594C100.512 18.8594 101.585 18.0077 101.585 17.4258C101.585 17.1767 101.738 17.1402 102.406 17.2303C103.798 17.4183 104.18 17.5286 104.53 17.8438C104.844 18.1261 104.868 18.8725 104.868 28.2317C104.868 35.2112 104.802 38.4602 104.654 38.7855C104.412 39.3147 103.895 39.5974 102.81 39.7933C101.781 39.9788 101.392 40.2129 101.392 40.6475C101.392 41.4174 102.013 41.5151 106.896 41.5146C111.899 41.5142 112.399 41.427 112.399 40.5572C112.399 40.0465 112.232 39.9684 110.725 39.7779C108.886 39.5451 109.034 40.6683 108.924 26.0215C108.828 13.3551 108.821 13.1706 108.441 13.1166C108.079 13.0651 107.582 13.3462 105.678 14.6809C105.025 15.1386 102.598 15.9525 101.852 15.9639C101.733 15.9656 101.586 15.6627 101.526 15.2904C101.375 14.3633 100.722 13.5086 99.9045 13.1673C99.0612 12.8154 97.2933 12.8115 96.3171 13.1592ZM62.3082 13.3233C62.0365 13.5234 61.9749 13.7253 62.0697 14.1024C62.1983 14.614 62.3151 14.6693 63.7513 14.898C65.153 15.1213 65.1385 15.0756 65.1578 19.358C65.1673 21.4699 65.1408 26.1912 65.0989 29.8498C65.0341 35.5149 65.0684 36.6691 65.3316 37.6289C66.1359 40.563 68.1539 41.9191 71.5026 41.7762C73.5018 41.691 74.656 41.1654 76.7346 39.3947C77.5439 38.705 78.3362 38.1409 78.4949 38.1409C78.7251 38.1409 78.7952 38.4839 78.8396 39.828C78.8912 41.3844 78.9275 41.5198 79.3087 41.5739C79.5897 41.614 80.1365 41.2654 81.0167 40.4853C81.9346 39.6716 82.5732 39.271 83.2104 39.1088C84.7572 38.7151 85.4118 38.4415 85.6289 38.0979C85.9361 37.6114 85.6202 37.3953 84.2487 37.154C83.5962 37.0393 82.9526 36.8133 82.8184 36.6518C82.5067 36.2767 82.4843 35.4575 82.465 23.716C82.4561 18.2684 82.3708 13.809 82.2702 13.545C82.0914 13.0749 82.0914 13.0749 78.9238 13.0749C75.5203 13.0749 75.2249 13.1572 75.3564 14.0702C75.4205 14.5147 75.5186 14.5573 77.3506 14.9387C78.123 15.0995 78.123 15.0995 78.2427 18.763C78.3084 20.7779 78.3737 24.9666 78.3876 28.0711C78.4152 34.2919 78.3356 34.8312 77.1243 36.6323C75.5593 38.9588 72.2072 39.8388 70.47 38.3792C69.2693 37.3704 69.2932 37.6158 69.1644 24.9971C69.0999 18.6694 68.9748 13.4201 68.8865 13.3317C68.7985 13.2434 67.3647 13.1447 65.7003 13.1121C63.3365 13.066 62.5943 13.1121 62.3082 13.3233ZM56.1504 14.8041C56.4984 15.016 56.9794 15.5925 57.2453 16.1162C58.1998 17.9971 58.6361 21.8027 58.0562 23.1888C57.5533 24.3905 57.1037 24.5306 53.4899 24.6134C50.4311 24.6835 50.2419 24.6666 49.8628 24.2881C49.5255 23.9512 49.4795 23.7291 49.5689 22.8684C49.8213 20.437 51.1091 16.9524 52.2533 15.6041C53.2563 14.4225 54.952 14.0743 56.1504 14.8041ZM122.745 14.7071C123.266 14.9248 123.53 15.2246 123.89 16.0105C124.518 17.3811 124.951 19.5346 124.951 21.2883C124.951 24.3347 124.34 24.7136 119.583 24.613C117.88 24.5769 116.416 24.4768 116.33 24.3907C115.975 24.0357 116.293 21.5079 116.941 19.5342C118.296 15.4087 120.343 13.7056 122.745 14.7071ZM12.2957 27.4583C12.3648 27.7337 12.3741 29.2305 12.3159 30.7844C12.1839 34.3216 11.687 35.7444 9.85731 37.825C8.63765 39.2122 6.34934 39.5054 5.21503 38.4203C4.426 37.6654 4.20006 36.812 4.29777 34.9536C4.36613 33.6521 4.49609 33.1252 5.00126 32.1007C5.95617 30.1637 7.92953 28.513 10.6017 27.4155C11.9908 26.845 12.1423 26.8489 12.2957 27.4583ZM50.334 44.8022C49.5734 45.5616 49.4598 46.6635 49.9466 48.5608C50.2064 49.5729 50.2226 50.1276 50.0519 52.168C49.8167 54.9808 49.3212 56.3202 48.4794 56.4184C47.7842 56.4996 47.4301 55.7707 47.0462 53.4697C46.8691 52.4092 46.6295 50.9775 46.5134 50.2882C46.1942 48.3911 46.0613 48.131 45.449 48.2027C44.5402 48.309 44.2259 49.1618 44.0978 51.8699C44.0067 53.7967 44.0486 54.4617 44.3199 55.394C44.9994 57.7278 46.0907 59.1602 47.472 59.5316C48.5957 59.8337 49.562 59.5408 50.6779 58.56C52.4995 56.959 53.1099 55.2509 53.1134 51.7444C53.1147 50.4772 53.2192 48.726 53.3457 47.8526C53.6043 46.0671 53.4706 45.516 52.6492 44.9787C51.8926 44.4837 50.7409 44.3958 50.334 44.8022ZM108.924 45.4669C108.446 45.544 107.794 45.6996 107.475 45.8124C107.157 45.9252 105.723 46.0596 104.289 46.1113C101.39 46.2158 100.173 46.5171 100.078 47.1548C99.9962 47.7014 100.786 47.9243 103.388 48.0894C105.756 48.2396 105.586 47.7332 104.951 52.7564C104.665 55.0195 104.592 57.7278 104.79 58.7185C104.878 59.1562 105.107 59.3893 105.761 59.7066C106.893 60.2558 107.079 60.2344 107.607 59.4951C108.041 58.8876 108.055 58.7449 108.055 54.8194C108.055 52.5924 107.987 50.1878 107.905 49.4759C107.756 48.1817 107.756 48.1817 109.643 48.1748C111.706 48.1671 112.946 47.9507 113.197 47.5545C113.459 47.1424 113.389 46.166 113.064 45.7037C112.795 45.3194 112.61 45.2777 111.278 45.3009C110.461 45.3149 109.401 45.3898 108.924 45.4669ZM14.4944 45.6017C14.0298 45.7675 13.722 46.2705 13.722 46.8642C13.722 47.3112 13.8488 47.4687 14.3917 47.695C15.1065 47.9933 16.192 48.0599 16.5413 47.8269C16.8538 47.6187 17.1979 46.8997 17.1979 46.4554C17.1979 46.2424 17.0048 45.9331 16.7686 45.7681C16.3557 45.4792 15.0959 45.3871 14.4944 45.6017ZM60.7546 45.7555C59.59 46.1699 59.0557 46.6438 58.4605 47.7915C58.0114 48.6576 57.9281 49.0284 57.9874 49.9026C58.0818 51.297 58.6295 52.3423 60.4758 54.6514C62.4157 57.078 62.7332 57.7062 62.358 58.377C61.7845 59.4024 59.5917 58.8733 59.4539 57.6763C59.3461 56.7404 57.9648 56.8256 57.5635 57.7928C57.1804 58.7162 57.4871 59.5042 58.7007 60.716C59.5713 61.5853 59.9667 61.8388 60.626 61.9501C61.7943 62.1471 62.997 61.7574 64.0347 60.8454C65.1408 59.8732 65.4745 59.224 65.4745 58.0446C65.4745 56.6899 64.0577 53.8331 62.8421 52.7368C61.9281 51.9127 60.8404 49.9882 60.8402 49.1948C60.84 48.877 60.991 48.7461 61.4676 48.6503C61.8128 48.5808 62.2375 48.4844 62.4115 48.4358C62.6467 48.3703 62.8174 48.5965 63.0773 49.318C63.3733 50.1403 63.5018 50.2878 63.9196 50.2853C64.8274 50.2797 65.2814 49.6361 65.2814 48.3537C65.2814 46.1032 63.1754 44.8944 60.7546 45.7555ZM94.5879 46.1201C94.0389 46.5362 93.318 48.3431 92.8041 50.59C92.539 51.7496 92.098 53.3492 91.8239 54.1445C90.8872 56.8638 90.8354 58.0008 91.649 58.0008C92.0983 58.0008 92.5359 57.5537 93.1106 56.5077C93.4132 55.9568 93.4765 55.9367 95.3097 55.8079C97.4169 55.66 97.7842 55.8033 98.0174 56.8636C98.2362 57.8587 99.6648 58.3961 100.243 57.7008C100.764 57.0732 100.222 53.975 99.2898 52.2528C98.5037 50.8009 97.9547 49.5731 97.4335 48.1002C97.0106 46.9053 96.7713 46.5098 96.2969 46.221C95.5972 45.7949 95.0587 45.7632 94.5879 46.1201ZM119.574 46.1693C117.345 46.5125 115.878 46.9926 115.602 47.4691C115.446 47.7396 115.454 47.8534 115.634 47.9189C116.041 48.0668 115.91 49.0839 115.006 52.7948C114.528 54.7567 114.137 56.7678 114.137 57.2637C114.137 58.5964 114.605 58.8924 116.989 59.0673C118.023 59.1431 119.103 59.3245 119.39 59.4706C120.02 59.7915 122.423 59.8237 123.091 59.5202C123.415 59.3725 123.606 59.0868 123.694 58.6169C123.902 57.5111 123.07 57.042 120.22 56.6581C117.166 56.2468 117.476 56.4832 117.681 54.7218C117.851 53.2687 117.888 53.1804 118.329 53.1804C118.586 53.1804 119.226 53.3648 119.751 53.59C121.199 54.2124 122.634 53.8219 123.114 52.6753C123.386 52.0249 123.384 51.9329 123.091 51.609C122.62 51.0901 121.599 50.869 119.669 50.8678C118.189 50.8669 117.974 50.8256 118.075 50.5616C118.14 50.3939 118.193 49.9043 118.193 49.4738C118.193 48.5999 117.855 48.6366 121.557 49.1093C123.109 49.3076 124.372 49.0174 124.372 48.4626C124.372 48.2365 124.47 47.9538 124.59 47.8343C124.875 47.5497 124.659 46.7181 124.174 46.2343C123.709 45.7696 122.298 45.7497 119.574 46.1693ZM72.8126 46.3731C72.1222 46.5291 70.7591 46.8282 69.7833 47.0376C67.7493 47.4739 66.7585 48.0307 66.6699 48.7872C66.5673 49.6633 67.764 49.976 69.8646 49.6222C70.5919 49.4996 70.5919 49.4996 70.6094 52.9307C70.6231 55.5852 70.7238 56.8858 71.054 58.6757C71.5848 61.5542 71.7619 61.8571 72.9136 61.8571C74.1394 61.8571 74.6419 61.3332 74.459 60.2452C74.3852 59.8061 74.2916 58.2756 74.251 56.8439C74.2103 55.4123 74.0755 53.1253 73.9515 51.7617C73.6953 48.9445 73.6943 48.9464 75.1009 48.9414C75.7967 48.9391 76.0537 48.8259 76.5975 48.2829C77.3452 47.5364 77.4251 46.9884 76.8678 46.4319C76.3955 45.9603 74.7456 45.9364 72.8126 46.3731ZM22.7551 46.5752C22.1802 46.7061 21.9825 47.9447 21.8546 52.2164C21.727 56.4843 21.8118 57.2945 22.4193 57.6192C22.6136 57.723 24.2451 57.808 26.0447 57.808C29.3167 57.808 29.3167 57.808 29.5204 57.2778C29.9373 56.1916 29.9574 55.9219 29.6448 55.6097C29.0301 54.996 28.5224 54.8774 26.6085 54.9007C24.6726 54.9243 24.6726 54.9243 24.781 53.493C25.0888 49.4298 24.1592 46.2551 22.7551 46.5752ZM81.4058 46.9026C80.5201 47.2288 79.3782 48.3676 79.3782 48.9248C79.3782 49.1325 79.5478 49.4209 79.755 49.5657C80.0954 49.8039 80.1155 49.9496 79.9627 51.071C79.7339 52.7497 79.6582 59.3513 79.8623 59.8326C80.0927 60.3755 80.3364 60.501 81.1674 60.5045C82.1786 60.5086 82.6593 59.7198 82.6603 58.0538C82.661 56.8595 82.6633 56.8543 83.1343 57.0333C83.3948 57.132 83.9614 57.4359 84.3938 57.7083C85.7853 58.5854 87.4269 59.3505 87.9172 59.3505C88.5193 59.3505 89.0335 58.7954 89.0335 58.1452C89.0335 57.4906 88.0056 56.6141 85.9653 55.5289C85.1038 55.0708 84.399 54.6728 84.399 54.6445C84.399 54.6161 84.7304 54.2452 85.1353 53.8202C86.136 52.7697 86.5832 51.7658 86.6786 50.3555C86.7879 48.7389 86.4716 47.8805 85.5395 47.2647C84.5942 46.64 82.5942 46.4649 81.4058 46.9026ZM32.9502 47.4442C32.7399 47.7649 32.6387 48.7337 32.5624 51.1559C32.5056 52.9587 32.4046 55.3448 32.338 56.4583C32.2274 58.3068 32.2507 58.5249 32.6078 58.9649C32.9944 59.4411 33.0336 59.4467 35.9095 59.4384C38.5371 59.4309 38.872 59.3916 39.354 59.0335C40.0702 58.5018 40.2002 57.2521 39.6015 56.6544C39.2537 56.3071 38.9874 56.2553 37.6934 56.2828C36.199 56.3147 35.3663 56.0852 35.3323 55.6321C35.3227 55.5033 35.2987 53.9662 35.2792 52.2164C35.2503 49.6051 35.18 48.887 34.8874 48.2099C34.3573 46.9828 33.48 46.6361 32.9502 47.4442ZM128.473 47.3875C127.235 47.5823 126.5 48.0323 126.484 48.6055C126.453 49.7291 126.543 55.8401 126.596 56.2655C126.63 56.5306 126.664 56.8108 126.673 56.8883C126.682 56.9656 127.049 57.2122 127.489 57.4364C128.183 57.7899 128.352 57.8105 128.761 57.5917C129.586 57.1507 129.766 56.5331 129.572 54.8045C129.477 53.955 129.224 52.7512 129.01 52.1294C128.796 51.5078 128.62 50.6544 128.62 50.2333C128.62 49.4672 128.62 49.4672 129.634 49.6012C131.59 49.8596 133.369 50.9937 133.954 52.3548C134.101 52.6961 134.221 53.375 134.221 53.8634C134.221 54.6798 134.132 54.8441 133.127 55.8964C132.372 56.6868 131.581 57.2646 130.572 57.7621C129.019 58.5286 128.641 59.0229 128.88 59.9739C129.079 60.7668 129.978 61.0222 131.207 60.6354C132.923 60.0954 135.678 57.8288 136.636 56.1691C137.617 54.47 137.694 52.1857 136.828 50.487C136.231 49.316 135.741 48.8959 134.027 48.089C132.855 47.5366 132.285 47.3896 131.034 47.3171C130.185 47.268 129.032 47.2996 128.473 47.3875ZM15.2419 49.5652C14.9007 50.3727 14.943 59.1458 15.2923 59.9893C15.5018 60.4955 15.5698 60.523 16.309 60.4008C17.261 60.2435 17.7693 59.998 17.7994 59.6812C17.922 58.3872 17.6876 52.0104 17.4763 50.8925C17.1587 49.2113 16.9714 48.9385 16.1356 48.9385C15.6092 48.9385 15.4636 49.0405 15.2419 49.5652ZM83.0973 49.1419C84.578 49.5526 84.7417 50.8518 83.4873 52.238C82.36 53.4839 82.1916 53.3133 81.9852 50.7157C81.8361 48.8404 81.8647 48.8001 83.0973 49.1419ZM143.142 50.6833C141.92 51.1729 140.593 52.6687 140.593 53.5559C140.593 53.8028 140.952 54.3406 141.447 54.8346C142.43 55.8168 143.167 55.9408 144.218 55.301C145.091 54.7692 146 53.2857 146 52.3914C146 51.8161 145.868 51.562 145.317 51.0795C144.614 50.4633 143.98 50.3476 143.142 50.6833ZM8.26534 50.8829C7.77736 51.1667 7.15633 52.4788 7.15633 53.2263C7.15633 54.1401 7.59468 54.6453 8.70814 55.0145C9.59469 55.3085 9.72098 55.3103 10.1435 55.034C10.7499 54.6372 11.5169 53.5981 11.664 52.9737C11.7583 52.574 11.6416 52.3425 11.0617 51.78C10.0209 50.7703 9.0144 50.4473 8.26534 50.8829ZM95.5886 52.5812C95.9719 53.3314 95.9719 53.3314 95.351 53.4259C95.0096 53.478 94.6945 53.4878 94.651 53.4481C94.5554 53.3609 94.9994 51.8307 95.1203 51.8307C95.167 51.8307 95.3777 52.1684 95.5886 52.5812Z" fill="#272727"/>
</svg>