<svg width="260" height="159" viewBox="0 0 260 159" fill="none" xmlns="http://www.w3.org/2000/svg">
<path d="M0 70.2522C1.76353 63.3192 7.04789 57.7678 12.5962 54.3618C14.3069 53.3124 21.122 50.7882 21.6529 49.7761C22.6744 47.8325 22.2024 37.9778 21.7553 35.4226C21.0754 31.5416 18.989 28.3312 15.0614 29.7066C8.25256 32.0911 11.0282 45.7336 4.99873 46.6713C2.49005 47.0625 0.984221 46.811 0.714104 43.7714C-0.534026 29.6787 27.8097 15.232 29.1385 36.4658C29.834 47.5872 28.0705 59.373 28.7629 70.4602C28.8653 72.0872 29.2037 76.5456 31.0853 76.7288C34.1838 77.0331 33.9789 68.9513 34.3826 66.8463C34.9042 66.3153 37.0961 66.1539 37.0961 66.9704V73.1459C37.0961 73.919 36.292 76.7971 35.9722 77.682C34.2366 82.4603 28.173 86.9529 24.618 81.6313C23.3605 79.7498 23.3729 77.5702 22.3515 75.6546C21.1778 75.3751 19.11 79.3679 18.219 80.3025C12.1149 86.7015 2.54594 84.8913 0.00310428 75.6546V70.2522H0ZM21.8392 54.0452C15.3532 55.6131 8.4078 61.0931 7.66886 68.9482C6.62254 80.0789 14.903 81.5257 19.4795 73.2204C22.8886 67.0387 22.2366 60.9627 21.8361 54.0452H21.8392Z" fill="#3A4659"/>
<path d="M141.448 76.4276C140.747 75.6172 137.009 79.8087 136.217 80.4452C128.958 86.2978 118.377 85.0807 116.921 73.8196C115.598 63.5892 117.129 52.9087 117.194 42.6753C117.219 38.695 117.11 34.5128 116.495 30.6846C115.148 29.2129 111.245 30.5666 111.248 27.9927C111.248 26.639 112.139 26.3813 113.185 26.2478C114.62 26.0646 122.416 26.0615 123.338 26.5397C123.655 26.7042 123.94 26.8874 124.055 27.2848C124.434 39.3408 123.751 51.4619 124.099 63.5147C124.124 64.4275 124.437 65.272 124.474 66.1849C124.673 70.9197 123.288 77.3528 129.231 78.2532C135.552 79.2126 139.812 73.3414 140.753 66.9673L140.25 30.489L135.556 29.157C134.661 27.7257 135.267 26.5459 136.794 26.2851C138.53 25.987 145.134 25.9187 146.814 26.2695C147.276 26.3658 147.627 26.5552 147.866 27.0271L148.385 72.7608C148.779 75.1546 153.942 73.7668 153.951 75.8439C153.958 77.6105 148.419 78.4581 146.885 79.579C145.578 80.5321 143.895 83.5966 142.321 83.3948C142.017 83.3544 141.452 83.0408 141.452 82.7955V76.4276H141.448Z" fill="#3A4659"/>
<path d="M89.0985 52.4991C87.4343 61.0559 90.9024 81.976 102.465 77.2195C104.231 76.493 106.119 74.0526 106.967 72.1959C108.317 69.2308 108.059 63.2758 111.633 63.6888C111.993 70.9509 108.066 82.6498 100.682 83.7271C75.8348 87.3442 74.894 30.6319 95.9414 25.9623C104.2 24.1305 109.202 29.7781 111.115 38.217C112.052 42.3464 112.968 49.0682 110.419 52.4991H89.0985ZM96.9785 29.0516C92.9112 29.8868 90.3994 37.7233 89.6139 41.6912C89.2258 43.6504 88.0273 48.4783 90.1168 49.2452C91.7407 49.8382 100.121 49.4439 102.027 48.9472C106.752 47.7177 104.318 34.4105 102.216 31.1473C100.934 29.1541 99.1239 28.6107 96.9785 29.0516Z" fill="#3A4659"/>
<path d="M209.226 52.4991C207.062 53.2846 209.285 66.2968 209.996 68.6254C213.43 79.902 223.598 81.7587 227.594 69.858C228.256 67.8927 228.194 63.4466 230.677 63.7198C232.394 64.378 230.569 71.1713 230.119 72.6678C228.731 77.263 225.43 82.6591 220.857 83.5843C195.739 88.67 194.274 30.6972 215.551 25.9623C226.005 23.6368 230.892 33.2338 231.584 43.4361C231.683 44.8861 231.926 52.4991 230.028 52.4991H209.226ZM208.723 49.0093C211.847 49.3042 221.664 50.5772 223.57 47.6307C225.461 44.706 223.794 31.9763 220.969 29.7812C219.019 28.2661 215.886 28.9212 214.132 30.5636C210.555 33.9168 208.314 43.9143 208.723 49.0093Z" fill="#3A4659"/>
<path d="M257.202 43.5757C256.941 43.762 256.093 43.6689 255.755 43.5447C253.473 42.7157 253.038 30.2251 246.984 29.3775C242.736 28.7814 240.079 32.2929 240.243 36.8476C240.582 46.2428 257.146 51.3067 259.515 63.67C262.169 77.5236 253.606 84.913 241.802 83.7736C239.896 83.5904 235.061 82.4292 234.729 80.0696C234.338 77.2845 234.782 73.0527 234.723 70.0442C234.695 68.5756 233.602 65.9117 235.651 65.2938C237.859 64.6294 238.576 71.0812 239.296 73.0558C240.821 77.238 243.454 81.0476 248.008 80.6408C253.131 80.1813 254.209 74.04 253.771 69.2928C252.777 58.485 237.104 55.1349 234.804 43.3242C233.056 34.3576 237.766 27.4308 245.717 25.9684C248.266 25.4996 256.634 25.481 257.239 29.1601C257.618 31.4639 258.034 37.2544 257.953 39.5892C257.903 40.9925 257.615 42.2686 257.205 43.5788L257.202 43.5757Z" fill="#3A4659"/>
<path d="M188.368 14.9341C187.642 14.1175 186.949 12.1708 186.859 11.0096C186.139 1.55551 198.974 1.85357 196.767 12.3882C195.919 16.4306 190.765 17.6291 188.365 14.931L188.368 14.9341Z" fill="#3A4659"/>
<path d="M63.0958 0.0153809H57.5475C49.9749 1.91241 44.8302 9.75824 43.7777 18.0698C43.0512 23.8013 44.7091 26.5552 37.7854 27.4215L38.1518 29.7097C38.9466 29.8432 42.7935 29.3837 43.0015 30.3741L43.1599 78.3588C42.1042 80.8333 34.3205 78.2998 37.1676 82.9042L56.2776 82.926C59.755 78.4054 50.9622 80.7961 50.9622 77.7782V30.3089L51.4807 29.7314H61.1894C62.0308 29.7314 62.1923 26.7663 61.1894 26.2572H51.4807L50.9622 25.6797V11.4007C50.9622 10.8542 52.347 8.23068 52.7537 7.60662C55.1661 3.93053 59.044 2.21358 62.9933 3.79392C67.1817 5.47051 68.1752 11.469 68.5136 16.3528C68.8117 12.6147 70.8981 5.02963 70.8981 5.02963C68.7155 2.54579 65.9242 1.2573 63.0958 0.0153809Z" fill="#3A4659"/>
<path d="M81.8394 80.0697C76.6513 79.5916 75.6484 79.4767 75.2324 73.531C74.5866 64.2942 75.4653 54.5855 75.5894 45.3798C75.785 31.0015 76.316 16.6076 75.4963 2.22618C73.6117 -1.66414 71.5874 2.60185 70.895 5.03291C70.895 5.03291 68.8086 12.6179 68.5105 16.3561C68.5788 17.331 68.6192 18.2625 68.6564 19.1039C69.4513 37.9314 67.5853 57.3146 68.2714 76.2136C67.6691 80.6007 62.8225 78.952 61.8569 81.0664C61.5682 81.6966 62.0867 82.6653 62.6486 82.9106C68.97 84.0097 75.4466 82.684 81.8363 82.8268C82.3393 82.4356 82.3455 80.4609 81.8363 80.0759L81.8394 80.0697Z" fill="#3A4659"/>
<path d="M182.357 32.0476C182.457 24.7917 174.915 24.5558 170.599 27.6481C168.494 29.1571 167.451 31.821 165.716 33.7863L165.023 33.3982V26.2572C162.359 25.6518 160.996 28.5082 159.025 29.806C157.991 30.4859 156.74 30.9827 155.594 31.3894C154.004 31.9514 151.16 31.3832 152.775 34.3949C154.01 35.2673 156.684 34.013 157.767 36.0746C158.103 36.711 158.398 40.0953 158.453 41.1012C158.941 50.0958 157.833 59.1805 157.73 68.1161C157.702 70.6124 158.581 76.3811 157.705 78.1229C156.687 80.1441 151.666 79.5697 152.238 81.948C152.3 82.2026 152.97 82.9912 153.064 82.9912H171.785C174.803 77.8962 166.569 81.4388 165.793 77.6975C166.433 67.8242 162.645 40.7814 169.516 33.7677C174.207 28.9801 174.335 37.0992 177.762 37.7481C180.274 38.2231 181.963 37.0836 182.553 34.3483C180.69 33.7708 182.357 32.0507 182.357 32.0507V32.0476Z" fill="#3A4659"/>
<path d="M201.551 80.2498C199.626 78.7315 196.124 81.3085 195.571 76.1918L195.531 27.226L195.208 26.4218C193.783 25.2731 189.75 29.8558 188.148 30.5823C187.462 30.8928 182.565 32.2899 182.357 32.0508C182.357 32.0508 180.687 33.7709 182.553 34.3484C184.22 34.96 187.831 34.4415 188.241 36.885L188.229 76.5985C187.707 80.7714 182.568 79.1165 182.05 80.9297C181.761 81.9388 182.227 82.5038 183.037 82.8143C185.462 83.7427 198.316 83.7458 200.744 82.8143C201.8 82.4107 202.535 81.0291 201.551 80.2529V80.2498Z" fill="#3A4659"/>
<path d="M93.2216 122.245C90.6011 121.764 84.8666 115.399 89.0022 114.136C92.1473 113.173 91.2345 115.427 92.1753 116.374C93.5041 117.709 97.4006 117.504 97.0125 115.182C96.4568 111.86 89.3561 107.715 88.7072 103.024C87.9651 97.6772 94.0133 93.0044 99.4188 95.5287C103.871 97.6089 102.03 104.542 98.7264 102.903L97.2237 99.7077L93.9326 100.357C93.5911 104.461 97.6583 106.262 99.5802 109.022C100.487 110.323 102.679 114.3 102.638 115.707C102.552 118.706 98.9499 121.407 96.0221 122.242H93.2216V122.245Z" fill="#6F8196"/>
<path d="M116.759 125.061C114.247 124.481 114.188 122.422 113.713 120.233C112.487 114.576 112.26 108.041 112.909 102.319C112.611 102.008 105.169 104.585 105.557 100.754C105.622 100.114 106.172 99.7199 106.637 99.366C108.51 97.944 119.758 95.7769 122.202 96.0035C124.605 96.2239 125.583 97.6242 124.108 99.692C122.699 101.67 120.662 101.21 118.532 101.636C118.144 102.036 119.414 110.549 119.491 111.937C119.547 112.918 119.147 114.477 119.2 115.803C119.271 117.632 120.504 123.105 119.206 124.176C118.563 124.707 117.681 124.493 117.113 125.058H116.762L116.759 125.061Z" fill="#AD915C"/>
<path d="M208.018 138.111V140.911C207.034 143.016 203.662 146.913 201.023 145.28C200.862 145.181 198.394 142.749 198.319 142.576C197.099 139.682 202.427 135.453 205.314 136.08C206.466 136.332 207.044 137.595 208.018 138.114V138.111Z" fill="#3A4659"/>
<path d="M78.0236 96.2395C79.5915 95.7614 82.3455 96.8791 82.7367 98.5867C83.1403 100.35 82.2555 102.629 82.1654 104.446C81.9202 109.488 83.0907 113.446 79.5264 117.737C75.3877 122.72 70.7677 121.345 68.5074 115.629C67.309 112.602 67.0575 107.64 67.8368 104.489C68.1441 103.25 69.5413 100.943 70.7801 102.424C71.8979 103.762 72.0065 111.667 73.0994 114.16C74.4593 117.265 76.2663 114.573 76.7817 112.493C77.1636 110.941 77.4896 107.258 77.4617 105.672C77.4275 103.719 75.2293 97.0902 78.0236 96.2395Z" fill="#CE804A"/>
<path d="M178.715 100.9C178.647 102.313 179.24 103.626 179.336 105.02C179.544 108.072 179.644 113.689 179.327 116.66C179.203 117.821 178.461 119.954 177.06 119.876C176.806 119.861 174.288 118.706 174.195 118.579C172.599 116.362 175.055 104.141 175.045 100.9C172.223 100.953 169.336 100.962 166.659 100.015C165.57 98.1646 169.696 97.6958 170.953 97.5747C172.934 97.3853 175.117 97.7485 177.036 97.5374C178.663 97.3573 180.383 96.5066 182.273 96.3514C184.614 96.1589 188.632 95.8515 187.53 99.4655C186.99 101.235 180.383 101.415 178.718 100.903L178.715 100.9Z" fill="#6F8196"/>
<path d="M50.9653 97.8166C55.1692 96.643 54.6196 107.674 54.5793 109.854C54.5513 111.416 53.3342 113.909 55.8647 114.489C58.215 115.03 63.4311 113.229 63.2106 117.482C63.0243 121.09 55.5666 120.718 52.9958 120.507C47.1309 120.025 49.2452 117.29 49.3322 113.002C49.416 108.82 49.1862 104.172 49.6613 100.033C49.7482 99.2759 50.127 98.0495 50.9684 97.8135L50.9653 97.8166Z" fill="#C9827B"/>
<path d="M43.6659 117.306C40.9306 117.445 38.2667 117.871 35.5034 117.709C34.0907 117.628 31.0232 117.455 30.2718 116.293C29.2534 114.713 30.0855 113.757 30.0917 112.304C30.101 109.792 29.6136 98.2358 31.3647 97.0405L32.293 96.8076C36.2579 97.3323 35.5251 108.941 35.4755 111.788C38.2977 112.859 41.4118 110.816 44.054 113.002C45.5847 114.269 44.1441 115.775 43.6628 117.306H43.6659Z" fill="#AD915C"/>
<path d="M57.5133 142.467C58.9384 144.19 55.5573 148.419 53.6851 148.248C49.5185 147.869 48.2641 144.072 50.8132 140.98C52.614 138.794 56.0913 140.747 57.5133 142.467Z" fill="#3A4659"/>
<path d="M18.5946 122.202C17.0484 119.603 17.9333 116.322 17.8432 113.325C17.7687 110.814 17.2564 108.302 17.4675 105.629C17.8712 100.465 21.0412 98.8881 22.2738 104.694C23.1338 108.746 22.6463 113.372 22.7115 117.551C22.7333 118.954 23.8013 120.755 21.9415 121.649C21.4727 121.876 18.9516 122.404 18.5977 122.199L18.5946 122.202Z" fill="#6F8196"/>
<path d="M17.3869 95.0566C24.8632 93.6719 21.5287 102.719 15.17 98.4812C15.2352 96.7084 15.4588 95.4137 17.3869 95.0566Z" fill="#6F8196"/>
<path d="M193.218 121.944C191.672 118.693 192.557 114.589 192.467 110.844C192.392 107.702 191.88 104.56 192.091 101.22C192.495 94.7616 195.665 92.7869 196.897 100.052C197.757 105.122 197.27 110.907 197.335 116.132C197.357 117.886 198.425 120.14 196.565 121.258C196.096 121.541 193.575 122.199 193.221 121.947L193.218 121.944Z" fill="#AD915C"/>
<path d="M136.922 111.071C136.81 111.574 136.971 111.636 137.282 111.925C138.968 113.481 147.233 115.592 144.985 119.308C143.069 122.475 136.208 116.027 133.773 115.614C133.69 118.02 134.509 122.137 131.153 122.298C126.986 122.497 128.489 118.284 128.536 115.803C128.588 113.009 128.387 110.183 128.526 107.395C128.579 106.364 129.349 103.567 129.25 102.893C129.181 102.418 126.623 102.406 128.526 99.6922C130.666 96.6433 136.732 96.1186 139.489 98.5217C143.134 101.698 140.868 109.069 136.922 111.068V111.071ZM133.075 108.966C135.329 108.097 138.468 104.101 135.869 102.145C135.13 101.589 132.376 100.667 132.355 102.154L133.075 108.966Z" fill="#C9827B"/>
<path d="M149.505 117.681C148.329 116.648 150.993 110.155 151.399 108.615C152.101 105.955 153.554 96.6899 156.137 95.864C160.437 94.4885 161.496 101.965 162.813 104.902C163.291 105.97 164.148 106.706 164.688 107.923C165.697 110.186 168.702 119.221 163.452 117.554C161.623 116.974 162.192 114.958 161.052 114.008C159.714 112.891 155.566 114.369 153.678 114.03C152.961 114.8 151.126 119.103 149.502 117.681H149.505ZM158.224 109.314L156.479 106.52L155.777 109.665L158.224 109.311V109.314Z" fill="#CE804A"/>
<path d="M244.491 112.968C244.422 107.628 244.928 101.716 244.037 96.5346C242.758 89.111 239.473 91.1291 239.051 97.7268C238.834 101.142 239.365 104.352 239.442 107.563C239.448 107.817 239.448 108.072 239.448 108.327C238.542 107.2 237.436 106.638 236.642 105.638C234.434 102.865 231.295 95.1902 227.02 97.7889C224.455 99.3475 225.216 109.975 225.173 112.99C225.148 114.735 225.011 122.373 226.862 122.373C231.621 122.373 230.323 112.558 230.323 112.558L230.236 109.028L232.866 111.537L237.179 115.784C238.523 116.43 238.591 118.374 240.187 118.827C240.2 118.852 240.209 118.877 240.218 118.902C240.321 118.976 240.61 118.973 240.973 118.926C241.709 118.942 242.258 118.812 242.649 118.566C243.125 118.433 243.525 118.293 243.686 118.197C245.618 117.054 244.509 114.754 244.488 112.959L244.491 112.968Z" fill="#CE804A"/>
<path d="M215.38 94.8764C214.06 93.8674 211.691 93.5103 208.695 94.5504C205.153 95.7799 203.43 104.051 203.43 104.051C202.557 107.581 202.84 113.139 204.178 116.529C206.708 122.935 211.884 124.475 216.519 118.892C220.512 114.086 219.202 109.649 219.475 104.005C219.565 102.17 217.14 95.7272 215.38 94.8795V94.8764ZM213.446 113.015C212.871 115.343 210.847 118.361 209.322 114.881C208.422 112.828 208.118 107.494 207.522 104.222C207.655 101.766 209.307 99.3908 210.794 98.745C212.281 98.0992 213.421 101.145 213.644 101.803C213.902 103.294 214.194 104.635 214.206 105.377C214.237 107.153 213.874 111.279 213.446 113.015Z" fill="#C9827B"/>
<path d="M66.865 158.031C64.2446 157.5 58.51 150.484 62.6456 149.09C65.7907 148.028 64.8779 150.515 65.8187 151.558C67.1475 153.03 71.0441 152.803 70.656 150.245C70.1002 146.581 62.0681 145.115 61.4192 139.943C60.6771 134.047 66.7253 128.896 72.1308 131.678C76.583 133.972 74.7419 141.616 71.4384 139.812L69.9357 136.288C68.6192 135.419 67.5232 135.664 66.6446 137.003C66.2378 142.396 71.3018 140.409 73.2236 143.454C74.1302 144.889 76.3222 149.273 76.2819 150.828C76.1949 154.138 72.5934 157.115 69.6655 158.034H66.865V158.031Z" fill="#6F8196"/>
<path d="M87.2324 157.097C84.7206 156.516 84.6616 154.458 84.1866 152.269C82.9602 146.612 83.4663 144.116 84.1121 138.393C83.814 138.083 76.3718 140.66 76.7599 136.829C76.8251 136.189 77.3746 135.795 77.8404 135.441C79.7126 134.019 90.9613 131.852 93.4047 132.078C95.8078 132.299 96.7859 133.699 95.3111 135.767C93.8363 137.835 91.8647 137.285 89.7349 137.71C89.3468 138.111 89.62 146.516 89.6697 147.838C89.7411 149.667 90.9737 155.141 89.6759 156.212C89.0332 156.743 88.1514 156.529 87.5832 157.094H87.2324V157.097Z" fill="#AD915C"/>
<path d="M126.201 136.568C126.12 138.185 125.872 139.064 125.98 140.657C126.219 144.15 126.334 150.57 125.968 153.967C125.825 155.296 124.977 157.733 123.375 157.646C123.087 157.631 120.205 156.305 120.1 156.159C118.274 153.622 120.547 140.647 120.534 136.943C117.309 137.006 112.155 136.717 111.481 134.932C111.136 131.619 114.952 132.277 116.393 132.14C118.659 131.923 121.155 131.718 123.347 131.476C125.207 131.271 127.176 130.917 129.34 130.74C132.019 130.52 136.608 130.169 135.351 134.301C134.733 136.326 128.11 137.151 126.204 136.568H126.201Z" fill="#CE804A"/>
<path d="M141.967 131.554C143.513 134.804 142.628 138.909 142.718 142.653C142.793 145.795 143.305 148.937 143.094 152.278C142.69 158.736 139.52 160.711 138.288 153.446C137.428 148.375 137.915 142.591 137.85 137.366C137.828 135.612 136.76 133.358 138.62 132.24C139.089 131.957 141.61 131.299 141.964 131.551L141.967 131.554Z" fill="#6F8196"/>
<path d="M96.9039 153.756C95.7272 152.722 98.3911 146.23 98.7978 144.69C99.4995 142.029 100.953 132.764 103.536 131.938C107.836 130.563 108.895 138.039 110.211 140.977C110.689 142.045 111.546 142.78 112.086 143.997C113.095 146.261 116.101 155.296 110.851 153.629C109.022 153.048 109.59 151.033 108.451 150.083C107.112 148.965 102.964 150.443 101.077 150.105C100.36 150.875 98.5246 155.178 96.9008 153.756H96.9039ZM105.622 145.388L103.877 142.594L103.176 145.739L105.622 145.385V145.388Z" fill="#C9827B"/>
<path d="M191.249 149.043C191.181 143.702 191.687 137.791 190.796 132.609C189.517 125.185 186.232 127.204 185.81 133.801C185.592 137.217 186.123 140.427 186.201 143.637C186.207 143.892 186.207 144.146 186.207 144.401C185.301 143.274 184.195 142.712 183.4 141.712C181.193 138.94 178.054 131.265 173.779 133.863C171.214 135.422 171.975 146.05 171.931 149.064C171.906 150.809 171.77 158.447 173.62 158.447C178.38 158.447 177.082 148.633 177.082 148.633L176.995 145.103L179.625 147.611L183.938 151.859C185.282 152.505 185.35 154.448 186.946 154.902C186.959 154.926 186.968 154.951 186.977 154.976C187.08 155.051 187.368 155.047 187.732 155.001C188.467 155.016 189.017 154.886 189.408 154.641C189.883 154.507 190.284 154.367 190.445 154.271C192.376 153.129 191.268 150.828 191.246 149.033L191.249 149.043Z" fill="#C9827B"/>
<path d="M161.797 130.951C160.478 129.942 158.109 129.585 155.113 130.625C151.57 131.855 149.847 140.126 149.847 140.126C148.974 143.656 149.257 149.214 150.595 152.604C153.126 159.009 158.301 160.549 162.937 154.967C166.93 150.161 165.619 145.724 165.893 140.079C165.983 138.244 163.558 131.802 161.797 130.954V130.951ZM159.866 149.089C159.292 151.418 157.267 154.436 155.743 150.955C154.843 148.903 154.538 143.569 153.942 140.297C154.076 137.841 155.727 135.466 157.215 134.82C158.702 134.174 159.841 137.22 160.065 137.878C160.323 139.368 160.614 140.71 160.627 141.452C160.658 143.228 160.295 147.354 159.866 149.089Z" fill="#AD915C"/>
</svg>
