<svg width="373" height="198" viewBox="0 0 373 198" fill="none" xmlns="http://www.w3.org/2000/svg">
<path d="M142.96 175.32C139.08 174.54 130.58 164.14 136.71 162.08C141.37 160.51 140.02 164.19 141.41 165.73C143.38 167.91 149.15 167.58 148.57 163.78C147.75 158.35 137.23 151.58 136.27 143.92C135.17 135.19 144.13 127.56 152.13 131.68C158.73 135.08 156 146.4 151.1 143.73L148.87 138.51L144 139.57C143.5 146.27 149.52 149.21 152.37 153.72C153.71 155.85 156.96 162.34 156.9 164.64C156.77 169.54 151.44 173.95 147.1 175.31H142.95L142.96 175.32Z" fill="#505A6D"/>
<path d="M176.13 175.32C172.41 174.46 172.32 171.41 171.62 168.17C169.8 159.79 169.47 150.11 170.43 141.64C169.99 141.18 158.96 144.99 159.54 139.32C159.64 138.37 160.45 137.79 161.14 137.26C163.91 135.15 180.58 131.95 184.19 132.28C187.75 132.61 189.2 134.68 187.01 137.74C184.92 140.67 181.91 139.99 178.75 140.62C178.18 141.21 180.05 153.82 180.17 155.88C180.25 157.34 179.66 159.64 179.74 161.6C179.85 164.31 181.67 172.41 179.74 174C178.79 174.79 177.48 174.47 176.64 175.31H176.12L176.13 175.32Z" fill="#C9827B"/>
<path d="M306.98 145.26C310.84 145.8 313.25 148.22 310.37 151.76C306.92 155.99 300.88 151.13 296.88 151.48L295.85 159.77C296.39 160.18 306.29 161 308.31 161.57C316 163.74 313.65 169.6 306.47 169.62C303.56 169.62 300.96 167.94 298.67 167.59C291.53 166.49 285.85 169.49 287.17 159.14C287.81 154.15 292.7 141.92 291.69 137.85C291.62 137.56 289.01 136.99 292.03 134.99C294.77 133.17 309.32 131.2 312.57 131.92C316.54 132.8 315.32 137.23 314.41 140.01C308.85 142.21 303.55 139.42 297.91 139.58L297.39 145.28C300.39 145.58 304.08 144.87 306.98 145.28V145.26Z" fill="#C9827B"/>
<path d="M327.07 171.04C326.06 169.96 326.28 167.56 326.99 166.31C327.99 164.56 332.97 163.21 335.18 161.54C336.74 160.36 340.6 156.65 340.89 154.82C342.28 146.25 333.35 141.47 325.89 141.63C325.42 145.95 327.68 149.78 328.34 153.95C328.95 157.78 329.72 162.06 325.5 163.82C323.84 163.66 320.53 162.27 320.2 160.53C319.39 156.3 320.31 147.74 320.21 142.9C320.13 138.82 318.57 137.41 324.21 136.06C340.35 132.17 357.65 145.03 346.31 161.27C343.7 165.01 331.52 175.79 327.06 171.03L327.07 171.04Z" fill="#AD915C"/>
<path d="M116.38 128.26C118.98 127.47 123.55 129.32 124.2 132.15C124.85 134.98 123.4 138.86 123.25 141.87C122.85 150.23 124.78 156.8 118.87 163.92C112.01 172.19 104.34 169.91 100.59 160.42C98.6 155.4 98.19 147.17 99.48 141.94C99.99 139.88 102.31 136.06 104.36 138.52C106.21 140.74 106.4 153.86 108.21 157.99C110.47 163.14 113.47 158.68 114.32 155.23C114.96 152.66 115.5 146.55 115.45 143.92C115.39 140.68 111.75 129.68 116.38 128.27V128.26Z" fill="#DB8F5A"/>
<path d="M269.93 138.01C269.81 140.4 270.82 142.63 270.98 144.99C271.33 150.16 271.5 159.67 270.96 164.7C270.75 166.67 269.49 170.28 267.12 170.15C266.69 170.13 262.42 168.17 262.27 167.95C259.57 164.19 263.73 143.5 263.71 138.01C258.93 138.1 254.04 138.12 249.51 136.51C247.67 133.38 254.65 132.58 256.78 132.38C260.14 132.06 263.83 132.67 267.08 132.32C269.84 132.02 272.75 130.57 275.95 130.31C279.92 129.98 286.72 129.46 284.85 135.58C283.94 138.58 272.75 138.88 269.92 138.02H269.93V138.01Z" fill="#505A6D"/>
<path d="M70.26 134.97C76.49 133.23 75.67 149.57 75.61 152.8C75.57 155.11 73.77 158.8 77.51 159.66C80.99 160.46 88.72 157.79 88.39 164.1C88.11 169.44 77.07 168.89 73.26 168.58C64.57 167.87 67.71 163.82 67.83 157.47C67.95 151.27 67.61 144.39 68.32 138.26C68.45 137.14 69.01 135.32 70.25 134.97H70.26Z" fill="#AD915C"/>
<path d="M59.45 163.83C55.4 164.04 51.45 164.67 47.36 164.43C45.27 164.31 40.72 164.05 39.61 162.33C38.1 159.99 39.33 158.57 39.34 156.42C39.36 152.7 38.63 135.59 41.23 133.81L42.61 133.46C48.48 134.24 47.4 151.43 47.33 155.65C51.51 157.24 56.12 154.21 60.04 157.45C62.31 159.32 60.17 161.56 59.46 163.82L59.45 163.83Z" fill="#C9827B"/>
<path d="M22.32 171.08C20.03 167.23 21.34 162.37 21.21 157.93C21.1 154.21 20.34 150.49 20.65 146.53C21.25 138.88 25.94 136.55 27.77 145.15C29.04 151.15 28.32 158 28.42 164.19C28.45 166.27 30.03 168.94 27.28 170.26C26.59 170.59 22.85 171.38 22.33 171.08H22.32Z" fill="#505A6D"/>
<path d="M20.53 130.88C31.6 128.83 26.67 142.23 17.25 135.95C17.34 133.32 17.68 131.41 20.53 130.88Z" fill="#505A6D"/>
<path d="M207.22 154.6C207.05 155.34 207.29 155.44 207.76 155.87C210.26 158.17 222.5 161.3 219.17 166.81C216.33 171.5 206.17 161.95 202.56 161.34C202.44 164.9 203.65 171 198.68 171.24C192.51 171.54 194.73 165.29 194.8 161.62C194.88 157.48 194.58 153.3 194.78 149.17C194.86 147.64 196 143.5 195.85 142.5C195.75 141.8 191.96 141.78 194.78 137.76C197.95 133.24 206.93 132.47 211.02 136.03C216.42 140.74 213.06 151.65 207.22 154.61V154.6ZM201.53 151.48C204.87 150.19 209.52 144.27 205.67 141.38C204.58 140.56 200.5 139.19 200.46 141.4L201.53 151.49V151.48Z" fill="#AD915C"/>
<path d="M225.4 164.39C223.66 162.86 227.6 153.24 228.2 150.96C229.24 147.02 231.39 133.3 235.22 132.07C241.59 130.03 243.16 141.11 245.11 145.45C245.82 147.03 247.09 148.12 247.89 149.93C249.38 153.28 253.84 166.66 246.06 164.2C243.35 163.34 244.19 160.36 242.51 158.95C240.53 157.29 234.38 159.48 231.59 158.98C230.53 160.12 227.81 166.5 225.4 164.39ZM238.31 151.99L235.73 147.85L234.69 152.51L238.31 151.99Z" fill="#DB8F5A"/>
<path d="M0.559998 101.09C3.09 91.16 10.65 83.21 18.6 78.34C21.05 76.84 30.81 73.22 31.57 71.77C33.03 68.99 32.36 54.87 31.72 51.21C30.75 45.65 27.76 41.05 22.13 43.02C12.38 46.44 16.36 65.97 7.72 67.32C4.13 67.88 1.97 67.52 1.59 63.17C-0.200002 42.98 40.39 22.29 42.29 52.7C43.29 68.63 40.76 85.5 41.75 101.38C41.9 103.71 42.38 110.09 45.08 110.36C49.52 110.8 49.23 99.22 49.8 96.21C50.55 95.45 53.69 95.22 53.69 96.39V105.23C53.69 106.34 52.54 110.46 52.08 111.73C49.6 118.57 40.91 125.01 35.82 117.39C34.02 114.69 34.04 111.58 32.57 108.83C30.89 108.43 27.93 114.15 26.65 115.48C17.91 124.64 4.21 122.05 0.559998 108.82V101.08V101.09ZM31.84 77.88C22.55 80.13 12.61 87.97 11.55 99.22C10.05 115.16 21.91 117.23 28.47 105.34C33.35 96.49 32.42 87.79 31.85 77.88H31.84Z" fill="#505A6D"/>
<path d="M203.13 109.93C202.12 108.77 196.77 114.77 195.64 115.69C185.24 124.07 170.09 122.33 168.01 106.2C166.12 91.55 168.31 76.25 168.4 61.6C168.44 55.9 168.28 49.91 167.4 44.43C165.47 42.32 159.88 44.26 159.89 40.58C159.89 38.64 161.17 38.27 162.66 38.08C164.71 37.82 175.88 37.81 177.2 38.5C177.65 38.73 178.06 39 178.23 39.57C178.77 56.84 177.79 74.19 178.29 91.45C178.33 92.76 178.77 93.96 178.83 95.27C179.11 102.05 177.13 111.26 185.64 112.55C194.69 113.92 200.79 105.52 202.14 96.39L201.42 44.15L194.7 42.24C193.42 40.19 194.28 38.5 196.47 38.13C198.96 37.71 208.41 37.61 210.82 38.11C211.48 38.25 211.99 38.52 212.33 39.2L213.07 104.7C213.63 108.13 221.03 106.14 221.04 109.11C221.04 111.64 213.12 112.85 210.92 114.46C209.05 115.82 206.64 120.21 204.39 119.92C203.95 119.86 203.15 119.41 203.15 119.06V109.94H203.13V109.93Z" fill="#505A6D"/>
<path d="M128.16 75.66C125.78 87.92 130.74 117.87 147.3 111.06C149.83 110.02 152.53 106.52 153.75 103.86C155.68 99.62 155.31 91.08 160.43 91.68C160.94 102.08 155.32 118.84 144.75 120.37C109.17 125.55 107.82 44.33 137.96 37.65C149.79 35.03 156.95 43.12 159.69 55.2C161.03 61.11 162.35 70.74 158.69 75.65H128.16V75.66ZM139.44 42.08C133.61 43.28 130.02 54.5 128.9 60.18C128.34 62.99 126.63 69.9 129.62 71C131.95 71.85 143.95 71.28 146.67 70.58C153.44 68.82 149.95 49.76 146.94 45.09C145.1 42.24 142.51 41.46 139.44 42.09V42.08Z" fill="#505A6D"/>
<path d="M300.19 75.66C297.09 76.78 300.28 95.42 301.29 98.75C306.21 114.9 320.77 117.56 326.49 100.52C327.44 97.7 327.35 91.34 330.91 91.73C333.37 92.67 330.75 102.4 330.11 104.54C328.12 111.12 323.4 118.85 316.85 120.17C280.88 127.45 278.78 44.43 309.25 37.65C324.22 34.32 331.22 48.06 332.21 62.67C332.35 64.75 332.7 75.65 329.98 75.65H300.19V75.66ZM299.47 70.66C303.94 71.08 318 72.91 320.73 68.69C323.44 64.5 321.05 46.27 317 43.13C314.21 40.96 309.72 41.9 307.21 44.25C302.09 49.05 298.88 63.37 299.46 70.67H299.47V70.66Z" fill="#505A6D"/>
<path d="M368.9 62.88C368.53 63.15 367.31 63.01 366.83 62.84C363.56 61.65 362.94 43.77 354.27 42.55C348.19 41.7 344.38 46.72 344.62 53.25C345.11 66.7 368.82 73.96 372.22 91.66C376.02 111.5 363.76 122.08 346.86 120.45C344.13 120.19 337.21 118.52 336.73 115.14C336.17 111.15 336.8 105.09 336.72 100.78C336.68 98.68 335.11 94.86 338.05 93.98C341.21 93.03 342.24 102.27 343.27 105.1C345.45 111.09 349.23 116.55 355.75 115.96C363.09 115.3 364.63 106.51 364 99.71C362.58 84.23 340.13 79.43 336.84 62.52C334.34 49.68 341.08 39.76 352.47 37.66C356.12 36.99 368.1 36.96 368.97 42.23C369.51 45.53 370.11 53.82 369.99 57.17C369.92 59.18 369.5 61.01 368.92 62.88H368.9Z" fill="#505A6D"/>
<path d="M270.32 21.87C269.28 20.7 268.29 17.91 268.16 16.25C267.13 2.71002 285.51 3.14002 282.35 18.23C281.14 24.02 273.76 25.74 270.32 21.87Z" fill="#505A6D"/>
<path d="M90.92 0.5H82.98C72.14 3.22 64.77 14.45 63.26 26.35C62.22 34.56 64.59 38.5 54.68 39.74L55.21 43.02C56.35 43.21 61.86 42.55 62.15 43.97L62.38 112.69C60.87 116.24 49.72 112.61 53.8 119.2L81.17 119.23C86.15 112.76 73.56 116.18 73.56 111.86V43.88L74.3 43.05H88.2C89.41 43.05 89.64 38.81 88.2 38.08H74.3L73.56 37.25V16.8C73.56 16.02 75.54 12.26 76.13 11.37C79.59 6.11 85.14 3.65 90.79 5.91C96.79 8.31 98.21 16.9 98.7 23.89C99.13 18.54 102.11 7.68 102.11 7.68C98.98 4.12 94.99 2.28 90.94 0.5H90.92Z" fill="#505A6D"/>
<path d="M117.76 115.14C110.33 114.46 108.89 114.29 108.3 105.77C107.38 92.54 108.63 78.64 108.81 65.45C109.09 44.86 109.85 24.25 108.68 3.65002C105.98 -1.91998 103.08 4.19002 102.09 7.67002C102.09 7.67002 99.1 18.53 98.68 23.88C98.78 25.27 98.84 26.61 98.89 27.81C100.03 54.77 97.35 82.53 98.34 109.6C97.48 115.88 90.54 113.52 89.15 116.55C88.74 117.45 89.48 118.84 90.28 119.19C99.33 120.76 108.61 118.86 117.76 119.07C118.48 118.51 118.49 115.68 117.76 115.13V115.14Z" fill="#505A6D"/>
<path d="M261.71 46.3801C261.85 35.9901 251.05 35.6501 244.87 40.0801C241.85 42.2401 240.36 46.06 237.87 48.87L236.88 48.3101V38.0901C233.06 37.2201 231.11 41.31 228.29 43.17C226.81 44.15 225.02 44.85 223.38 45.44C221.1 46.25 217.03 45.4401 219.34 49.7401C221.11 50.9901 224.94 49.1901 226.49 52.1501C226.97 53.0601 227.39 57.91 227.47 59.35C228.17 72.2301 226.58 85.2401 226.44 98.0401C226.4 101.62 227.66 109.88 226.4 112.37C224.94 115.26 217.75 114.44 218.57 117.85C218.66 118.22 219.62 119.34 219.75 119.34H246.56C250.88 112.04 239.09 117.12 237.98 111.76C238.9 97.6201 233.47 58.89 243.31 48.85C250.03 42 250.21 53.6201 255.12 54.5501C258.72 55.2301 261.14 53.6001 261.98 49.6801C259.31 48.8501 261.7 46.39 261.7 46.39H261.71V46.3801Z" fill="#505A6D"/>
<path d="M289.2 115.4C286.44 113.23 281.43 116.91 280.64 109.59L280.58 39.47L280.12 38.32C278.08 36.68 272.3 43.24 270.01 44.28C269.03 44.73 262.01 46.72 261.72 46.38C261.72 46.38 259.33 48.84 262 49.67C264.39 50.54 269.56 49.81 270.15 53.3L270.13 110.17C269.38 116.15 262.03 113.78 261.28 116.37C260.86 117.82 261.54 118.62 262.7 119.07C266.17 120.4 284.58 120.4 288.06 119.07C289.57 118.49 290.63 116.51 289.22 115.4H289.2Z" fill="#505A6D"/>
<path d="M19.57 193.46C67.52 194.8 119.04 193.48 167.1 192.37C223.51 191.93 300.82 192.05 356.98 192.35C358.15 192.35 359.09 193.31 359.09 194.48C359.09 195.67 358.09 196.63 356.9 196.58C286.64 194.17 216.36 194.39 146.11 196.89C140.87 196.98 130.25 197.05 125 197.02C89.83 196.81 54.67 196.45 19.51 195.47C18.96 195.45 18.52 194.99 18.53 194.44C18.55 193.88 19.01 193.45 19.56 193.46H19.57Z" fill="#505A6D"/>
</svg>
