<svg xmlns="http://www.w3.org/2000/svg" width="1920" height="1088" fill="none"><g fill="#000" clip-path="url(#a)"><path d="M97.591 251.34c-.792-.751-3.961-.709-4.837-2.544l-2.752 6.63 7.798 2.419c.625-1.627 1-5.296-.209-6.505ZM452.699 798.303c.292-.208 1.585.959 1.877.751 1-.709 8.089-11.342 9.048-13.177 6.088-11.634 7.965-28.605-8.465-31.733-12.426-2.377-25.811 2.919-35.11 10.967-3.586 3.128-6.38 6.88-9.716 10.216 1.209-7.881-1.668-21.892-6.296-28.522-.876-1.251-2.461-1.709-3.545-2.71-2.669-2.419-2.502-3.753-7.214-4.754-22.309-4.753-36.027 17.347-31.482 37.154 1.042 4.503 4.878 7.756 5.17 12.468-16.679-5.129-37.32 15.262-45.034 28.48-8.507 14.636-11.968 27.188 8.173 31.858 9.048 2.085 23.643-1.334 32.066-4.879.208-.083.334-1.626 1.668-2.21 4.837-2.168 10.133-3.252 14.511-6.505-7.798 16.763-16.679 32.984-7.13 50.998.709 1.334 5.129 7.839 6.004 8.84 6.714 7.381 14.178 3.836 18.598-3.961 3.628-6.422 3.92-16.847 7.381-22.226l2.543-18.806c4.587 1.334 6.755 4.378 11.801 5.88 13.719 4.044 45.16-.793 47.537-17.806 1.793-12.718-5.213-23.226-16.305-28.23-2.418-1.084-7.672-.167-7.672-3.711 2.669-1.168 5.504-1.668 7.923-3.503 2.168-1.626 3.252-4.545 3.711-4.879h-.042Zm-66.343 90.987c-18.597-16.804-4.295-39.03 4.003-57.002 11.176 16.763.376 39.322-4.003 57.002Zm6.881-71.18c-5.797 7.423-39.614 22.601-49.664 24.561-8.339 1.626-23.268.208-20.474-11.467 3.211-13.511 23.81-35.694 37.779-37.196 10.217-1.126 13.886 1.668 20.391 8.632 1.251 1.376 1.209 3.211 2.002 4.212.792 1 2.793 1.417 3.627 2.668l.542-2.251c3.962-1.293 3.753 2.543 4.796 3.169 2.627 1.584 8.173-1.585.959 7.672h.042Zm6.797-14.302-9.049-6.505c-10.8-13.177-20.808-19.474-15.721-38.197 1.96-7.13 13.469-12.176 19.599-5.962 9.924 9.966 5.337 37.32 5.129 50.705l.042-.041Zm47.536 16.346c.334.208 5.254 5.045 5.463 5.379.667 1.084 3.628 10.841 3.544 11.967-.792 10.467-24.977 14.095-33.067 12.969-6.38-.876-19.181-7.84-17.305-15.846l3.711-14.886c4.42-.793 7.881-3.962 12.385-4.462 3.586-.417 22.559 3.294 25.269 4.92v-.041Zm-38.404-10.634c-.959-16.971 9.674-37.737 25.978-44.117 9.924-3.92 28.063-7.839 24.852 8.798-.542 2.878-5.003 12.093-6.755 14.428-.875 1.168-8.965 8.507-10.466 9.508-10.758 7.047-22.726 5.754-33.609 11.383ZM617.159 386.111c.292-.209 1.585.959 1.877.75 1-.709 8.089-11.342 9.048-13.177 6.088-11.634 7.965-28.605-8.465-31.732-12.426-2.377-25.811 2.919-35.11 10.966-3.586 3.128-6.38 6.881-9.716 10.217 1.209-7.881-1.668-21.892-6.296-28.522-.876-1.251-2.461-1.71-3.545-2.711-2.669-2.418-2.502-3.753-7.214-4.753-22.309-4.754-36.028 17.346-31.482 37.153 1.042 4.504 4.878 7.756 5.17 12.468-16.679-5.129-37.32 15.262-45.034 28.48-8.507 14.637-11.968 27.188 8.173 31.858 9.048 2.085 23.643-1.334 32.066-4.878.208-.084.334-1.627 1.668-2.21 4.837-2.169 10.133-3.253 14.511-6.505-7.798 16.763-16.679 32.983-7.13 50.997.708 1.335 5.129 7.84 6.004 8.84 6.714 7.381 14.178 3.837 18.598-3.961 3.628-6.422 3.92-16.846 7.381-22.225l2.543-18.807c4.587 1.335 6.755 4.379 11.801 5.88 13.719 4.045 45.16-.792 47.537-17.806 1.793-12.718-5.213-23.226-16.305-28.23-2.418-1.084-7.672-.166-7.672-3.711 2.669-1.167 5.504-1.668 7.923-3.503 2.168-1.626 3.252-4.545 3.711-4.878h-.042Zm-66.343 90.987c-18.597-16.805-4.295-39.031 4.003-57.003 11.176 16.763.376 39.322-4.003 57.003Zm6.881-71.18c-5.797 7.422-39.614 22.6-49.664 24.56-8.34 1.627-23.268.209-20.474-11.467 3.211-13.51 23.81-35.694 37.779-37.195 10.216-1.126 13.886 1.668 20.391 8.631 1.251 1.376 1.209 3.211 2.002 4.212.792 1.001 2.793 1.418 3.627 2.669l.542-2.252c3.962-1.293 3.753 2.544 4.796 3.169 2.627 1.585 8.173-1.584.959 7.673h.042Zm6.796-14.303-9.048-6.505c-10.8-13.177-20.808-19.473-15.721-38.196 1.96-7.131 13.469-12.176 19.599-5.963 9.924 9.966 5.337 37.32 5.129 50.706l.041-.042Zm47.537 16.346c.334.208 5.254 5.045 5.463 5.379.667 1.084 3.628 10.842 3.544 11.968-.792 10.466-24.977 14.094-33.067 12.968-6.38-.876-19.182-7.839-17.305-15.846l3.711-14.886c4.42-.792 7.881-3.961 12.385-4.462 3.586-.417 22.559 3.294 25.269 4.921v-.042Zm-38.404-10.633c-.96-16.972 9.674-37.738 25.978-44.118 9.924-3.919 28.063-7.839 24.852 8.799-.542 2.877-5.003 12.092-6.755 14.428-.875 1.167-8.965 8.506-10.466 9.507-10.759 7.047-22.726 5.754-33.609 11.384ZM74.448 431.145c2.67 1.626 16.805 6.922 18.89 5.046 7.172-6.38-8.798-10.425-9.757-19.307-1.21-11.259 3.335-25.228 4.795-36.528-3.628-2.544-1.585-4.67-2.502-7.256-3.67-10.258-20.516-14.136-26.437-19.89-.792-.751-.417-2.627-2.877-4.504-2.169-1.668-6.88-3.002-9.591-3.127-2.335-.083-5.546 3.669-8.173 5.129.709 9.716 11.342 7.464 15.387 12.343 3.628 4.42-1.293 15.387-1.793 20.849-1.793 19.432 4.962 36.945 22.058 47.245Zm-12.384-49.163c.333-2.377 1.71-13.218 3.336-13.594 23.184 9.8 5.838 30.983 9.674 48.996l-8.757-7.756c-4.545-9.173-5.67-17.638-4.253-27.688v.042ZM415.879 14.408c-1.084 12.342-12.426 29.189-21.934 36.778-6.338 5.045-27.813 5.796-33.317.459-3.503-3.461-4.503-13.844-3.253-18.473 1.668-6.255 10.926-14.428 17.264-15.512 13.385-2.293 5.963 4.045 13.469 9.966 7.464-4.67 3.002-14.053-3.962-16.554-12.301-4.379-30.315 5.92-34.86 17.722-2.168 5.67-1.126 20.182 1.751 25.353 4.462 7.964 29.732 9.34 37.863 7.38 6.338-1.543 17.889-12.76 21.892-18.014 7.339-9.59 13.552-24.769 12.593-37.862h-8.132c.668 3.085.876 6.171.626 8.757ZM353.664 1070.39c14.427-6.55 33.526-8.51 48.662-3.21l-1.167 2.25c7.964.21 12.468 7.88 14.094 15.6h8.131c-.167-2.55-.625-5.05-1.376-7.39-1.751-5.33-2.502-5.08-5.588-8.63-14.969-17.47-40.864-16.68-61.172-9.59-12.051 4.21-25.394 14.18-34.193 25.61h12.426c6.589-6.43 14.136-11.93 20.183-14.68v.04ZM332.606 75.955c4.17.459 11.55-.542 3.878-3.544-3.169-1.251-9.132-2.71-11.342-5.213-1.627-1.876-1.71-4.712-2.752-6.713-.543-1.084-2.085-1.126-2.544-2.294-2.585-6.672-3.169-25.436-.876-32.233 2.21-6.463 7.881-13.844 14.511-20.307h-12.426c-2.752 3.544-5.045 7.255-6.755 10.967-8.298 18.389-6.839 56.585 18.306 59.337ZM132.076 29.21c7.965 5.63 25.603 9.008 34.151 15.054 2.252 1.584 2.836 3.544 3.67 6.005l6.505.083c3.419-5.38-.292-9.59.459-16.012.959-8.382 5.796-18.556 8.673-28.648h-9.424l-9.257 27.73c-6.505-2.877-12.551-6.505-19.098-9.382-5.129-2.21-8.173-1-12.26-7.172-1.251-1.877-.125-8.84.834-11.175h-8.548c-4.337 7.338-4.003 17.68 4.337 23.56l-.042-.042Z"/><path d="M157.721 12.781c1.084-.083 1.543-3.085 2.085-7.172h-7.589c.959 3.044 2.543 5.921 5.504 7.172Z"/><path d="M136.705 4.9s.834.542 1.418.75h.5c.25-.166-.125-1.542 1.96-2.001 3.753-.834 7.339.25 10.842-1.084.208 1 .458 2.043.792 3.044h7.589c1.001-7.923 2.294-19.932 9.049-22.768 2.71-1.126 4.753-.333 7.464.542 2.001 6.547 2.168 11.51 1.042 18.306l-1.292 3.92h9.424c2.168-7.715 3.21-15.345.5-22.142-.459-1.168-1.668-1.251-2.168-1.877-2.669-3.628-1.293-4.211-7.006-6.13-15.512-5.254-23.309 12.177-25.394 24.811-10.342-6.296-19.39-2.001-23.727 5.338h8.548c.167-.376.292-.667.417-.75l.042.04ZM136.705 1084.32s.834.54 1.418.75h.5c.25-.17-.125-1.55 1.96-2 3.753-.84 7.339.25 10.842-1.09.208 1 .458 2.04.792 3.05h7.589c1.001-7.93 2.294-19.94 9.049-22.77 2.71-1.13 4.753-.34 7.464.54 2.001 6.55 2.168 11.51 1.042 18.31l-1.292 3.92h9.424c2.168-7.72 3.21-15.35.5-22.15-.459-1.16-1.668-1.25-2.168-1.87-2.669-3.63-1.293-4.21-7.006-6.13-15.512-5.26-23.309 12.17-25.394 24.81-10.342-6.3-19.39-2-23.727 5.34h8.548c.167-.38.292-.67.417-.76l.042.05Z"/><path d="M138.665 5.61h-.5s.375.083.5 0ZM268.682 883.954c-4.42 9.132-4.837 18.848 0 27.771 3.502 6.463 15.303 14.344 21.975 16.763 2.252.834 10.675 2.669 10.633-.334 6.797 2.961 12.593-3.294 18.89-3.544l-1.126-2.252c7.464-1.626 13.427-14.97 15.137-21.975.875-3.628.125-8.59-.334-12.259-4.128-3.503-6.046 10.466-7.131 12.801-1.542 3.461-7.839 13.802-10.8 15.721-15.178 9.757-33.734.875-42.032-13.136-.208-7.297-.542-15.261 4.295-21.475 1.71-2.21 10.175-6.546 12.968-6.963 3.211-.459 15.554.333 17.931 1.626 5.129 4.879 1.96 20.141-3.503 22.768-11.676 5.587-5.838-9.591-6.547-11.426-2.335-6.13-7.38 3.795-7.38 8.59.041 10.883 12.843 11.926 19.974 6.255 6.671-5.296 8.715-23.226 2.543-29.314-2.877-2.836-19.473-4.921-23.977-4.337-9.382 1.209-17.346 6.005-21.516 14.678v.042ZM318.762 743.762c-24.603-10.425-42.992 28.438-19.349 39.28 22.434 10.299 45.41-16.93 40.115-38.905-1.293-5.338-5.129-8.799-5.004-15.012 0-1.918 4.253-15.136 5.462-16.179l13.886-6.713c3.086 2.001 16.846 6.213 17.514 8.298 3.127 9.507-16.054 26.562-22.268 18.264-2.335-3.128 1.418-9.674 3.878-11.134 1.668-1.001 4.045.709 5.505-.959l.083-2.919c-3.878-7.506-15.72 3.211-15.679 10.3.084 10.424 8.882 13.51 17.889 9.716 5.046-2.127 5.713-4.087 8.882-7.631.876-.959 2.377-1.126 3.503-2.752 3.711-5.255 4.128-10.884 2.377-17.014-11.384-5.17-16.93-12.509-29.815-7.047-9.966 4.212-14.47 10.8-16.054 21.559-1.793 12.134 4.67 15.178 4.336 24.81-.125 3.878-3.544 16.096-5.712 19.099-4.629 6.296-18.223 12.259-25.979 9.09-.625-.25-7.422-6.63-7.672-7.131-2.627-5.045 2.001-17.555 6.255-21.058 3.836-3.169 9.048-2.96 13.677-3.502l1.876 3.586-1.376 9.507c5.921-3.252 8.423-10.258 3.67-15.595v.042ZM307.295 563.748c-12.176-8.84-33.359-1.126-46.745 1.584-6.463-1.626-6.421-9.048-6.463-14.552-5.838 1.584-9.591 7.005-9.216 13.135.042.667 2.919 11.05 3.42 12.509 3.711 11.176 12.551 17.931 24.394 13.135 1.042-.417 2.335-9.84 9.298-10.132 15.471-.626 20.308 20.14 35.987 16.262 1.125-8.089-4.004-27.104-10.675-31.941ZM268.89 579.01c-.167 2.919-3.503 5.254-6.171 4.67-.501-.125-7.465-6.922-4.504-7.798l17.514-3.419-6.839 6.547Zm30.774-.251c-6.63-4.086-14.928-8.214-22.768-5.17-.542-3.253.667-1.96 2.711-2.419 4.837-1.084 8.464-1.626 12.593-1.584 4.545 0 6.213-1.71 10.508 2.168 4.086 3.711 5.838 11.426 7.255 16.68l-10.258-9.633-.041-.042ZM246.623 783.375c-3.836-1.376-9.215-1.501-13.051-3.127-3.17-1.376-5.255-4.337-7.256-5.629-1.71-1.085-3.836-1.96-5.755-.542-3.085 2.251 6.797 20.432 7.715 25.102.834 4.128-.501 9.925-.042 13.969 1.209 10.634 2.293 28.064 12.885 33.818 2.002 1.084 4.462.917 6.046 1.918 3.295 2.085 4.462 8.465 11.342 4.921 2.252-5.713-2.627-7.84-2.21-11.801 1.168-11.592 9.174-27.438 9.8-39.322.583-10.758-10.926-16.304-19.515-19.348l.041.041Zm7.131 41.199c-1.96 5.921-7.589 12.676-7.673 19.14-1.084-.793-3.836-3.336-4.378-4.129-8.674-13.552-2.252-34.86-8.173-49.413 5.212.334 23.643 4.379 24.894 9.883.584 2.502-3.628 21.225-4.712 24.519h.042ZM426.721 457.458c-8.757-8.799-25.27-2.919-25.562 10.174-8.298-3.836-16.262 3.92-17.013 12.093-1.001 10.341 11.592 9.299 18.431 11.008 1.751.417 10.174 2.878 10.842 3.42 3.044 2.418 1.793 14.511 7.964 11.425 4.837-2.418 2.252-10.133 2.919-14.219 1.585-9.758 11.05-25.145 2.419-33.86v-.041Zm-9.591 30.648c-8.84-4.42-17.806-4.503-27.355-5.712-.708-4.212 4.421-12.719 8.924-10.05 1.835 1.084 1.626 7.756 9.299 5.463-2.377-3.42 1.084-4.837 1.626-6.797.876-3.128-1.501-1.376 1.668-5.546.5-.667.375-2.46 1.209-3.044 3.586-2.585 6.464.042 8.59 2.377.417.458 1.293.375 1.501 1.084 1.085 4.42-6.046 17.305-5.462 22.184v.041ZM130.909 761.275c-6.714 4.003-8.173 17.097-3.962 23.143 1.502 2.127 12.093 9.799 14.887 10.174 17.138 2.419 16.679-8.881 12.927-21.85-2.377-2.085-5.213-7.964-7.131-9.59-3.169-2.753-12.968-4.129-16.721-1.877Zm17.722 25.436-2.419 2.044c-1.417.25-9.382-2.377-10.383-3.461-2.543-2.752-3.669-17.847.209-17.806 7.422.125 15.011 12.301 12.593 19.182v.041ZM455.285 711.445c-18.223 4.921-34.402 2.169-50.998 5.087-1.96.334-4.462-.125-4.212 2.336.501 5.003 4.212 4.712 8.549 5.129 10.967 1 33.275-1.21 44.075-3.67 3.587-.834 19.39-5.838 21.142-7.964.458-.543 1.459-4.17 1.334-4.712-1.209-5.088-16.638 2.96-19.89 3.836v-.042ZM334.566 454.663c-1.418-6.88-8.006-15.303-10.8-21.057-5.212-10.592-6.255-10.842-16.388-16.221-.625-.334-.75-1.668-1.167-1.877-3.253-1.501-11.717-4.336-15.178-4.753-4.212-.501-9.174 0-11.801 3.794 9.382 8.715 22.892 6.172 31.274 16.596 3.127 3.878 11.3 18.932 12.843 23.727 3.211 10.174-.834 29.106-5.129 38.571-15.637 34.485-80.187 38.488-87.442-1.376-1.001-5.462 1.668-19.723 4.086-24.727.25-.542 8.006-8.423 8.632-8.799.292-.166 5.171-2.877 5.462-3.044 12.719-5.545 30.274-5.212 42.283 1.794 3.002 4.92-2.919 15.97-6.338 19.932-11.634 13.593-28.189 6.671-14.803-9.633-11.509-5.337-17.347 18.264-9.382 22.768 7.922 4.42 21.516 3.211 28.396-2.586 1.251-1.042 8.34-12.092 9.299-14.052 9.883-20.599-5.045-27.521-23.226-28.856-32.567-2.46-58.003 14.595-55.042 49.58.833 10.091 4.211 12.426 9.715 19.057.209.25-.709 1.459-.458 1.751 11.092 12.134 38.071 18.389 54.041 15.845 9.716-1.542 17.139-5.837 25.186-9.048 1.543-.626 9.758-9.216 10.884-10.592 11.175-13.468 18.681-39.28 15.095-56.71l-.042-.084ZM214.682 529.179c4.253 1.96 11.508 4.003 9.549-3.294-2.294-2.544-8.09-2.627-9.966-4.212-12.01-10.133-21.434-44.701-14.261-58.587.625-1.209 1.834-1.96 2.71-2.96-4.17-4.754-8.798 2.043-10.133 5.837-5.838 16.305 5.421 55.502 22.059 63.216h.042ZM151.716 515.877c-1.209-2.668-6.213-23.726-5.712-25.394.834-2.919 9.59-3.044 12.426-4.253 12.009-5.213 25.561-19.098 20.099-33.193-5.546-14.427-22.559-11.217-30.941-1.042-7.506 9.132-5.504 14.219-7.881 24.352-.208.876.334 3.419-1.96 2.127-1-.542-4.878-9.216-5.295-11.092-2.21-10.383-1.877-28.105-.751-38.78.167-1.418 1.168-2.919 1.626-4.337-7.13.834-7.38 13.761-7.756 19.89-.667 10.926.709 30.232 7.965 38.739 1.626 1.918 5.796 3.169 6.338 3.878 1.084 1.417 1.001 12.301 1.501 14.97 1.835 10.466 6.338 27.563 17.263 31.899 4.504 1.793 16.221 1.418 18.473-4.086-13.594 1.751-19.557-1.21-25.311-13.678h-.084Zm-5.504-33.901c-1.543-9.924.209-20.974 7.506-28.48 11.676-12.009 25.061 0 17.263 13.844-2.835 5.046-14.928 12.885-20.432 14.344-1.251.334-3.002.042-4.378.292h.041ZM183.783 424.224c8.298-.459 11.133-4.212 12.051-12.093 1.584-13.927-8.799-14.136-19.14-9.34-1.084 1.793 1.042 8.673.792 10.716-.083.709-1.543.459-1.71.792-2.501 4.587 2.419 10.258 8.007 9.925Zm2.46-15.804c3.086 2.502 3.127 5.546 1.626 8.965l-3.336.084-1.167-7.965 2.877-1.042v-.042ZM149.673 731.961c-2.835 3.294-4.67 10.008-2.794 14.011.793 1.709 3.253 1.376 4.546 2.585 1.959 1.835 2.793 4.67 5.754 5.588 7.089 2.168 11.217.625 12.426-6.881.709-4.336-1.251-5.379-2.835-7.756-3.586-5.421-10.925-14.678-17.097-7.547Zm12.051 16.012c-6.13-1.293-11.384-5.212-6.255-11.384 3.42 3.17 7.006 6.172 6.255 11.384ZM382.937 136.626c2.043-2.877 2.836-12.301.751-15.178-2.252-3.086-12.76-3.002-15.054-.334-2.668 3.128-4.461 14.22-.25 16.763l7.131 2.586c.834-4.128 5.754-1.501 7.422-3.878v.041Z"/><path d="M473.882 671.873c-27.855-.876-59.588 11.217-88.318 9.882l-73.349-1.042c4.254-4.545 5.755-10.633 8.257-16.221.625-1.376 4.045-7.005 4.17-7.422 1.876-7.047-.876-23.352-7.631-26.354-27.98-12.426-38.905 23.435-39.03 44.368l-25.061-5.713c1.501-3.044 6.004-2.711 8.006-5.379 5.379-7.047 16.638-31.733 14.136-40.073-4.379-14.553-22.726-3.961-30.357 2.252-9.924 8.089-15.345 20.307-16.888 32.984l-18.181-9.174c-.458-1.71.209-1.835 1.168-2.752 10.758-10.508 25.811-24.853 29.814-39.739 1.71-6.255-1.959-17.68-8.798-19.015-15.762-3.044-28.313 6.13-35.194 19.473l-9.799 20.391c-1.334-26.604 5.129-54.5-6.171-79.895-8.299-6.421-19.307 11.968-21.767 18.348-5.755 14.97-3.711 37.987 3.711 52.04 3.503 6.672 8.923 9.924 12.635 14.803.959 1.251 5.879 7.381 4.712 8.34-8.799-.667-18.89 2.043-25.103 8.506-1.126 1.168-6.046 8.423-7.005 10.091-4.379 7.798-5.713 16.013-.751 24.019 3.669 5.963 14.97 8.673 21.225 6.088.709-.292 10.299-8.006 11.759-9.341 6.505-6.004 11.133-15.178 15.637-21.308.208-.25-.667-5.254.292-6.63 3.502 1.835 7.172 3.711 10.591 5.713 3.878 2.293 2.46.625 4.045 1.251.209.083.542 2.168 2.961 3.336 3.044 1.459 6.63 2.168 9.799 3.377.584 3.086-3.253 2.753-5.755 5.088-7.297 6.838-12.676 17.43-15.095 27.021-4.003 16.054-6.213 35.735 17.139 30.189 8.84-7.797 15.887-14.677 19.598-26.478 2.961-9.299 2.21-18.348 3.503-27.855 7.422 1.209 14.136 4.629 21.35 6.63 1.209.334 2.793-.834 3.169-.709.292.084 1.918 3.128 5.087 2.085-6.547 13.511-21.225 29.982-17.43 46.536 1.167 5.129 5.045 12.468 10.55 13.427 2.21.375 10.675.542 12.551-.125 3.961-1.418 13.886-10.383 13.761-15.345l2.21 1.126c5.004-11.259 11.092-26.729.792-37.196-1.918-1.96-6.005-1.751-5.296-4.962 3.711 1.877 8.507.375 11.759 1.126.876.208.751 2.252 1.46 2.335 2.085.292 4.462-1.71 6.672-1.793 21.016-.542 43.074 2.168 64.8 1.168 24.352-1.126 43.325-4.337 66.718-8.298 14.094-2.377 28.021-5.588 42.407-4.879-.625-4.253-5.587-4.17-9.382-4.254l-.083-.041Zm-296.771-49.247c-3.586-5.796-7.13-11.091-9.424-17.972-4.67-13.885-4.879-30.065 3.169-42.741l5.671-5.421c-.792 6.839 2.878 14.011 3.461 21.016 1.251 15.054-1.334 30.19-2.877 45.077v.041Zm-13.927 56.794c-8.507 1.585-8.924-9.173-6.338-14.344.208-.459 5.337-7.089 5.962-7.798 5.213-5.754 16.555-9.591 24.019-7.297-.792 8.548-15.679 27.98-23.643 29.439Zm39.405-36.528-7.631-2.252c-1.835-2.085 7.464-23.309 9.216-26.353 4.878-8.34 15.095-20.224 25.686-15.387.918 1.126 1.126 2.46 1.293 3.836 1.376 11.384-22.101 31.191-28.564 40.156Zm29.314 50.414c-1.417 7.047-5.462 14.636-10.257 19.974-2.586 2.877-6.922 6.004-10.884 6.171-2.418-1.626 2.669-25.228 3.92-28.564.584-1.584 8.131-13.427 9.299-14.594 1.751-1.793 5.129-4.295 7.714-3.461 1.459.542 1.584 1.459 1.793 2.794.417 2.46-1.043 14.886-1.626 17.722l.041-.042Zm5.546-29.606c-1.709-17.347 12.635-32.192 28.022-37.696.834 15.762-13.719 26.521-15.971 41.032l-12.051-3.336Zm53.75 38.613c.792 2.502.876 5.796.25 8.34-1.209 4.712-12.384 19.848-16.846 21.892-9.716 4.461-10.133-13.553-8.715-19.641.083-.417 2.627-5.879 3.336-7.38 2.085-4.545 6.296-9.382 7.714-14.511 1.501 1.084 8.465 3.461 8.84 3.794.376.292 5.213 6.88 5.421 7.548v-.042Zm10.592-22.976-13.511-.917c1.585-6.255.918-12.885 1.96-19.14 1.209-7.214 5.838-17.305 12.843-19.974 4.879-1.835 7.881.083 10.3 4.295 6.839 12.009-8.465 24.227-11.634 35.694l.042.042Z"/><path d="M335.525 640.724c.751-.084 6.839-2.043 7.214-2.419 2.461-2.71 2.044-12.176.584-15.428-1.96-4.337-6.588-3.169-10.383-3.545-2.877 2.127-2.085 14.762-.876 17.639.084.25 3.211 3.794 3.461 3.794v-.041ZM374.18 659.155c3.378-3.086 3.503-8.465 2.21-12.593-1.543-4.754-2.669-2.294-3.461-2.669-.334-.125-.25-1.501-.459-1.626-.375-.167-7.464 1.084-7.756 1.334-4.044 3.044.167 11.509 2.21 14.928l7.298.626h-.042ZM562.2 540.355c.667-10.633-10.091-34.276-22.434-33.484-3.211.209-6.297 2.21-9.674 1.71l-4.587-15.262c-10.592-5.379-21.517-6.63-32.859-2.168-6.547 2.585-16.137 20.224-15.053 27.688-3.586-.793-4.67-3.503-8.799-4.295-13.76-2.544-30.148 10.925-36.57 22.183-5.921 10.383-5.962 25.228 5.588 31.567 2.377 1.292 5.171 1.459 7.548 2.71 2.793 1.501 7.088 6.422 9.424 4.795 2.251 6.881-1.21 12.176-3.503 18.515-.918 2.585-3.294 6.713-3.92 10.508-1.001 6.338-.709 14.177 3.92 19.181.876.959 2.335.834 3.294 1.543.959.709 1.209 2.127 2.21 2.669 5.588 2.835 22.684 1.084 28.48-2.002 1.418-.75 7.423-7.089 4.254-7.13l-27.105 2.293c-1.292-2.418-3.919-3.252-5.42-5.129-7.214-8.882 9.632-29.356 5.212-41.657-.25-.625-6.213-7.339-6.63-7.631-1.71-1.209-6.338-1.418-9.174-2.794-4.879-2.335-6.171-4.086-8.757-8.089-.5-.751-1.834-.834-1.96-1.043-.166-.375-.25-7.255-.125-8.048 1.502-8.298 16.346-24.227 24.519-26.645 7.548-2.252 16.096 1.751 12.135 10.758-.793 1.793-2.544 1.251-2.627 1.376-.334.584 2.085 2.002 2.168 3.878.125 1.96-1.835 5.004-1.042 7.506 2.501 2.46 7.922-7.881 10.341-9.507 5.17-3.461 14.469-4.546 16.763 2.376.25.709-.376 11.551-.793 12.093-1 1.418-3.961.667-5.879 2.711-2.585 2.71-2.002 7.881-2.294 8.214-.25.292-5.003.709-7.589 2.127-10.675 5.838-20.516 26.729-10.633 37.07.25.292 5.671 4.295 6.005 4.462 5.17 2.877 13.385 3.503 19.098 2.001-.209 5.463 1.626 8.299 6.838 9.8 7.84 2.21 15.221-10.675 14.804-17.764-.751-.876-6.923 3.169-7.923 4.045-1.793 1.501-1.668 3.669-3.461 3.961.75-14.261-12.718-6.63-20.266-8.798-5.504-1.585-13.427-6.255-12.176-12.969.125-.667 4.629-10.675 5.254-11.675 2.794-4.545 7.589-7.006 11.801-9.841l1.084 2.043c13.093 1.084 27.063-.083 39.989.834 1.168.083 2.21 1.001 3.336 1.084 6.38.501 12.051-3.461 10.842 7.84-1.168 10.8-12.927 15.136-15.887 21.766-1.168 2.669 4.753 1.835 6.171 1.585 2.836-.459 8.507-2.252 8.673-5.588.584-.333 2.002 1.251 2.127 1.877 1.668 6.88-16.596 31.315-22.726 35.11-11.425 7.047-28.564 2.419-27.313-13.052-6.088-.708-5.254 7.339-4.503 11.885.709 4.295 9.09 12.009 13.093 13.093 2.377.625 15.721.125 18.223-.5 5.379-1.418 14.386-10.008 18.097-14.386 7.548-8.924 11.05-16.763 14.928-27.772.584-1.668 0-4.92.834-6.046.542-.751 2.711-.709 3.628-1.543 3.753-3.419 14.178-20.266 15.804-25.228 1.918-5.754 1.334-14.595-3.128-19.056-2.627-2.669-8.256-4.087-11.717-5.88l.042.125Zm-8.966 45.619c-.75.417-3.085.75-2.71-1.001l1.918-1.042c2.502-6.631 5.838-20.6-1.334-25.27-.667-.417-12.009-2.168-13.677-2.252-12.802-.792-26.604 2.21-39.364.042 6.63-5.212 7.714-5.254 8.048-14.261.542-14.219-8.84-22.1-22.893-17.639-1.96-9.09 6.547-16.262 10.467-23.726l2.084.959v-3.419c6.255-.417 14.345-1.543 20.433 1.793 3.461 1.876 5.713 8.631 8.048 11.884-9.049 1.918-15.345 11.467-14.803 20.516l4.378-.209c2.627-9.257 11.467-14.845 20.683-16.429 10.508-1.793 14.803 9.549 17.472 17.972.917 2.835.417 5.462 1.125 8.048 1.835 7.047 12.969 7.381 15.429 10.133.25.292.834 6.713.834 7.255-.167 4.545-12.218 24.436-16.138 26.646ZM399.449 609.492c6.63-.334 14.636.125 21.225-1.209 1.876-.376 3.002-3.128 5.546-1.668l-2.169-7.423c-9.799-2.502-17.93-9.174-25.478-15.637-.792-4.337-1.584-9.591-1.668-13.927-.208-10.634 4.129-21.017 2.461-31.9-1.293-8.59-9.424-25.228-16.847-29.856-4.545-2.836-13.051-5.213-18.431-4.712-2.627.25-4.753 1.834-6.963 2.001-3.336.25-14.47-2.377-16.263 3.044-3.002 9.091 12.093 6.38 17.681 12.885.375.417 2.627 8.048 2.71 8.674.751 6.88-7.214 19.64-7.965 28.396-1.751 21.434 15.262 44.577 35.111 51.499 7.172 2.502 7.089 0 11.05-.209v.042Zm-34.318-38.947c-2.669-14.094 7.964-26.687 6.38-37.279-.417-2.752-5.504-15.136-7.172-17.43-.751-1.042-2.961-1.042-3.044-2.627 16.846-.625 26.52 16.429 27.438 31.274.875 14.595-3.753 24.561.625 39.906 2.293 8.09 4.462 9.09 11.842 12.593-1.042 1.96-6.171.542-7.714.125-.375-.083-5.838-2.543-6.547-2.96-7.297-4.212-20.14-15.137-21.766-23.56l-.042-.042Z"/><path d="M527.715 591.811c2.877-13.302-19.432-21.267-27.355-10.842 3.336 2.71 6.588-.25 11.426 1.084.708.209 8.423 4.003 8.756 4.337 1.752 1.584.959 5.963 7.131 5.379l.042.042ZM450.613 346.413c1.251-.083 2.544-1.417 3.753-1.501 10.759-.917 22.518-3.085 32.984-1.626l.501-2.168 1.667 2.251c8.173-3.169 19.557-7.672 18.807-18.722 0-.459-2.085-8.298-2.377-8.966-6.547-14.386-33.234-13.677-46.411-11.383-11.926 2.085-26.687 7.297-34.402 16.888l-12.009 17.638c-4.795-4.837-8.173-10.8-12.551-15.97-4.504-5.296-21.517-18.139-12.552-25.061 9.8-7.59 19.265-11.134 30.232-16.68 5.504-2.794 13.469-8.923 19.432-11.175 8.673-3.294 14.177-1.752 22.225-9.716 5.254-5.212 7.756-15.595.209-19.682-7.339-3.961-39.572-1.209-47.787 1.751-18.431 6.714-30.023 22.143-38.738 38.78-1.752 3.336-3.586 7.298-4.42 11.009l-24.478-19.307c-.208-8.298 2.21-20.39 6.881-27.354 2.794-4.17 8.506-5.213 9.757-10.216 2.252 1.417 11.759-5.171 14.011-7.047 11.426-9.55 25.436-27.98 23.56-43.784-.209-1.71-4.003-10.508-4.921-11.634-8.089-9.841-32.066-.167-39.613 7.089-19.224 18.514-30.816 59.629-20.516 84.94-.709.584-14.678-6.63-16.763-7.756-2.294-1.209-3.545-3.419-5.713-4.545-12.718-6.463-30.69-13.344-43.033-15.929-8.382-1.751-34.986-1.334-43.2.917-13.594 3.67-33.443 16.763-35.778 31.608-2.585 16.68 2.002 26.604 17.722 33.067 2.836 1.168 4.212.042 5.213.292.333.084 4.336 3.044 4.67 3.128 17.347 2.627 27.771-2.169 42.574-9.716 2.002-1.043 7.548-2.586 8.59-3.67 4.17-4.253 6.756-8.965 13.969-11.384 3.753-1.25 7.923-.125 8.34-.291.125-.042.084-1.793 1.626-2.461 2.627-1.126 22.143-3.919 25.312-3.753 2.919.126 5.587 1.877 8.59 1.877L305.21 289.87c-16.096 13.302-30.524 29.022-40.49 47.578-5.504 10.216-8.507 21.392 1.543 29.69 6.713 5.546 19.306 4.545 24.56-1.835 3.211 1.793 1.668-.959 3.336-3.002 8.007-10.05 18.515-24.478 24.269-36.111 5.004-10.092 7.089-23.06 15.178-30.899-1.876-3.67 1.001-1.043 2.294-2.252.667-.626.375-2.335.917-3.211.251-.375 6.964-3.294 7.965-3.252 2.877.166 19.932 15.261 19.89 17.471-7.047 12.927-13.385 27.605-15.887 42.283-.501 2.877-1.793 10.717-1.96 13.01-.292 5.004 1.376 19.599 3.044 24.436.751 2.168 4.462 8.339 5.88 9.507.25.208 1.376-.792 1.751-.542.334.208.417 1.626 1.168 1.876 2.877.918 16.888.751 18.264-.25.458-.333 6.129-8.381 6.838-9.591 6.63-11.342 10.55-32.108 10.425-45.41 0-3.294-.834-6.38-1.043-9.632l13.594 15.679 2.169 6.922c-1.126.5-2.377.834-3.253 1.834-9.257 10.634-28.48 57.712-30.19 71.889-.625 5.088-.042 15.512 3.878 19.14 2.627 2.419 12.51 3.92 16.346 2.71 3.628-1.125 3.044-2.835 3.294-2.918.667-.251 1.96 1.209 3.044.792.376-.125 4.504-5.087 5.129-5.838 12.468-15.804 15.429-37.446 19.849-56.377.292-1.167-.167-2.877 1.501-2.544 2.502 13.678 10.883 27.73 14.303 40.99 2.835 11.134 2.085 25.103 3.502 36.612l2.711 2.168c.542-8.756 1.918-17.972 1.626-26.77-.542-17.347-10.425-45.619-17.055-62.09-2.96-7.422-8.298-13.427-10.925-20.974 7.881-8.298 18.556-3.753 27.897-4.462l.041-.084ZM275.77 273.274c-16.304 10.591-30.398 25.603-51.706 23.143-9.758-1.126-23.602-6.13-25.312-16.847-.917-5.587 1.793-13.594 5.505-17.972 24.769-28.981 74.057-14.053 103.038.083l4.92 4.129-36.486 7.422.041.042Zm43.117 25.978c-9.174 18.723-15.721 37.654-30.607 53.75-10.592 11.467-19.599 7.339-14.011-8.507 2.794-7.881 12.051-14.678 14.136-23.851l2.127 1.042c4.628-9.132 16.429-20.891 24.519-27.354 1.834-1.502 5.087-2.169 6.046-2.627.25-.126.667-4.879 3.669.375-2.418 0-4.878 5.129-5.879 7.214v-.042Zm22.309-65.759c1.251-8.882 11.425-35.361 16.929-41.449 1.001-1.084 3.003-.625 3.962-1.751.584-.667.375-2.585 1.459-3.628 3.42-3.127 18.681-9.716 21.642-5.879 5.463 8.756.25 19.014-5.046 26.437-4.211 5.879-10.341 10.383-15.261 15.261-9.8 3.295-17.055 10.967-24.186 18.265.292-2.377.125-4.921.459-7.256h.042Zm47.87 39.697c15.554-20.057 39.989-27.146 64.55-23.268 2.96 2.919-29.356 14.011-31.149 14.887-9.007 4.336-17.597 9.048-26.604 13.385-5.671 2.752-9.132 7.881-15.179 9.299-.625-.542 7.256-12.802 8.424-14.303h-.042Zm-15.762 108.459c-5.755 7.673-12.218-.209-13.677-7.005-.501-2.377-.417-14.678-.126-17.556.96-9.757 4.254-19.64 7.506-27.854 2.502-6.339 5.046-12.385 8.507-17.806 1.376 1.543 3.377 2.919 4.503 4.629 9.132 14.01 3.211 52.29-6.713 65.55v.042Zm34.443 32.692c-1.626 3.92-5.713 13.51-8.09 16.429-1.209 1.501-5.712 3.753-7.213 5.963-6.839 1.126-4.546-15.804-3.545-19.515 3.002-11.217 10.925-30.69 15.304-40.823.917-2.085 8.006-15.929 8.923-15.929 8.382 16.763 1.376 37.487-5.379 53.875Zm25.687-91.195c2.126-1.585 10.383-3.253 11.759-6.089 6.546-.458 9.59-2.376 18.18-2.335.584 0 .376-1.96 1.251-2.168 1.001-.25 19.557.125 20.558.375.208.042.208 1.501 1.209 1.877 1.418.542 3.127-.167 5.504 1.126 2.919 1.626 6.172 8.173 4.545 11.467-2.501 5.004-7.755 3.086-11.133 3.628-11.467 1.876-24.06 3.419-35.819 4.211-8.465.542-18.014-1.292-26.646 1.293-.959-.751 9.299-12.385 10.592-13.344v-.041ZM544.019 135.083c-.208-.458-6.755-7.422-7.172-7.714-.834-.5-7.881-3.878-9.09-4.295-7.84-2.794-24.894-1.418-31.9 3.711 1.543-11.55 3.378-24.018-3.669-33.943-3.461.46-8.632-1.5-11.467-1.167-9.341 1.167-16.221 11.133-19.349 19.181-4.086 10.425-2.251 25.395 1.293 35.903-.083 1.459-10.341 2.419-12.635 3.169-15.22 5.129-22.058 14.219-18.556 30.982 3.336 15.971 15.429 13.511 27.855 8.549-3.669 10.758-4.587 21.725 1.918 31.607 1.46 2.21 10.008 7.965 12.301 7.756 2.377-.208 4.42-3.044 7.881-.667.96-2.627 6.547-4.003 7.59-5.296 2.418-2.919 6.672-11.55 4.503-15.178 8.965 8.673 30.816 14.011 39.948 3.753 3.544-3.962 3.711-11.592 7.922-14.678-1.376-10.091-1.459-16.596-6.046-25.77-.834-1.668-2.71-2.085-2.794-2.252-.458-1 2.752-1.751-3.669-3.753l7.964-2.877-1.001-2.085c9.424-4.462 12.593-15.553 8.132-24.936h.041Zm-77.768 37.654c-4.17.834-19.765 11.051-22.809 7.548-.417-9.841-3.419-16.555 8.048-20.891 3.753-1.418 8.506-1.668 12.384-3.003-.875 5.338 7.298 12.218 2.377 16.346Zm15.554 39.322c-.459.626-5.379 4.003-6.839 3.545-4.628-1.668-2.877-4.754-3.461-6.505-.083-.25-1.668-.167-1.876-.959-.084-.334.417-6.881.5-7.256.334-1.042 3.628-8.632 4.045-9.382.75-1.293 2.752-1.793 3.753-3.461 1.334-2.21 1.292-4.712 3.628-6.589.792-.041 3.419 12.76 3.461 14.303 0 1.251-2.711 15.596-3.211 16.263v.041Zm.041-75.85c-1.417 3.545-6.755 4.754-5.42 9.966-1.627-.208-1.835-1.459-2.085-2.794-1.627-9.007-2.377-28.063 4.295-35.152l5.754-4.253c1.126 9.632 1.084 23.101-2.544 32.191v.042Zm20.266 59.421c-1.167-1.293-4.253-5.379-5.045-7.964-.793-2.669-2.502-20.016-1.251-20.975 3.961-.25 6.296 2.377 9.465 3.67 7.381 2.96 15.596 5.295 19.474 13.552 8.798 18.848-8.632 27.354-22.685 11.717h.042Zm16.972-39.197c-5.338.709-16.805-10.049-23.936-5.796l-.667-1.835c-1.042.542-4.462.751-4.336-.917.083-1.418 3.752-1.335 4.67-2.419 1.668-2.085.792-2.96 4.211-4.837 2.502-1.376 7.173-1.626 7.089-4.67l1.126 2.252c1.918.458.5-1.96 1.835-2.252 4.253-1.001 13.427 2.502 17.889 1.084l6.546 9.674c-4.211 3.753-8.298 8.924-14.427 9.758v-.042Z"/><path d="M231.362 333.737c3.544-.458 20.224-5.504 21.975-7.38 1.293-1.376.75-4.045 1.876-5.796-9.215 2.335-19.473 5.796-29.064 5.796-7.881 0-18.556-3.503-26.896-4.128-20.557-1.502-47.828-.668-61.464 17.138-7.172 9.34-12.676 32.567-9.549 43.992 1.21 4.378 7.59 17.388 12.969 11.842-3.211-4.711-6.38-8.256-7.464-14.177-2.169-11.843 7.047-36.111 17.555-42.992 5.587-3.669 19.056-7.088 25.811-7.297 16.18-.459 39.406 4.962 54.251 2.961v.041ZM176.86 116.277c-10.174 19.015-4.67 38.238 6.756 55.334 3.377 5.046 9.757 12.26 15.72 13.386l-.959 2.043c6.255 3.711 12.968 6.505 19.473 9.382 3.878 1.71 2.961.626 4.837 1.251.626.209.417 1.793 1.293 2.002 3.169.792 11.342.083 15.22 1.209.667-2.502-3.252-3.878-4.92-4.754-24.728-12.676-38.864-13.844-50.956-42.533-.667-1.584-3.169-7.547-3.253-8.006-.5-2.877-.5-14.219-.083-17.013 1.042-6.922 9.841-22.225 16.846-24.769l-1.001-2.085 3.42-1.126c-8.757-3.502-18.806 8.715-22.518 15.679h.125ZM314.551 131.373l2.252 1.125 3.294-15.47c-3.419-1.668-1.793-5.129-4.921-8.506-2.71-2.961-5.879-2.21-7.881-5.213-18.18-4.17-25.394.876-28.73 18.89-1.751 9.424 1.209 18.681 11.634 20.182 6.964 1.001 23.268-2.961 24.352-10.967v-.041Zm-27.396-11.968c.959-4.962 6.463-5.004 8.465-8.465 2.752 1.751 8.423.917 10.549 3.628 10.342 13.135-23.267 26.771-19.014 4.837Z"/><path d="M217.059 363.26c-.083-.626-5.046-7.923-5.463-8.215-1.918-1.209-22.809-4.086-25.603-3.503l-2.001.834c-4.087 7.006-8.423 9.257-7.464 18.89.625 6.005 8.84 17.847 15.47 17.722 6.922-.167 16.096-5.254 19.932-10.883 2.544-3.712 5.755-10.384 5.171-14.845h-.042Zm-11.092 7.214c-.292.542-2.043.709-2.543 1.376-6.339 7.797-14.845 12.217-15.471-1.668-.709-15.304 9.841-7.589 19.432-7.423-1.751 2.169-.459 6.13-1.376 7.756l-.042-.041ZM266.68 169.819c-1.459 2.46-5.587 16.471-5.629 19.181-.167 6.505 4.795 9.591 10.466 11.092 6.214 1.627 15.012-3.377 18.473-8.381 3.252-4.712 5.296-15.929 2.961-21.141-.251-.584-4.546-5.713-4.879-5.838-.542-.209-10.967-1.168-11.592-1.126-2.627.25-8.424 3.919-9.8 6.213Zm17.013 3.753c2.252 4.795-6.922 18.639-11.425 15.428-3.961-8.464 1.835-18.514 11.425-15.428ZM192.457 218.481c-2.21.584-13.553 5.296-13.594 6.881 5.004 4.42 12.301.208 17.764-.459 28.813-3.503 56.96-9.757 85.065.209 1.918.667 8.632 5.379 9.466 5.337 5.212-.208-3.753-8.715-5.254-9.591-.667-.417-5.171-2.168-5.922-2.46-21.85-8.34-64.925-5.796-87.525.042v.041ZM155.928 239.664c-3.252-2.043-4.503 3.67-5.296 6.547-4.92 17.764 1.46 34.402 12.593 47.745 10.717 12.885 26.438 24.978 44.076 20.891.334-2.919.042-1.876-1.709-2.335-4.129-1.126-8.382-1.209-12.76-3.127-17.722-7.798-39.364-32.984-38.071-53.208.375-5.713 3.627-11.008 1.126-16.471l.041-.042ZM220.144 416.008c1.126.793 9.007 2.461 10.55 2.002 4.462-1.334 5.087-5.838 6.338-8.965.667-1.627 2.627-3.378 2.836-4.712.5-3.753-.709-12.969-4.462-15.012-12.01-6.547-20.933 4.629-20.224 16.138.125 1.918 3.878 9.757 4.92 10.508l.042.041Zm9.924-20.14.084 11.342h-5.713l1.042-7.506-2.168-2.168 6.755-1.668ZM146.045 306.049c-12.301-1.335-14.511-1.126-23.476-8.965-2.544-2.21-5.421-3.92-7.547-6.756-2.377-3.127-10.258-20.724-12.01-21.058-4.503-.917-1.501 10.217-.792 12.218 4.545 12.385 16.346 22.476 27.938 27.938 1.335.626 2.794.876 4.253.918-3.919 4.128-9.215 7.255-12.134 12.384-2.752 4.837-2.252 9.216-4.962 13.844 2.127 2.21 5.004-7.422 5.671-8.548 4.128-6.922 8.381-12.76 16.346-15.595 2.418-.834 7.339-.334 8.548-1.126 2.085-1.335 2.21-4.712-1.793-5.171l-.042-.083ZM184.533 202.01c-2.835-.292-17.054.792-17.096 4.003 1.543 2.085 2.502 2.627 5.087 2.877 1.918.209 22.017-2.126 23.393-2.835 1.877-1.46.584-1.209 0-2.335-2.627-5.338-9.007-7.965-13.26-12.427-8.131-8.59-8.798-15.72-13.594-25.686-7.255 13.135 6.213 27.896 15.387 36.445l.083-.042ZM242.787 138.628c.125 8.465 4.462 16.846 13.886 14.219 6.213-1.751 9.257-16.638 5.045-21.099-5.796-6.172-19.014-1.126-18.889 6.922l-.042-.042Zm4.462 3.002 9.132-3.419c1.501 8.256-6.38 11.175-9.132 3.419ZM206.842 167.776c5.505 6.922 15.22 6.963 17.597-2.21-6.088.708-10.216 1.125-14.344-3.837-8.382-10.091-4.295-19.765-11.843-29.189-.458 12.843.376 24.894 8.59 35.277v-.041ZM166.269 349.04c-17.263 1.543-17.889 19.181-10.55 31.566 3.461 5.796 13.386 7.798 8.257-1.042-.834-1.418-2.836-1.668-3.962-3.17-2.918-4.044-4.545-16.512-1.417-20.224.583-.708 9.34-4.962 7.631-7.172l.041.042ZM398.949 101.724c-1.542 6.964.251 7.589-6.963 9.883-.876 7.297 2.001 10.258 9.132 7.797 4.587-1.584 4.253-4.586 5.879-7.672.417-.834 1.752-.959 1.835-1.126l-1.876-8.423-7.965-.459h-.042ZM405.162 142.84c6.88-.417 6.838-10.3 3.794-14.72-13.844-4.545-16.762 15.47-3.794 14.72ZM363.38 621.209l3.503-11.05c-3.044-1.251-8.382-4.838-11.259-1.835-2.001 2.085-4.962 10.55-.292 11.05l-.875 2.043 8.965-.208h-.042ZM180.78 783.626c-11.008-7.131-20.265 18.556 1.293 10.925.25-3.503 2.71-8.34-1.293-10.925ZM421.717 958.802c-1.126-1 3.919-9.007 4.336-11.133.876-4.545-.5-14.47-2.168-18.932-1.084-2.877-2.543-2.543-3.044-3.252-.208-.334.792-1.543.584-1.793-.917-1.168-7.881-5.004-9.799-5.588-2.419-.75-18.264-1.709-20.183-1.167-.667.208-10.132 6.505-11.383 7.714-10.383 9.924-15.846 29.439-13.135 43.283-14.845 1.752-33.61 10.842-46.328-.542-.667-1.376 2.919-9.174 3.836-9.716 4.712-2.877 17.639 0 22.81 2.085 3.836 1.543 21.183 13.136 8.923-.959-5.587-6.421-15.804-9.716-24.435-10.633-11.884-1.251-22.518 6.797-22.559 19.098 0 .334 1.167 6.088 1.334 6.38.208.375 5.921 5.963 6.297 6.255 8.923 6.505 26.52 4.462 36.444 1.751l-8.756 13.386c-5.671 4.67-11.509 24.061-4.838 29.311 1.543 1.21 7.381 1.75 9.424 1.63 4.629-.33 6.214-2.79 10.3-3.34 3.753-2.62 7.839-10.84 10.925-14.05.918-.96.792-1.04 2.377-.75-1.209 5.84 3.336 7.76 5.296 10.51.292.42-.542 1.71.834 3.21 6.046 6.63 12.718 9.21 21.266 5.09 7.381-3.55 5.963-16.31 6.839-23.4 2.377 2 2.627 3.51 6.088 4.88 2.46 1 11.008 3.59 13.677 3.8 3.211.29 11.259-.5 14.011-1.71 2.293-1 2.418-2.96 2.96-3.26.292-.16 5.63.09 3.17-3.71.917-.04 2.501.34 3.169-.21.458-.37 4.211-10.211 4.378-11.17.208-.96.167-12.927-.042-13.719-2.668-9.091-22.892-20.933-32.566-19.349h-.042Zm-69.929 55.498c-1.71 1.17-3.253 1.8-5.338 1.5.751-10 7.423-17.467 11.426-26.474l9.09-9.966c0 1.96.584 3.878.459 5.838-.459 8.631-8.423 24.142-15.637 29.102Zm42.533 2.63c-8.257-3.63-9.299-12.3-11.676-19.932-.167-.583-1.668-.5-1.876-1.417-1.21-4.671-.501-11.259-2.336-16.263 1.877.584 2.669 2.669 3.878 4.087 4.462 5.295 8.674 10.466 14.178 14.97l-2.127 18.595-.041-.04Zm1.793-43.325c-4.962-1.167-5.755-7.547-7.423-8.548-.709-.417-9.007 2.002-12.634-1.084-1.877-1.585-1.293-7.548-1.001-10.133 1.251-10.758 6.588-18.973 13.76-26.729 4.17 1.793 2.794-.792 4.045-1.251 19.724-7.255 31.316 9.799 21.642 27.521-2.46 4.462-9.132 9.675-12.885 13.928l-5.546 6.296h.042Zm28.98 26.855c-2.71-.709-15.345-6.797-17.388-8.507-3.669-3.086-1.293-10.717-6.505-11.467-1.001-1.71 8.048-5.213 8.757-5.963 1.126-1.168.834-3.086 1.751-4.003 3.253-3.295 20.558-.084 24.477 2.418.417.25 6.714 6.755 6.964 7.214 5.629 11.092-5.963 23.518-18.014 20.348l-.042-.04Z"/><path d="M366.924 1048.58c-4.962.29-10.966 1.17-15.887.92-24.727-1.29-16.179 3.46-49.913 4.25-12.468.29-23.644-8.13-35.528-11.84 0-8.13 2.919-5.01 6.213-6.09 7.881-2.63 13.261-5 19.14-10.42.292-.3 1.793.45 2.502-.42 1.751-2.04 11.801-16.39 12.51-18.39 4.17-11.801 3.502-20.683-9.383-24.728-6.38-2.001-14.678.25-19.098 5.338-6.296 7.255-15.678 25.52-21.058 34.78-2.668 4.54-.708 8.92-8.59 9.71-6.379.63-12.509-5.59-17.722-8.42-3.711-2.04-4.753-2.29-8.089-4.46-6.005-3.84-9.507-3.42-12.26-11.59.084-1.55 16.722-5.18 19.349-5.68 13.51-2.498 16.971.21 29.689-7.752.542-.333 1.835.334 2.043.125.793-.959 1.377-5.045 2.127-6.588.334-.751 2.168-.709 2.585-1.877 1.21-3.502-1.292-11.925-4.503-14.427-2.961-2.294-25.853-4.254-30.44-3.795-13.886 1.376-24.06 9.007-34.235 17.013l-8.298 14.511c.375-3.544-3.294-2.418-4.837-3.419-1.251-.834-1.543-2.419-2.71-3.211-1.585-1.042-5.38-2.043-5.922-2.627-.25-.292 0-5.713-2.251-7.255 5.545-4.295 11.05-8.549 16.971-12.427 6.296-4.128 14.553-6.004 18.056-12.968 3.127-6.213 1.918-10.675-3.753-14.636-4.671-3.295-17.806-7.881-23.31-6.547-12.301 2.919-23.268 24.352-25.686 35.986-.501 2.419 1.417 4.962-1.293 6.505-22.142-7.005-48.162-18.848-70.93-8.006-11.259 5.379-22.392 17.263-22.1 30.395.292 13.18 11.926 18.89 23.852 18.43 7.839-.29 18.889-4.17 26.937-6.83 8.673-2.88 18.639-8.22 28.23-11.35 5.171-1.706 10.175-3.874 14.553.88-5.254 5.09-10.675 19.1-9.674 26.23 1.376 10.01 9.924 26.1 20.974 15.8 9.383-8.76 9.591-30.52 9.8-42.61l15.428 11.05c-2.835 17.51-8.089 33.27.792 50.16.209.42 5.296 6.92 5.671 7.17 5.421 3.75 13.886.67 16.388-5.09.709-1.58-.167-2.87 0-3.33.334-1 1.793-.75 1.918-1.29 1.543-7.22.334-18.89 1.46-26.15.333-2.08 1.167-3.84 2.794-5.21 1.918 3.96 7.464 4.96 11.175 7.05 4.879 2.71 8.923 6 14.428 7.88-4.129 10.92-15.763 39.9-6.839 49.24 4.962 5.22 16.93 2.38 21.808-1.96 9.341-8.25 9.007-26.89 6.756-38.23 40.323 14.76 59.754 5.42 101.995-1.46.042-2.13.584-2.38-1.71-2.26l-.125-.08Zm-77.434-57.377 7.797 3.085c3.169 4.838-13.594 23.852-18.264 26.522-1.292.75-10.716 4.54-11.3 4.09 8.506-10.47 10.508-26.15 21.725-33.697h.042Zm-125.764-24.019c1.668-5.17 10.174-18.681 14.553-22.1 7.214-5.629 15.512 3.294 23.268 3.544 1.543 10.342-13.511 13.302-20.266 17.722-1.876 1.251-17.597 14.97-18.389 14.095 1.126-4.004-.375-9.508.834-13.302v.041Zm-21.392 24.144c-16.804 4.003-35.193 14.432-51.79 17.852-3.71.75-13.343 1.2-16.346-.51-.542-.33-.667-1.87-1.417-2.37-.584-.42-1.835.33-2.044.12-3.294-2.87-.708-13.549.918-17.135.709-1.543 10.758-9.383 12.51-10.3 18.389-9.299 49.413 2.502 67.76 9.591 1.793.709 2.919.959 4.087 2.752h-13.678Zm22.851 23.972c-.166 2.01-1.459 3.13-1.709 4.55-.209 1.25-2.627 16.8-5.171 15.3-3.711-4.96-4.545-12.13-2.627-17.97.542-1.71 7.923-14.8 9.424-12.76-.25 3.55.375 7.38.083 10.88Zm41.366-26.474c.875-.667 2.793 0 3.878-.667 1.668-.959 6.713-6.463 9.924-7.881 4.545-1.96 33.359-1.918 34.86.208 1.501 2.127-5.671 8.757-7.964 9.508-5.254 1.709-20.516 1.125-27.48 2.376-6.839 1.21-13.427 4.462-20.474 5.171 1.585-2.293 5.087-7.172 7.172-8.757l.084.042Zm-2.669 68.014c-6.13-5.22-7.339-17.27-3.419-23.94l-2.252-1.12c3.503 0 2.585-9.34 3.419-12.56 8.673 9.18 3.461 26.19 2.252 37.62Zm43.367 26.81c-1.96-1.38-.084-10.59.458-12.84.918-3.76 3.044-10.68 4.42-15.39.376-1.38 1.46-5.21 3.128-5.42.834 10.63 5.462 29.81-7.965 33.61l-.041.04ZM169.314 826.784c-9.215 1.001-17.972 4.628-26.02 9.048-5.671 3.086-16.972 13.636-21.517 15.221-2.794.959-5.796.375-8.548 1.459-6.422-3.753 5.254-27.98 4.045-29.314-8.382-1.043-12.969 18.097-13.552 24.644-1.335 14.511 17.138 13.552 26.353 8.381 14.428-8.089 17.514-14.177 35.403-19.431.959-.292.792-1.877 1.417-1.96 2.294-.25 13.344.917 15.179 1.668 8.256 3.502 1.793 34.026.375 40.948-1.293 2.961-12.426 9.007-16.096 12.385-2.794 2.585-9.966 10.508-11.425 13.635-4.045 8.548-2.168 23.518 10.425 19.515 4.503-1.459 10.633-10.049 13.051-14.303 2.294-4.044 8.799-20.724 10.675-22.309.292-.25 5.296-3.669 5.588-3.794 4.253-1.835 20.391-3.461 24.477-2.127 1.001.334 6.505 4.587 7.047 5.504 1.835 3.128 5.713 17.681 6.797 22.184.25 1.043-.625 2.752-.25 4.254 1.459 6.213 2.502 17.18 10.008 17.972-4.129-23.727-1.335-61.423-35.57-59.088-2.46.167-15.303 3.92-15.72 3.211 5.754-22.35 10.091-51.164-22.059-47.661l-.083-.042Zm2.21 75.141c-2.21 3.878-5.379 8.257-8.632 11.301.251-6.38 4.295-10.592 8.549-14.804 2.71 2.085 1.125 1.71.125 3.503h-.042Z"/><path d="M153.427 865.648c6.463-1.335 8.798.458 10.591 6.588 7.172-3.711.834-11.175-3.753-13.927-6.588-3.92-10.049-3.795-16.638-.167-4.378 2.377-6.922 7.172-10.091 9.591-1.918 1.459-4.587 2.001-6.546 3.461-7.339 5.421-9.091 11.008-20.058 8.548-11.467-2.544-12.384-12.385-16.47-21.183l-2.836.792c-3.67 11.718 7.339 29.523 20.14 29.606 4.337 0 29.857-8.631 33.36-11.634 4.461-3.794 5.42-10.216 12.301-11.634v-.041ZM103.012 903.719c3.211-.375 7.464-4.879 3.211-6.255-3.794-1.209-7.506-.5-12.134-2.669-5.213-2.502-9.466-8.423-12.301-13.385l-3.253 1.042c.834 9.758 15.053 22.309 24.519 21.225l-.042.042ZM79.953 844.131c.626 5.712 6.13 7.047 6.297 2.126.125-2.96-2.961-4.211-.96-7.089-4.086-1-5.837.876-5.379 4.963h.042ZM206.926 447.783a3.675 3.675 0 0 0 3.669 3.67 3.648 3.648 0 0 0 3.67-3.67 3.648 3.648 0 0 0-3.67-3.669 3.648 3.648 0 0 0-3.669 3.669ZM148.131 405.001c-2.752 4.461 2.836 10.091 6.714 2.752-1.043-1.96-5.213-5.171-6.714-2.752ZM49.304 736.673c-9.007-15.721-29.231-16.471-41.115-3.128-8.799 9.925-10.508 27.689-2.127 38.363 1.251 1.585 6.046 5.755 7.798 6.339 7.256 2.46 19.724 3.669 26.437-.626 11.342-7.255 15.47-29.689 9.007-40.948Zm-16.096 36.111c-11.092 2.502-23.601-.125-25.311-12.968-2.043-15.429 10.258-32.4 26.812-26.187.292.125.417 1.126.834 1.376 1.46.792 3.294.208 4.754 1.543.417.375 4.92 8.923 5.046 9.757 1.417 7.298-3.962 24.644-12.177 26.479h.042Z"/><path d="M32.541 760.149c-2.335 2.585-8.715 3.67-12.217 3.753.083 1.042-.292 2.21.25 3.211 4.211 7.297 23.226-5.171 18.597-12.343-2.46-3.795-6.171 4.837-6.63 5.379ZM267.764 53.27c13.302 2.127 28.522 12.176 24.686 27.396-2.085 8.298-15.095 12.552-22.601 10.758-.417-.083-7.214-2.752-7.589-3.002-1.001-.667-1.459-1.918-2.419-2.585-1.501 8.673-.875 17.68-6.671 25.061-7.715 9.841-15.929 7.13-23.435-1.084-.334-.334.584-1.376.5-1.543-.333-.626-2.085-.667-2.71-1.585-3.086-4.587-6.046-10.174-6.63-15.804-3.962-1.042-7.464 5.963-8.715 2.044-8.715 3.21-15.596-4.796-21.809-9.758-1.876-15.929 11.384-29.981 27.23-31.066 1.292-1.5-7.506-8.464-8.632-10.007-8.548-11.926-1.46-24.31 13.677-22.81 10.175 1.001 18.556 8.966 23.81 17.264 2.502-3.086 5.129-6.046 8.173-8.548 7.297-5.922 24.185-14.47 31.066-4.379 6.88 10.091-8.84 25.853-17.931 29.606v.042Zm13.552-23.852c-7.088-6.63-22.809 5.296-27.104 11.3-2.21 3.086-2.961 7.757-5.796 10.634.667 6.588 20.307-5.38 22.476-7.13 5.212-4.296 7.714-8.84 10.424-14.804Zm2.419 43.075c-4.003-9.34-15.929-9.882-24.477-10.466-.584 3.294-1.335-.042-2.711 1.376 2.002 3.044 2.085 7.798 1.126 11.3 3.503 1.501 4.921 4.462 7.798 6.38 4.628 3.128 15.804 3.086 18.764-2.502.125-.25-.375-5.838-.5-6.088Zm-44.66-20.349c.167-3.711 2.627-7.547.834-11.8-2.835-6.589-18.722-17.973-24.143-10.634-1.835 2.502 1.835 9.674 3.794 11.718 1.043 1.084 14.887 10.883 16.638 11.759 1.168.584 2.294 1 3.628.667.792-.375-.751-.96-.709-1.668l-.042-.042Zm11.217 26.02c-1.584-2.752-5.629-5.087-6.713-8.673-4.42 11.175-16.846 10.466-12.468 24.102.667 2.126 4.378 9.34 5.838 10.842 1.459 1.501 3.169 2.919 4.92 4.003 8.006-.084 9.966-27.522 8.382-30.274h.041Zm-50.789-2.168c-1.126 12.426 16.221 10.717 22.434 3.336 2.377-2.836 6.755-10.675 9.633-14.803 1.918-2.794 1.459-3.962-2.085-4.754-.668-.167-12.51.96-13.594 1.168-7.423 1.626-13.427 6.338-16.805 13.177-.375.75.459 1.417.417 1.834v.042ZM17.113 754.728a2.71 2.71 0 1 0 0-5.42 2.71 2.71 0 0 0 0 5.42ZM31.416 750.391a2.71 2.71 0 1 0 0-5.42 2.71 2.71 0 0 0 0 5.42ZM1822.06 251.34c.8-.751 3.97-.709 4.84-2.544l2.75 6.63-7.79 2.419c-.63-1.627-1.01-5.296.2-6.505ZM1470.67 803.182c2.42 1.794 5.25 2.336 7.92 3.503 0 3.545-5.25 2.627-7.67 3.711-11.09 5.004-18.1 15.512-16.31 28.231 2.38 16.971 33.86 21.85 47.54 17.805 5.05-1.501 7.17-4.545 11.8-5.88l2.54 18.807c3.47 5.379 3.76 15.762 7.39 22.225 4.37 7.798 11.88 11.384 18.59 3.961.88-1 5.3-7.505 6.01-8.84 9.55-17.972.66-34.235-7.13-50.997 4.38 3.252 9.67 4.378 14.51 6.505 1.33.583 1.46 2.126 1.67 2.21 8.42 3.502 23.01 6.963 32.06 4.878 20.14-4.628 16.68-17.221 8.18-31.858-7.72-13.218-28.4-33.609-45.04-28.48.29-4.712 4.17-7.964 5.17-12.468 4.55-19.807-9.17-41.949-31.48-37.153-4.71 1-4.5 2.335-7.21 4.753-1.09 1.001-2.67 1.418-3.55 2.711-4.63 6.588-7.51 20.599-6.3 28.522-3.33-3.336-6.13-7.089-9.71-10.217-9.3-8.089-22.69-13.343-35.11-10.966-16.43 3.127-14.55 20.098-8.47 31.732.96 1.835 8.05 12.468 9.05 13.177.29.209 1.59-.917 1.88-.75.46.333 1.54 3.252 3.71 4.878h-.04Zm58.63 29.148c8.29 17.972 22.6 40.198 4 57.002-4.38-17.638-15.14-40.197-4-57.002Zm-1.92-21.934c1.04-.625.83-4.461 4.79-3.169l.55 2.252c.83-1.209 2.83-1.668 3.62-2.669.8-1.042.75-2.877 2-4.211 6.51-6.964 10.18-9.716 20.4-8.632 13.96 1.543 34.56 23.685 37.77 37.195 2.8 11.676-12.13 13.094-20.47 11.468-10.05-1.96-43.87-17.139-49.66-24.561-7.22-9.257-1.71-6.088.96-7.673h.04Zm-2.63-57.294c6.17-6.171 17.68-1.167 19.6 5.963 5.09 18.765-4.92 25.061-15.72 38.196l-9.05 6.505c-.21-13.385-4.8-40.74 5.13-50.706l.04.042Zm-27.4 62.131c4.51.543 7.97 3.67 12.39 4.462l3.71 14.887c1.88 8.006-10.97 14.97-17.3 15.845-8.05 1.126-32.24-2.502-33.07-12.968-.08-1.126 2.88-10.884 3.54-11.968.21-.333 5.13-5.17 5.47-5.379 2.71-1.626 21.68-5.337 25.26-4.92v.041Zm-20.47-17.138c-1.5-.959-9.59-8.34-10.47-9.507-1.75-2.335-6.21-11.551-6.75-14.428-3.17-16.638 14.93-12.718 24.85-8.798 16.31 6.421 26.94 27.146 25.98 44.117-10.88-5.629-22.85-4.378-33.61-11.384ZM1893.9 708.568c1.87-5.129 2.13-17.18 7.3-19.598 5.71-2.711 14.38 3.919 19.18-4.587-1.75-2.419-3.05-7.214-5.22-8.132-2.5-1.042-7.33-1.834-10-1.251-3.05.668-3.51 2.502-4.55 2.836-7.8 2.669-24.68-1.043-32.4 6.672-1.96 1.96-1 4.753-5.34 5.504-3.54 10.883-5.37 25.395-11.25 35.11-4.67 7.631-20.81 4.462-17.06 13.261 1.09 2.585 16.14 3.836 19.22 3.502 19.85-2.043 33.45-14.969 40.12-33.317Zm-23.56 17.347-11.22 3.252c11.18-14.678 4.55-41.198 29.69-40.156 1.34 1.001-2.04 11.384-2.75 13.719-3 9.674-7.63 16.847-15.68 23.185h-.04ZM1503.78 14.408c1.08 12.342 12.42 29.189 21.93 36.778 6.34 5.045 27.81 5.796 33.32.459 3.5-3.461 4.5-13.844 3.25-18.473-1.67-6.255-10.92-14.428-17.26-15.512-13.39-2.293-5.97 4.045-13.47 9.966-7.47-4.67-3-14.053 3.96-16.554 12.3-4.379 30.31 5.92 34.86 17.722 2.17 5.67 1.13 20.182-1.75 25.353-4.46 7.964-29.73 9.34-37.86 7.38-6.34-1.543-17.89-12.76-21.9-18.014-7.34-9.59-13.55-24.769-12.59-37.862h8.13c-.66 3.085-.87 6.171-.62 8.757ZM1565.99 1070.39c-14.43-6.55-33.52-8.51-48.66-3.21l1.17 2.25c-7.97.21-12.47 7.88-14.1 15.6h-8.13c.17-2.55.63-5.05 1.38-7.39 1.75-5.33 2.5-5.08 5.58-8.63 14.97-17.47 40.87-16.68 61.18-9.59 12.05 4.21 25.39 14.18 34.19 25.61h-12.43c-6.59-6.43-14.13-11.93-20.18-14.68v.04ZM1587.05 75.955c-4.17.459-11.55-.542-3.88-3.544 3.17-1.251 9.13-2.71 11.34-5.213 1.63-1.876 1.71-4.712 2.76-6.713.54-1.084 2.08-1.126 2.54-2.294 2.58-6.672 3.17-25.436.88-32.233-2.21-6.463-7.89-13.844-14.52-20.307h12.43c2.75 3.544 5.05 7.255 6.76 10.967 8.29 18.389 6.83 56.585-18.31 59.337ZM1787.58 29.21c-7.97 5.63-25.61 9.008-34.15 15.054-2.26 1.584-2.84 3.544-3.67 6.005l-6.51.083c-3.42-5.38.29-9.59-.46-16.012-.96-8.382-5.79-18.556-8.67-28.648h9.42l9.26 27.73c6.51-2.877 12.55-6.505 19.1-9.382 5.13-2.21 8.17-1 12.26-7.172 1.25-1.877.12-8.84-.84-11.175h8.55c4.34 7.338 4.01 17.68-4.33 23.56l.04-.042Z"/><path d="M1761.89 12.781c-1.08-.083-1.54-3.085-2.08-7.172h7.59c-.96 3.044-2.55 5.921-5.51 7.172Z"/><path d="M1782.95 4.9s-.83.542-1.42.75h-.5c-.25-.166.13-1.542-1.96-2.001-3.75-.834-7.34.25-10.84-1.084-.21 1-.46 2.043-.79 3.044h-7.59c-1-7.923-2.3-19.932-9.05-22.768-2.71-1.126-4.75-.333-7.46.542-2.01 6.547-2.17 11.51-1.05 18.306l1.3 3.92h-9.43c-2.17-7.715-3.21-15.345-.5-22.142.46-1.168 1.67-1.251 2.17-1.877 2.67-3.628 1.29-4.211 7-6.13 15.52-5.254 23.31 12.177 25.4 24.811 10.34-6.296 19.39-2.001 23.73 5.338h-8.55c-.17-.376-.29-.667-.42-.75l-.04.04ZM1782.95 1084.32s-.83.54-1.42.75h-.5c-.25-.17.13-1.55-1.96-2-3.75-.84-7.34.25-10.84-1.09-.21 1-.46 2.04-.79 3.05h-7.59c-1-7.93-2.3-19.94-9.05-22.77-2.71-1.13-4.75-.34-7.46.54-2.01 6.55-2.17 11.51-1.05 18.31l1.3 3.92h-9.43c-2.17-7.72-3.21-15.35-.5-22.15.46-1.16 1.67-1.25 2.17-1.87 2.67-3.63 1.29-4.21 7-6.13 15.52-5.26 23.31 12.17 25.4 24.81 10.34-6.3 19.39-2 23.73 5.34h-8.55c-.17-.38-.29-.67-.42-.76l-.04.05Z"/><path d="M1780.99 5.61h.5s-.37.083-.5 0ZM1650.93 883.954c4.42 9.132 4.84 18.848 0 27.771-3.5 6.463-15.3 14.344-21.97 16.763-2.25.834-10.68 2.669-10.64-.334-6.79 2.961-12.59-3.294-18.89-3.544l1.13-2.252c-7.46-1.626-13.43-14.97-15.14-21.975-.87-3.628-.12-8.59.34-12.259 4.12-3.503 6.04 10.466 7.13 12.801 1.54 3.461 7.84 13.802 10.8 15.721 15.18 9.757 33.73.875 42.03-13.136.21-7.297.54-15.261-4.3-21.475-1.7-2.21-10.17-6.546-12.96-6.963-3.21-.459-15.56.333-17.93 1.626-5.13 4.879-1.96 20.141 3.5 22.768 11.67 5.587 5.84-9.591 6.55-11.426 2.33-6.13 7.38 3.795 7.38 8.59-.05 10.883-12.85 11.926-19.98 6.255-6.67-5.296-8.71-23.226-2.54-29.314 2.88-2.836 19.47-4.921 23.98-4.337 9.38 1.209 17.34 6.005 21.51 14.678v.042ZM1600.89 743.762c24.61-10.425 43 28.438 19.35 39.28-22.43 10.299-45.41-16.93-40.11-38.905 1.29-5.338 5.13-8.799 5-15.012 0-1.918-4.25-15.136-5.46-16.179l-13.89-6.713c-3.08 2.001-16.84 6.213-17.51 8.298-3.13 9.507 16.05 26.562 22.27 18.264 2.33-3.128-1.42-9.674-3.88-11.134-1.67-1.001-4.04.709-5.5-.959l-.09-2.919c3.88-7.506 15.72 3.211 15.68 10.3-.08 10.424-8.88 13.51-17.89 9.716-5.04-2.127-5.71-4.087-8.88-7.631-.88-.959-2.38-1.126-3.5-2.752-3.71-5.255-4.13-10.884-2.38-17.014 11.38-5.17 16.93-12.509 29.82-7.047 9.96 4.212 14.47 10.8 16.05 21.559 1.79 12.134-4.67 15.178-4.34 24.81.13 3.878 3.55 16.096 5.72 19.099 4.62 6.296 18.22 12.259 25.97 9.09.63-.25 7.43-6.63 7.68-7.131 2.62-5.045-2-17.555-6.26-21.058-3.83-3.169-9.05-2.96-13.68-3.502l-1.87 3.586 1.37 9.507c-5.92-3.252-8.42-10.258-3.67-15.595v.042ZM1601.68 595.731c15.68 3.878 20.52-16.888 35.99-16.263 6.92.251 8.26 9.716 9.3 10.133 11.84 4.796 20.68-1.96 24.39-13.135.5-1.501 3.38-11.884 3.42-12.51.42-6.088-3.33-11.55-9.21-13.135 0 5.505 0 12.885-6.47 14.553-13.42-2.669-34.56-10.383-46.74-1.584-6.67 4.837-11.8 23.851-10.68 31.941Zm42.25-23.268 17.51 3.419c2.96.918-4 7.715-4.5 7.798-2.67.584-6.01-1.751-6.18-4.67l-6.83-6.547Zm-34.24 15.929c1.38-5.254 3.17-12.968 7.26-16.68 4.25-3.878 5.96-2.126 10.5-2.168 4.17 0 7.8.5 12.6 1.585 2.04.458 3.25-.793 2.71 2.418-7.84-3.044-16.14 1.126-22.77 5.171l-10.26 9.632-.04.042ZM1653.56 802.723c.62 11.885 8.63 27.688 9.8 39.322.37 3.962-4.46 6.047-2.21 11.801 6.88 3.545 8.05-2.835 11.34-4.92 1.63-1.001 4.04-.834 6.05-1.918 10.59-5.755 11.67-23.185 12.88-33.818.46-4.045-.87-9.841-.04-13.969.92-4.671 10.8-22.851 7.71-25.103-1.91-1.418-4.04-.584-5.75.542-2 1.251-4.09 4.253-7.26 5.629-3.79 1.627-9.21 1.752-13.05 3.128-8.59 3.086-20.06 8.59-19.51 19.348l.04-.042Zm7.63-2.668c1.25-5.505 19.68-9.549 24.89-9.883-5.92 14.553.5 35.903-8.17 49.413-.5.792-3.29 3.336-4.38 4.128-.08-6.463-5.71-13.218-7.67-19.139-1.08-3.295-5.3-22.017-4.71-24.519h.04ZM1495.35 491.275c.67 4.087-1.91 11.801 2.92 14.219 6.17 3.086 4.92-9.006 7.97-11.425.67-.542 9.13-2.961 10.84-3.419 6.84-1.71 19.43-.668 18.43-11.009-.79-8.173-8.76-15.929-17.01-12.092-.25-13.094-16.81-18.932-25.56-10.175-8.68 8.715.83 24.06 2.41 33.859v.042Zm1.71-25.394c.17-.709 1.05-.626 1.51-1.085 2.16-2.335 5.04-4.962 8.59-2.376.83.625.7 2.376 1.2 3.044 3.13 4.169.8 2.46 1.67 5.546.54 1.959 4.01 3.377 1.63 6.796 7.71 2.294 7.5-4.42 9.3-5.462 4.5-2.669 9.63 5.838 8.92 10.049-9.55 1.168-18.55 1.251-27.35 5.713.58-4.92-6.55-17.764-5.47-22.184v-.041ZM1771.98 763.152c-1.91 1.668-4.75 7.505-7.13 9.59-3.75 12.927-4.17 24.269 12.93 21.85 2.79-.417 13.39-8.047 14.89-10.174 4.21-6.088 2.75-19.14-3.96-23.143-3.76-2.252-13.56-.876-16.73 1.877Zm11.64 4.336c3.88-.083 2.79 15.054.21 17.806-1 1.084-8.97 3.711-10.39 3.461l-2.42-2.044c-2.41-6.88 5.18-19.056 12.6-19.181v-.042ZM1464.37 711.445c18.22 4.921 34.4 2.169 51 5.087 1.96.334 4.46-.125 4.21 2.336-.5 5.003-4.21 4.712-8.55 5.129-10.96 1-33.27-1.21-44.07-3.67-3.59-.834-19.39-5.838-21.14-7.964-.46-.543-1.46-4.17-1.34-4.712 1.21-5.088 16.64 2.96 19.89 3.836v-.042ZM1585.09 454.663c1.42-6.88 8.01-15.303 10.8-21.057 5.21-10.592 6.26-10.842 16.39-16.221.62-.334.75-1.668 1.17-1.877 3.25-1.501 11.71-4.336 15.17-4.753 4.22-.501 9.18 0 11.81 3.794-9.39 8.715-22.9 6.172-31.28 16.596-3.13 3.878-11.3 18.932-12.84 23.727-3.21 10.174.83 29.106 5.13 38.571 15.63 34.485 80.18 38.488 87.44-1.376 1-5.462-1.67-19.723-4.09-24.727-.25-.542-8-8.423-8.63-8.799-.29-.166-5.17-2.877-5.46-3.044-12.72-5.545-30.27-5.212-42.28 1.794-3.01 4.92 2.91 15.97 6.33 19.932 11.64 13.593 28.19 6.671 14.81-9.633 11.51-5.337 17.34 18.264 9.38 22.768-7.92 4.42-21.52 3.211-28.4-2.586-1.25-1.042-8.34-12.092-9.3-14.052-9.88-20.599 5.05-27.521 23.23-28.856 32.57-2.46 58 14.595 55.04 49.58-.83 10.091-4.21 12.426-9.71 19.057-.21.25.71 1.459.46 1.751-11.1 12.134-38.08 18.389-54.05 15.845-9.71-1.542-17.13-5.837-25.18-9.048-1.55-.626-9.76-9.216-10.89-10.592-11.17-13.468-18.68-39.28-15.09-56.71l.04-.084ZM1704.97 529.179c-4.25 1.96-11.51 4.003-9.55-3.294 2.3-2.544 8.09-2.627 9.97-4.212 12.01-10.133 21.43-44.701 14.26-58.587-.62-1.209-1.83-1.96-2.71-2.96 4.17-4.754 8.8 2.043 10.13 5.837 5.84 16.305-5.42 55.502-22.06 63.216h-.04ZM1742.63 529.555c2.25 5.504 13.97 5.879 18.47 4.086 10.93-4.336 15.39-21.475 17.26-31.899.46-2.669.42-13.553 1.51-14.97.54-.709 4.71-1.96 6.33-3.878 7.26-8.465 8.63-27.813 7.97-38.739-.38-6.129-.67-19.056-7.76-19.89.42 1.376 1.46 2.919 1.63 4.337 1.12 10.633 1.46 28.397-.75 38.78-.42 1.918-4.3 10.55-5.3 11.092-2.25 1.292-1.75-1.251-1.96-2.127-2.42-10.175-.37-15.262-7.88-24.352-8.38-10.175-25.39-13.385-30.94 1.042-5.46 14.095 8.09 27.98 20.1 33.193 2.79 1.209 11.59 1.334 12.43 4.253.45 1.668-4.51 22.767-5.72 25.394-5.79 12.468-11.76 15.429-25.31 13.678h-.08Zm26.44-47.871c-5.51-1.501-17.6-9.34-20.44-14.344-7.8-13.844 5.59-25.812 17.27-13.844 7.29 7.506 9.04 18.556 7.5 28.48-1.37-.25-3.08.042-4.38-.292h.05ZM1743.88 414.258c-.17-.334-1.63-.084-1.71-.793-.29-2.001 1.83-8.923.79-10.716-10.34-4.795-20.72-4.587-19.14 9.34.92 7.881 3.75 11.634 12.05 12.093 5.59.292 10.51-5.379 8.01-9.924Zm-7.63-4.796-1.17 7.965-3.34-.084c-1.54-3.419-1.5-6.463 1.63-8.965l2.88 1.043v.041ZM1752.89 739.508c-1.59 2.419-3.55 3.42-2.84 7.756 1.21 7.506 5.34 9.049 12.43 6.881 2.96-.918 3.75-3.753 5.75-5.588 1.29-1.209 3.75-.876 4.55-2.585 1.87-4.003.04-10.717-2.8-14.011-6.17-7.131-13.51 2.126-17.09 7.547Zm11.3-2.919c5.12 6.172-.13 10.05-6.26 11.384-.75-5.212 2.84-8.214 6.26-11.384ZM1536.68 136.626c-2.05-2.877-2.84-12.301-.75-15.178 2.25-3.086 12.76-3.002 15.05-.334 2.67 3.128 4.46 14.22.25 16.763l-7.13 2.586c-.83-4.128-5.75-1.501-7.42-3.878v.041Z"/><path d="M1436.39 676.168c14.39-.709 28.31 2.502 42.41 4.879 23.39 3.919 42.36 7.172 66.72 8.298 21.72 1 43.78-1.71 64.8-1.168 2.21.042 4.58 2.043 6.67 1.793.75-.083.62-2.127 1.46-2.335 3.25-.751 8.09.709 11.76-1.126.71 3.211-3.38 2.961-5.3 4.962-10.3 10.467-4.21 25.937.79 37.196l2.21-1.126c-.12 4.962 9.76 13.927 13.76 15.345 1.88.667 10.35.542 12.56.125 5.5-.959 9.34-8.256 10.55-13.427 3.79-16.513-10.89-33.025-17.43-46.536 3.12 1.043 4.79-2.001 5.08-2.085.38-.083 1.96 1.084 3.17.709 7.22-2.001 13.97-5.379 21.35-6.63 1.29 9.507.54 18.598 3.5 27.855 3.76 11.801 10.76 18.723 19.6 26.478 23.31 5.546 21.14-14.135 17.14-30.189-2.42-9.633-7.8-20.224-15.09-27.021-2.46-2.335-6.34-1.96-5.76-5.088 3.17-1.209 6.76-1.959 9.8-3.377 2.42-1.168 2.75-3.253 2.96-3.336 1.59-.626.17 1.042 4.05-1.251 3.42-2.002 7.04-3.878 10.59-5.713.91 1.376.08 6.38.29 6.63 4.5 6.13 9.13 15.304 15.64 21.308 1.41 1.335 11.05 9.049 11.76 9.341 6.25 2.627 17.51-.083 21.22-6.088 4.92-8.006 3.63-16.221-.75-24.019-.96-1.668-5.88-8.923-7.01-10.091-6.21-6.463-16.3-9.215-25.1-8.506-1.12-1.001 3.8-7.131 4.71-8.34 3.71-4.879 9.14-8.09 12.64-14.803 7.38-14.053 9.42-37.112 3.71-52.04-2.46-6.38-13.47-24.769-21.77-18.348-11.3 25.353-4.83 53.25-6.17 79.895l-9.8-20.391c-6.88-13.343-19.47-22.517-35.19-19.473-6.84 1.335-10.51 12.718-8.8 19.015 4 14.886 19.06 29.231 29.81 39.739.96.917 1.67 1.042 1.17 2.752l-18.18 9.174c-1.54-12.677-7-24.895-16.89-32.984-7.59-6.213-25.98-16.805-30.35-2.252-2.51 8.34 8.71 33.026 14.13 40.073 2.05 2.668 6.51 2.335 8.01 5.379l-25.06 5.713c-.13-20.933-11.01-56.794-39.03-44.368-6.76 3.002-9.51 19.348-7.63 26.354.12.458 3.54 6.088 4.17 7.422 2.5 5.629 4 11.676 8.25 16.221l-73.35 1.042c-28.73 1.376-60.46-10.716-88.31-9.882-3.8.125-8.76 0-9.39 4.253l-.08.042Zm303.23-98.618c.59-7.005 4.26-14.178 3.47-21.016l5.67 5.421c8.09 12.676 7.84 28.855 3.17 42.741-2.3 6.88-5.84 12.176-9.43 17.972-1.58-14.886-4.17-30.023-2.88-45.076v-.042Zm-6.79 72.431c7.46-2.294 18.8 1.543 24.02 7.297.66.709 5.75 7.381 5.96 7.798 2.54 5.129 2.17 15.929-6.34 14.344-8.01-1.501-22.85-20.891-23.64-29.439Zm-44.33-47.245c.17-1.376.38-2.71 1.29-3.836 10.6-4.837 20.77 7.047 25.69 15.387 1.79 3.044 11.05 24.268 9.22 26.353l-7.63 2.252c-6.47-8.965-29.9-28.772-28.57-40.156Zm-2.38 72.89c.26-1.335.34-2.252 1.8-2.794 2.58-.834 5.96 1.668 7.71 3.461 1.17 1.167 8.72 13.052 9.3 14.594 1.25 3.378 6.34 26.98 3.92 28.564-3.96-.167-8.3-3.294-10.88-6.171-4.84-5.338-8.88-12.927-10.26-19.974-.54-2.835-2.04-15.262-1.63-17.722l.04.042Zm-15.97-8.59c-2.25-14.553-16.76-25.27-15.97-41.032 15.39 5.504 29.73 20.349 28.03 37.696l-12.06 3.336Zm-36.27 27.73c.37-.292 7.34-2.669 8.84-3.795 1.41 5.129 5.63 9.966 7.71 14.511.71 1.543 3.21 6.964 3.34 7.381 1.41 6.088 1 24.143-8.72 19.64-4.46-2.043-15.64-17.18-16.84-21.892-.67-2.544-.59-5.838.25-8.34.2-.667 5.08-7.255 5.42-7.547v.042Zm-27.65-51.123c2.42-4.254 5.42-6.13 10.3-4.295 7.05 2.627 11.63 12.76 12.84 19.973 1.05 6.255.38 12.885 1.96 19.14l-13.51.918c-3.13-11.468-18.47-23.685-11.63-35.695l.04-.041Z"/><path d="M1584.09 640.724c-.75-.084-6.84-2.043-7.21-2.419-2.46-2.71-2.05-12.176-.59-15.428 1.96-4.337 6.59-3.169 10.38-3.545 2.88 2.127 2.09 14.762.88 17.639-.08.25-3.21 3.794-3.46 3.794v-.041ZM1545.43 659.155c-3.37-3.086-3.5-8.465-2.21-12.593 1.55-4.754 2.67-2.294 3.47-2.669.33-.125.25-1.501.45-1.626.38-.167 7.47 1.084 7.76 1.334 4.04 3.044-.17 11.509-2.21 14.928l-7.3.626h.04ZM1345.74 546.234c-4.46 4.504-5.01 13.344-3.13 19.057 1.63 4.962 12.05 21.808 15.8 25.228.88.834 3.09.792 3.63 1.542.84 1.126.25 4.379.84 6.047 3.87 11.008 7.34 18.848 14.92 27.771 3.72 4.337 12.68 12.969 18.1 14.386 2.5.626 15.85 1.168 18.22.501 4.01-1.085 12.39-8.799 13.1-13.094.75-4.545 1.58-12.593-4.51-11.884 1.21 15.47-15.88 20.141-27.31 13.052-6.13-3.795-24.39-28.23-22.72-35.111.16-.625 1.54-2.21 2.12-1.876.17 3.336 5.84 5.129 8.68 5.588 1.41.208 7.33 1.042 6.17-1.585-2.96-6.63-14.68-11.008-15.89-21.767-1.25-11.342 4.46-7.339 10.84-7.839 1.13-.084 2.17-1.001 3.34-1.084 12.88-.918 26.89.25 39.99-.834l1.08-2.044c4.25 2.836 9.05 5.296 11.8 9.841.63 1.001 5.13 10.967 5.26 11.676 1.25 6.755-6.68 11.384-12.18 12.968-7.55 2.21-21.06-5.462-20.27 8.799-1.79-.292-1.66-2.46-3.46-3.962-1.04-.834-7.17-4.878-7.92-4.044-.42 7.047 6.96 19.973 14.8 17.763 5.22-1.501 7.05-4.336 6.84-9.799 5.71 1.543 13.93.918 19.1-2.001.33-.209 5.75-4.212 6-4.462 9.89-10.341 0-31.233-10.63-37.07-2.54-1.418-7.3-1.835-7.59-2.127-.29-.334.29-5.504-2.29-8.215-1.96-2.043-4.92-1.292-5.88-2.71-.38-.584-1-11.384-.79-12.093 2.29-6.922 11.59-5.838 16.76-2.377 2.46 1.668 7.88 12.01 10.34 9.508.79-2.502-1.17-5.505-1.04-7.506.12-1.918 2.54-3.294 2.17-3.878-.09-.125-1.84.417-2.63-1.376-3.96-9.007 4.59-12.969 12.13-10.758 8.18 2.418 23.02 18.347 24.52 26.645.13.792.05 7.673-.12 8.048-.13.208-1.46.292-1.96 1.042-2.55 4.003-3.88 5.755-8.76 8.09-2.83 1.376-7.46 1.626-9.17 2.794-.42.292-6.42 6.964-6.63 7.631-4.42 12.301 12.42 32.775 5.21 41.657-1.5 1.876-4.13 2.71-5.42 5.129l-27.1-2.294c-3.17 0 2.83 6.38 4.25 7.131 5.79 3.044 22.85 4.837 28.48 2.001 1-.5 1.25-1.959 2.21-2.668 1-.709 2.42-.584 3.29-1.543 4.67-5.004 4.92-12.843 3.92-19.182-.58-3.794-2.96-7.922-3.92-10.508-2.29-6.338-5.75-11.634-3.5-18.514 2.38 1.626 6.67-3.294 9.42-4.795 2.34-1.251 5.17-1.418 7.55-2.711 11.55-6.338 11.51-21.183 5.59-31.566-6.42-11.259-22.81-24.727-36.57-22.184-4.13.751-5.25 3.503-8.8 4.295 1.13-7.464-8.51-25.102-15.05-27.688-11.34-4.503-22.27-3.21-32.86 2.169l-4.59 15.261c-3.38.543-6.42-1.501-9.67-1.709-12.34-.792-23.1 22.809-22.44 33.484-3.5 1.793-9.09 3.211-11.71 5.879l.04-.125Zm4.5 13.136c0-.543.59-6.964.84-7.256 2.5-2.752 13.59-3.086 15.42-10.133.67-2.585.21-5.171 1.13-8.048 2.67-8.465 6.92-19.765 17.47-17.972 9.26 1.585 18.1 7.172 20.68 16.429l4.38.209c.55-9.09-5.79-18.598-14.8-20.516 2.33-3.252 4.63-10.008 8.05-11.884 6.09-3.294 14.22-2.21 20.39-1.793v3.419l2.13-.959c3.91 7.464 12.42 14.636 10.46 23.727-14.05-4.462-23.39 3.419-22.89 17.638.33 9.007 1.42 9.049 8.05 14.261-12.8 2.169-26.57-.834-39.37-.041-1.66.083-13.05 1.834-13.67 2.251-7.18 4.671-3.84 18.64-1.34 25.27l1.92 1.042c.42 1.752-1.92 1.418-2.71 1.001-3.92-2.168-16.01-22.059-16.14-26.645ZM1531.26 609.7c19.8-6.922 36.86-30.065 35.11-51.498-.71-8.757-8.72-21.516-7.97-28.397.09-.667 2.34-8.256 2.71-8.673 5.55-6.505 20.64-3.795 17.68-12.885-1.79-5.421-12.92-2.836-16.26-3.044-2.21-.167-4.34-1.751-6.96-2.002-5.38-.5-13.89 1.835-18.43 4.712-7.43 4.629-15.56 21.267-16.85 29.857-1.67 10.883 2.67 21.266 2.46 31.899-.08 4.379-.87 9.591-1.67 13.928-7.54 6.463-15.68 13.135-25.48 15.637l-2.16 7.422c2.54-1.501 3.71 1.251 5.54 1.668 6.59 1.335 14.6.876 21.23 1.209 4 .209 3.88 2.711 11.05.209v-.042Zm1.5-15.595c-.71.417-6.17 2.835-6.55 2.961-1.54.416-6.67 1.876-7.71-.126 7.38-3.502 9.55-4.503 11.84-12.593 4.38-15.345-.29-25.311.63-39.905.91-14.845 10.59-31.9 27.43-31.275-.08 1.627-2.29 1.627-3.04 2.627-1.67 2.294-6.76 14.678-7.17 17.431-1.63 10.591 9 23.226 6.38 37.278-1.59 8.424-14.43 19.349-21.77 23.56l-.04.042Z"/><path d="M1391.94 591.811c-2.88-13.302 19.43-21.267 27.35-10.842-3.33 2.71-6.58-.25-11.42 1.084-.71.209-8.42 4.003-8.76 4.337-1.75 1.584-.96 5.963-7.13 5.379l-.04.042ZM1496.9 350.875c-2.63 7.547-7.93 13.552-10.93 20.975-6.63 16.512-16.51 44.742-17.05 62.089-.3 8.799 1.12 18.014 1.62 26.771l2.71-2.169c1.42-11.509.67-25.478 3.51-36.611 3.42-13.26 11.8-27.313 14.3-40.99 1.67-.334 1.21 1.376 1.5 2.543 4.42 18.932 7.38 40.573 19.85 56.377.58.751 4.75 5.713 5.13 5.838 1.08.417 2.37-1.042 3.04-.792.21.083-.33 1.793 3.3 2.919 3.83 1.209 13.71-.292 16.34-2.711 3.92-3.627 4.46-14.052 3.88-19.139-1.67-14.178-20.89-61.256-30.19-71.889-.88-1.001-2.13-1.335-3.25-1.835l2.17-6.922 13.59-15.679c-.21 3.253-1.04 6.338-1.04 9.633-.13 13.302 3.79 34.068 10.42 45.41.71 1.209 6.38 9.257 6.84 9.59 1.38 1.001 15.39 1.168 18.26.251.75-.251.88-1.668 1.17-1.877.38-.25 1.5.751 1.75.542 1.42-1.167 5.13-7.339 5.88-9.507 1.67-4.837 3.34-19.473 3.05-24.436-.13-2.293-1.46-10.132-1.96-13.01-2.46-14.678-8.8-29.356-15.89-42.282-.04-2.21 17.01-17.347 19.89-17.472 1-.042 7.71 2.877 7.96 3.252.55.876.25 2.627.92 3.211 1.29 1.21 4.21-1.417 2.3 2.252 8.08 7.881 10.17 20.808 15.17 30.899 5.76 11.634 16.27 26.062 24.27 36.111 1.67 2.085.13 4.837 3.34 3.002 5.25 6.38 17.85 7.381 24.56 1.835 10.05-8.298 7.05-19.473 1.54-29.689-9.96-18.556-24.39-34.277-40.49-47.579l-20.76-13.719c2.96 0 5.67-1.751 8.59-1.876 3.17-.167 22.68 2.627 25.31 3.753 1.54.667 1.46 2.418 1.62 2.46.42.167 4.59-1.001 8.34.292 7.22 2.418 9.8 7.13 13.97 11.384 1.04 1.042 6.55 2.627 8.59 3.669 14.81 7.548 25.23 12.343 42.58 9.716.37-.042 4.33-3.002 4.67-3.127 1-.251 2.37.833 5.21-.292 15.72-6.464 20.31-16.388 17.72-33.068-2.29-14.886-22.14-27.938-35.78-31.607-8.21-2.21-34.81-2.669-43.2-.918-12.38 2.586-30.35 9.466-43.03 15.929-2.17 1.126-3.42 3.295-5.71 4.545-2.09 1.085-16.06 8.299-16.76 7.756 10.29-25.269-1.3-66.426-20.52-84.94-7.51-7.256-31.53-16.888-39.61-7.089-.92 1.126-4.72 9.924-4.93 11.634-1.87 15.804 12.14 34.235 23.56 43.784 2.26 1.876 11.76 8.465 14.02 7.047 1.25 5.004 6.96 6.046 9.75 10.216 4.67 6.964 7.09 19.057 6.88 27.355l-24.47 19.306c-.84-3.711-2.67-7.631-4.42-11.008-8.72-16.638-20.27-32.108-38.74-38.78-8.22-2.961-40.45-5.713-47.79-1.752-7.55 4.087-5.04 14.47.21 19.682 8.05 7.965 13.55 6.38 22.22 9.716 5.97 2.252 13.89 8.382 19.44 11.175 11.01 5.546 20.43 9.091 30.23 16.68 8.96 6.922-8.05 19.765-12.55 25.061-4.38 5.171-7.76 11.134-12.55 15.971l-12.01-17.639c-7.68-9.591-22.48-14.803-34.41-16.888-13.17-2.293-39.86-3.002-46.41 11.384-.29.625-2.33 8.465-2.37 8.965-.75 11.092 10.63 15.554 18.8 18.723l1.67-2.252.5 2.168c10.47-1.417 22.23.709 32.99 1.627 1.2.125 2.46 1.417 3.75 1.501 9.3.709 20.01-3.836 27.89 4.462l.05.083Zm110.54-85.024 4.92-4.128c28.98-14.136 78.27-29.064 103.04-.084 3.71 4.337 6.42 12.343 5.5 17.973-1.71 10.716-15.55 15.72-25.31 16.846-21.35 2.419-35.4-12.593-51.71-23.143l-36.48-7.422.04-.042Zm-12.55 26.187c3-5.254 3.42-.5 3.67-.375.96.458 4.17 1.167 6.04 2.627 8.09 6.463 19.94 18.222 24.52 27.354l2.13-1.042c2.09 9.173 11.34 15.929 14.14 23.851 5.58 15.846-3.38 19.974-14.01 8.507-14.89-16.096-21.44-35.027-30.61-53.75-1.04-2.127-3.46-7.255-5.88-7.214v.042Zm-15.97-51.248c-7.09-7.339-14.39-14.97-24.19-18.264-4.92-4.837-11.05-9.341-15.26-15.262-5.29-7.422-10.51-17.68-5.04-26.437 2.96-3.878 18.22 2.711 21.64 5.88 1.08 1 .87 2.919 1.46 3.627.96 1.126 2.96.668 3.96 1.752 5.5 6.088 15.68 32.567 16.93 41.448.33 2.336.16 4.879.46 7.256h.04Zm-39.91 46.703c-6.04-1.46-9.5-6.547-15.18-9.299-9-4.378-17.59-9.049-26.6-13.385-1.79-.876-34.11-11.968-31.15-14.887 24.56-3.878 49 3.253 64.55 23.268 1.17 1.501 9.05 13.761 8.42 14.303h-.04Zm.63 28.563c1.12-1.751 3.08-3.085 4.5-4.628 3.5 5.379 6.01 11.467 8.51 17.805 3.25 8.215 6.54 18.098 7.5 27.855.3 2.877.38 15.178-.12 17.555-1.46 6.797-7.92 14.678-13.68 7.006-9.88-13.261-15.84-51.54-6.71-65.551v-.042Zm-33.15 44.41c.91 0 8 13.844 8.92 15.929 4.38 10.132 12.3 29.564 15.3 40.823 1.01 3.711 3.3 20.682-3.54 19.515-1.5-2.21-6-4.462-7.21-5.963-2.38-2.919-6.47-12.51-8.09-16.429-6.76-16.388-13.76-37.112-5.38-53.875Zm-9.68-23.977c-8.63-2.585-18.18-.751-26.64-1.293-11.8-.75-24.35-2.335-35.82-4.211-3.38-.542-8.63 1.376-11.14-3.628-1.66-3.294 1.59-9.841 4.55-11.467 2.38-1.335 4.09-.584 5.5-1.126 1-.376.96-1.835 1.21-1.877 1-.25 19.56-.583 20.56-.375.88.209.67 2.168 1.25 2.168 8.63 0 11.64 1.877 18.18 2.336 1.38 2.877 9.63 4.545 11.76 6.088 1.29.959 11.55 12.593 10.59 13.343v.042ZM1383.77 160.019l-1 2.085 7.96 2.877c-6.46 2.002-3.21 2.753-3.67 3.753-.08.167-1.96.584-2.79 2.252-4.59 9.215-4.67 15.72-6.05 25.77 4.21 3.086 4.38 10.675 7.92 14.678 9.18 10.258 31.03 4.962 39.95-3.753-2.12 3.628 2.09 12.259 4.51 15.178 1.04 1.251 6.63 2.669 7.58 5.296 3.47-2.335 5.47.459 7.89.667 2.29.209 10.84-5.546 12.3-7.756 6.54-9.882 5.58-20.849 1.92-31.607 12.42 4.962 24.51 7.422 27.85-8.549 3.5-16.763-3.29-25.853-18.56-30.982-2.29-.75-12.51-1.71-12.63-3.169 3.54-10.508 5.34-25.478 1.29-35.903-3.13-8.048-10.01-18.014-19.35-19.181-2.83-.334-8 1.626-11.46 1.167-7.05 9.925-5.22 22.393-3.67 33.943-7.01-5.129-24.06-6.505-31.9-3.711-1.21.417-8.26 3.795-9.09 4.295-.46.292-6.97 7.214-7.18 7.714-4.46 9.383-1.29 20.474 8.14 24.936h.04Zm72.01-3.586c3.92 1.334 8.68 1.585 12.39 3.002 11.46 4.295 8.46 11.051 8.04 20.892-3.04 3.502-18.64-6.714-22.81-7.548-4.92-4.128 3.22-10.967 2.38-16.346Zm-21.14 39.364c.04-1.543 2.67-14.345 3.46-14.303 2.34 1.877 2.3 4.378 3.63 6.589 1 1.667 3 2.168 3.75 3.461.42.708 3.71 8.339 4.05 9.382.12.333.58 6.88.5 7.255-.21.793-1.8.709-1.88.959-.58 1.71 1.17 4.838-3.46 6.505-1.46.501-6.38-2.877-6.84-3.544-.5-.667-3.25-15.012-3.21-16.262v-.042Zm.63-91.779 5.75 4.253c6.67 7.047 5.96 26.103 4.3 35.152-.25 1.376-.46 2.585-2.09 2.794 1.33-5.254-4-6.422-5.42-9.966-3.63-9.09-3.67-22.559-2.54-32.192v-.041Zm-40.41 79.895c3.88-8.298 12.09-10.592 19.47-13.552 3.17-1.293 5.51-3.92 9.47-3.67 1.25.959-.46 18.306-1.25 20.975-.79 2.585-3.88 6.671-5.05 7.964-14.01 15.637-31.44 7.089-22.68-11.717h.04Zm-8.72-37.237 6.55-9.675c4.46 1.418 13.64-2.084 17.89-1.084 1.33.334-.08 2.752 1.84 2.252l1.12-2.252c-.08 3.044 4.55 3.336 7.09 4.671 3.46 1.876 2.54 2.752 4.21 4.837.88 1.125 4.55 1.042 4.67 2.418.13 1.668-3.29 1.46-4.34.918l-.66 1.834c-7.13-4.253-18.6 6.505-23.94 5.796-6.13-.834-10.21-6.004-14.43-9.757v.042ZM1332.23 746.597l-1 2.085 7.96 2.878c-6.46 2.001-3.21 2.752-3.67 3.752-.08.167-1.96.584-2.79 2.252-4.59 9.216-4.67 15.721-6.05 25.77 4.21 3.086 4.38 10.675 7.92 14.678 9.18 10.258 31.03 4.962 39.95-3.753-2.12 3.628 2.09 12.26 4.51 15.179 1.04 1.251 6.63 2.668 7.58 5.295 3.47-2.335 5.47.459 7.89.668 2.29.208 10.84-5.546 12.3-7.756 6.54-9.883 5.58-20.85 1.92-31.608 12.42 4.962 24.51 7.422 27.85-8.548 3.5-16.763-3.29-25.854-18.56-30.983-2.29-.75-12.51-1.709-12.63-3.169 3.54-10.508 5.34-25.478 1.29-35.902-3.13-8.048-10.01-18.014-19.35-19.182-2.83-.334-8 1.626-11.46 1.168-7.05 9.924-5.22 22.392-3.67 33.942-7.01-5.128-24.06-6.505-31.9-3.711-1.21.417-8.26 3.795-9.09 4.295-.46.292-6.97 7.214-7.18 7.715-4.46 9.382-1.29 20.474 8.14 24.935h.04Zm72.01-3.586c3.92 1.335 8.68 1.585 12.39 3.003 11.46 4.295 8.46 11.05 8.04 20.891-3.04 3.502-18.64-6.714-22.81-7.548-4.92-4.128 3.22-10.967 2.38-16.346Zm-21.14 39.364c.04-1.543 2.67-14.344 3.46-14.303 2.34 1.877 2.29 4.379 3.63 6.589 1 1.668 3 2.168 3.75 3.461.42.709 3.71 8.34 4.05 9.382.12.334.58 6.88.5 7.256-.21.792-1.8.708-1.88.959-.58 1.709 1.17 4.837-3.46 6.505-1.46.5-6.38-2.877-6.84-3.545-.5-.667-3.25-15.011-3.21-16.262v-.042Zm.63-91.779 5.75 4.253c6.67 7.047 5.96 26.104 4.3 35.152-.25 1.376-.46 2.586-2.09 2.794 1.33-5.254-4-6.421-5.42-9.966-3.63-9.09-3.67-22.559-2.54-32.191v-.042Zm-40.37 79.895c3.88-8.298 12.09-10.592 19.47-13.552 3.17-1.293 5.51-3.92 9.47-3.67 1.25.959-.46 18.306-1.25 20.975-.79 2.585-3.88 6.672-5.05 7.964-14.01 15.637-31.44 7.089-22.68-11.717h.04Zm-8.76-37.237 6.55-9.674c4.46 1.417 13.64-2.085 17.89-1.084 1.33.333-.08 2.752 1.83 2.251l1.13-2.251c-.08 3.044 4.55 3.335 7.09 4.67 3.46 1.876 2.54 2.752 4.21 4.837.88 1.126 4.55 1.042 4.67 2.418.13 1.668-3.29 1.46-4.34.918l-.66 1.835c-7.13-4.254-18.6 6.505-23.94 5.796-6.13-.834-10.21-6.005-14.43-9.758v.042Z"/><path d="M1688.29 333.737c-3.54-.458-20.22-5.504-21.97-7.38-1.29-1.376-.75-4.045-1.88-5.796 9.22 2.335 19.48 5.796 29.07 5.796 7.88 0 18.55-3.503 26.89-4.128 20.56-1.502 47.83-.668 61.47 17.138 7.17 9.34 12.67 32.567 9.55 43.992-1.21 4.378-7.59 17.388-12.97 11.842 3.21-4.711 6.38-8.256 7.46-14.177 2.17-11.843-7.05-36.111-17.55-42.992-5.59-3.669-19.06-7.088-25.82-7.297-16.17-.459-39.4 4.962-54.25 2.961v.041ZM1742.79 116.277c10.18 19.015 4.67 38.238-6.75 55.334-3.38 5.046-9.76 12.26-15.72 13.386l.96 2.043c-6.26 3.711-12.97 6.505-19.48 9.382-3.87 1.71-2.96.626-4.83 1.251-.63.209-.42 1.793-1.3 2.002-3.17.792-11.34.083-15.22 1.209-.66-2.502 3.26-3.878 4.92-4.754 24.73-12.676 38.87-13.844 50.96-42.533.67-1.584 3.17-7.547 3.25-8.006.5-2.877.5-14.219.09-17.013-1.05-6.922-9.85-22.225-16.85-24.769l1-2.085-3.42-1.126c8.76-3.502 18.81 8.715 22.52 15.679h-.13ZM1629.46 142.339c10.42-1.501 13.38-10.758 11.63-20.182-3.34-18.014-10.55-23.06-28.73-18.89-1.96 3.003-5.13 2.252-7.88 5.213-3.13 3.419-1.5 6.838-4.92 8.506l3.29 15.471 2.25-1.126c1.09 8.048 17.43 12.009 24.36 10.967v.041Zm-16.02-27.771c2.13-2.711 7.8-1.835 10.55-3.628 2.01 3.461 7.51 3.503 8.47 8.465 4.25 21.934-29.4 8.298-19.02-4.837Z"/><path d="M1707.77 378.105c3.83 5.629 13.01 10.716 19.93 10.883 6.59.125 14.84-11.717 15.47-17.722.96-9.633-3.38-11.884-7.46-18.89l-2.01-.834c-2.79-.583-23.68 2.294-25.6 3.503-.42.25-5.38 7.589-5.46 8.215-.63 4.461 2.62 11.133 5.17 14.845h-.04Zm4.54-15.346c9.59-.166 20.1-7.839 19.43 7.423-.62 13.885-9.13 9.465-15.47 1.668-.54-.667-2.25-.834-2.54-1.376-.92-1.585.38-5.588-1.38-7.756l-.04.041ZM1643.18 163.648c-.63-.042-11.05.875-11.6 1.125-.33.126-4.63 5.255-4.88 5.838-2.33 5.213-.29 16.43 2.96 21.142 3.47 5.004 12.31 10.007 18.48 8.381 5.67-1.501 10.63-4.545 10.46-11.092-.08-2.71-4.17-16.763-5.63-19.181-1.37-2.294-7.17-5.963-9.79-6.213Zm4.17 25.353c-4.51 3.21-13.68-10.634-11.43-15.429 9.59-3.086 15.39 6.964 11.43 15.429ZM1727.2 218.481c2.21.584 13.55 5.296 13.59 6.881-5 4.42-12.3.208-17.76-.459-28.81-3.503-56.96-9.757-85.07.209-1.91.667-8.63 5.379-9.46 5.337-5.21-.208 3.75-8.715 5.25-9.591.67-.417 5.17-2.168 5.92-2.46 21.85-8.34 64.93-5.796 87.53.042v.041ZM1763.69 239.664c3.25-2.043 4.5 3.67 5.29 6.547 4.92 17.764-1.46 34.402-12.59 47.745-10.72 12.885-26.44 24.978-44.08 20.891-.33-2.919-.04-1.876 1.71-2.335 4.13-1.126 8.38-1.209 12.76-3.127 17.72-7.798 39.37-32.984 38.07-53.208-.37-5.713-3.62-11.008-1.12-16.471l-.04-.042ZM1704.43 405.5c.75-11.509-8.21-22.684-20.22-16.137-3.71 2.043-4.96 11.217-4.46 15.011.16 1.335 2.17 3.086 2.83 4.712 1.25 3.128 1.88 7.631 6.34 8.966 1.54.458 9.47-1.251 10.55-2.002 1.04-.75 4.8-8.59 4.92-10.508l.04-.042Zm-8.09-8.006-2.17 2.169 1.05 7.505h-5.72l.09-11.342 6.75 1.668ZM1773.61 306.049c12.3-1.335 14.51-1.126 23.48-8.965 2.54-2.21 5.42-3.92 7.54-6.756 2.38-3.127 10.26-20.724 12.01-21.058 4.51-.917 1.5 10.217.79 12.218-4.54 12.385-16.34 22.476-27.93 27.938-1.34.626-2.8.876-4.26.918 3.92 4.128 9.22 7.255 12.14 12.384 2.75 4.837 2.25 9.216 4.96 13.844-2.13 2.21-5-7.422-5.67-8.548-4.13-6.922-8.38-12.76-16.35-15.595-2.42-.834-7.34-.334-8.55-1.126-2.08-1.335-2.21-4.712 1.8-5.171l.04-.083ZM1735.12 202.01c2.84-.292 17.06.792 17.1 4.003-1.54 2.085-2.5 2.627-5.09 2.877-1.92.209-22.01-2.126-23.39-2.835-1.88-1.46-.58-1.209 0-2.335 2.63-5.338 9.01-7.965 13.26-12.427 8.13-8.59 8.8-15.72 13.59-25.686 7.26 13.135-6.21 27.896-15.38 36.445l-.09-.042ZM1657.94 131.706c-4.21 4.503-1.17 19.39 5.04 21.099 9.43 2.627 13.76-5.754 13.89-14.219.12-8.048-13.14-13.052-18.89-6.922l-.04.042Zm5.34 6.505 9.13 3.419c-2.71 7.714-10.59 4.837-9.13-3.419ZM1712.81 167.776c-5.5 6.922-15.22 6.963-17.59-2.21 6.08.708 10.21 1.125 14.34-3.837 8.38-10.091 4.3-19.765 11.84-29.189.46 12.843-.37 24.894-8.59 35.277v-.041ZM1753.39 349.04c17.26 1.543 17.88 19.181 10.55 31.566-3.47 5.796-13.39 7.798-8.26-1.042.83-1.418 2.84-1.668 3.96-3.17 2.92-4.044 4.55-16.512 1.42-20.224-.59-.708-9.34-4.962-7.63-7.172l-.04.042ZM1520.71 101.724c1.54 6.964-.25 7.589 6.96 9.883.88 7.297-2 10.258-9.13 7.797-4.59-1.584-4.25-4.586-5.88-7.672-.42-.834-1.75-.959-1.84-1.126l1.88-8.423 7.97-.459h.04ZM1514.49 142.84c-6.88-.417-6.84-10.3-3.79-14.72 13.84-4.545 16.76 15.47 3.79 14.72ZM1556.28 621.209l-3.51-11.05c3.05-1.251 8.38-4.838 11.26-1.835 2 2.085 4.96 10.55.29 11.05l.88 2.043-8.97-.208h.05ZM1738.88 783.626c11-7.131 20.26 18.556-1.3 10.925-.25-3.503-2.71-8.34 1.3-10.925ZM1465.37 978.151c-.25.792-.25 12.759-.04 13.719.21.959 3.92 10.8 4.38 11.17.63.55 2.21.17 3.17.21-2.46 3.76 2.83 3.55 3.17 3.71.54.3.62 2.26 2.96 3.26 2.71 1.21 10.8 1.96 14.01 1.71 2.71-.25 11.22-2.8 13.68-3.8 3.42-1.37 3.71-2.88 6.08-4.88.88 7.09-.54 19.81 6.84 23.4 8.55 4.12 15.22 1.5 21.27-5.09 1.38-1.5.5-2.79.83-3.21 1.96-2.8 6.55-4.71 5.3-10.51 1.58-.29 1.46-.21 2.38.75 3.08 3.21 7.17 11.43 10.92 14.05 4.09.59 5.67 3.01 10.3 3.34 2.04.17 7.88-.42 9.42-1.63 6.63-5.25.84-24.641-4.83-29.311l-8.76-13.386c9.93 2.669 27.56 4.712 36.45-1.751.37-.25 6.08-5.838 6.29-6.255.17-.292 1.34-6.046 1.34-6.38 0-12.301-10.68-20.349-22.56-19.098-8.68.917-18.89 4.212-24.44 10.633-12.26 14.095 5.09 2.502 8.93.959 5.12-2.085 18.05-4.92 22.8-2.085.92.542 4.47 8.382 3.84 9.716-12.72 11.384-31.52 2.294-46.33.542 2.76-13.844-2.75-33.359-13.13-43.283-1.25-1.209-10.72-7.506-11.39-7.714-1.95-.542-17.76.417-20.18 1.167-1.87.584-8.88 4.42-9.8 5.588-.21.25.84 1.501.59 1.793-.5.709-1.96.375-3.05 3.252-1.66 4.421-3 14.345-2.17 18.932.42 2.126 5.47 10.133 4.34 11.133-9.67-1.584-29.9 10.258-32.57 19.349h-.04Zm86.86 7.047c-.08-1.96.5-3.878.46-5.838l9.09 9.966c4.05 9.007 10.68 16.474 11.43 26.474-2.09.25-3.63-.37-5.34-1.5-7.22-4.96-15.22-20.471-15.64-29.102Zm-29.02 13.177c5.5-4.462 9.67-9.675 14.18-14.97 1.21-1.418 2.04-3.503 3.87-4.087-1.87 5.004-1.16 11.551-2.33 16.263-.25.959-1.71.834-1.88 1.417-2.42 7.632-3.46 16.302-11.67 19.932l-2.13-18.597-.04.042Zm-5.21-31.108c-3.71-4.211-10.43-9.424-12.89-13.927-9.71-17.722 1.92-34.777 21.64-27.522 1.25.459-.08 3.045 4.05 1.251 7.17 7.715 12.55 15.929 13.76 26.729.29 2.586.87 8.549-1 10.133-3.63 3.086-11.89.667-12.64 1.084-1.62.96-2.46 7.339-7.42 8.549l-5.54-6.297h.04Zm-41.45 12.843c.21-.458 6.5-6.963 6.96-7.213 3.92-2.502 21.23-5.713 24.48-2.419.92.917.62 2.835 1.75 4.003.71.751 9.76 4.253 8.76 5.963-5.22.751-2.88 8.381-6.51 11.467-2.04 1.752-14.68 7.798-17.39 8.509-12.05 3.17-23.64-9.259-18.01-20.351l-.04.041ZM525.505 265.392c-.25.793-.25 12.76-.041 13.719.208.959 3.919 10.8 4.378 11.175.626.543 2.21.167 3.169.209-2.46 3.753 2.836 3.544 3.169 3.711.542.292.626 2.252 2.961 3.253 2.71 1.209 10.8 1.96 14.011 1.709 2.71-.25 11.217-2.793 13.677-3.794 3.419-1.376 3.711-2.877 6.088-4.879.876 7.089-.542 19.807 6.839 23.393 8.548 4.128 15.22 1.501 21.266-5.087 1.376-1.501.5-2.794.834-3.211 1.96-2.794 6.547-4.712 5.296-10.508 1.584-.292 1.459-.209 2.377.75 3.085 3.211 7.172 11.426 10.925 14.053 4.086.584 5.671 3.002 10.299 3.336 2.044.167 7.881-.417 9.424-1.626 6.63-5.254.834-24.644-4.837-29.315l-8.757-13.385c9.925 2.669 27.563 4.712 36.445-1.751.376-.251 6.088-5.838 6.297-6.255.167-.292 1.334-6.047 1.334-6.38 0-12.301-10.675-20.349-22.559-19.098-8.673.917-18.89 4.211-24.435 10.633-12.26 14.094 5.087 2.502 8.923.959 5.129-2.085 18.056-4.92 22.809-2.085.918.542 4.462 8.382 3.837 9.716-12.719 11.384-31.525 2.293-46.328.542 2.752-13.844-2.752-33.359-13.135-43.283-1.251-1.21-10.716-7.506-11.384-7.715-1.959-.542-17.763.417-20.182 1.168-1.876.584-8.882 4.42-9.799 5.588-.209.25.834 1.501.584 1.793-.501.709-1.96.375-3.044 3.252-1.668 4.42-3.003 14.345-2.169 18.931.417 2.127 5.463 10.133 4.337 11.134-9.674-1.585-29.898 10.258-32.567 19.348h-.042Zm86.859 7.047c-.083-1.959.501-3.878.459-5.837l9.09 9.966c4.045 9.007 10.675 16.471 11.426 26.478-2.085.251-3.628-.375-5.338-1.501-7.214-4.962-15.22-20.474-15.637-29.106Zm-29.022 13.177c5.504-4.462 9.674-9.674 14.177-14.97 1.21-1.417 2.044-3.502 3.878-4.086-1.876 5.004-1.167 11.55-2.335 16.262-.25.959-1.709.834-1.876 1.418-2.419 7.631-3.461 16.304-11.676 19.932l-2.127-18.597-.041.041Zm-5.213-31.107c-3.711-4.212-10.424-9.424-12.885-13.928-9.715-17.722 1.919-34.776 21.642-27.521 1.251.459-.083 3.044 4.045 1.251 7.172 7.714 12.551 15.929 13.761 26.729.291 2.585.875 8.548-1.001 10.133-3.628 3.086-11.884.667-12.635 1.084-1.626.959-2.46 7.339-7.422 8.548l-5.546-6.296h.041Zm-41.448 12.843c.208-.459 6.505-6.964 6.963-7.214 3.92-2.502 21.225-5.713 24.478-2.418.917.917.625 2.835 1.751 4.003.709.75 9.758 4.253 8.757 5.963-5.213.75-2.877 8.381-6.505 11.467-2.043 1.751-14.678 7.798-17.389 8.506-12.051 3.17-23.643-9.257-18.014-20.349l-.041.042Z"/><path d="M1551.02 1050.83c42.24 6.88 61.68 16.22 102 1.46-2.25 11.34-2.55 29.98 6.75 38.24 4.88 4.29 16.85 7.13 21.81 1.96 8.88-9.3-2.75-38.28-6.84-49.25 5.47-1.87 9.55-5.17 14.43-7.88 3.75-2.08 9.26-3.08 11.18-7.05 1.58 1.38 2.46 3.13 2.79 5.22 1.13 7.25-.13 18.93 1.46 26.14.12.59 1.58.34 1.92 1.3.16.45-.71 1.75 0 3.33 2.5 5.76 11.01 8.84 16.39 5.09.37-.25 5.46-6.76 5.67-7.17 8.84-16.93 3.62-32.7.79-50.17l15.43-11.05c.21 12.09.41 33.86 9.8 42.62 11.05 10.3 19.59-5.8 20.97-15.81 1-7.13-4.42-21.14-9.67-26.22 4.37-4.758 9.38-2.589 14.55-.88 9.59 3.17 19.51 8.51 28.23 11.34 8.05 2.67 19.14 6.51 26.94 6.84 11.92.46 23.56-5.21 23.85-18.43.29-13.135-10.84-25.061-22.1-30.398-22.77-10.842-48.83 1-70.93 8.006-2.75-1.543-.79-4.087-1.29-6.505-2.42-11.634-13.39-33.067-25.69-35.986-5.5-1.293-18.6 3.294-23.31 6.546-5.67 3.962-6.84 8.423-3.75 14.637 3.5 6.963 11.76 8.84 18.05 12.968 5.88 3.878 11.39 8.173 16.97 12.426-2.29 1.543-2 6.964-2.25 7.256-.54.584-4.33 1.584-5.92 2.627-1.21.834-1.46 2.377-2.71 3.211-1.5 1.042-5.21-.125-4.84 3.419l-8.29-14.511c-10.14-8.048-20.35-15.637-34.24-17.013-4.59-.459-27.48 1.501-30.44 3.794-3.21 2.502-5.71 10.925-4.5 14.428.41 1.168 2.25 1.126 2.58 1.877.71 1.584 1.3 5.671 2.13 6.588.17.208 1.46-.459 2.04-.125 12.72 7.965 16.18 5.254 29.69 7.755 2.67.5 19.27 4.13 19.35 5.67-2.71 8.17-6.25 7.76-12.26 11.59-3.38 2.17-4.38 2.42-8.09 4.47-5.17 2.83-11.34 9.04-17.72 8.42-7.92-.79-5.96-5.17-8.59-9.72-5.38-9.25-14.76-27.518-21.06-34.774-4.42-5.087-12.72-7.339-19.1-5.337-12.88 4.045-13.55 12.927-9.38 24.731.71 1.96 10.76 16.3 12.51 18.39.75.87 2.21.12 2.5.41 5.84 5.42 11.22 7.8 19.14 10.43 3.3 1.08 6.22-2.05 6.22 6.09-11.89 3.71-23.11 12.13-35.53 11.84-33.78-.79-25.23-5.55-49.92-4.26-4.92.25-10.92-.62-15.88-.91-2.3-.13-1.8.12-1.71 2.25l-.13.08Zm100.87-25.89c-.58.46-9.96-3.34-11.3-4.09-4.67-2.67-21.39-21.683-18.26-26.52l7.8-3.085c11.21 7.547 13.26 23.265 21.72 33.695h.04Zm104.87-44.454c-.75.876-16.47-12.885-18.38-14.094-6.76-4.42-21.81-7.381-20.27-17.722 7.76-.25 16.05-9.174 23.27-3.544 4.38 3.419 12.88 16.888 14.55 22.1 1.21 3.795-.25 9.257.83 13.302v-.042Zm6.88 10.842c1.13-1.793 2.3-2.043 4.09-2.752 18.31-7.089 49.37-18.89 67.76-9.591 1.8.917 11.8 8.757 12.51 10.3 1.67 3.586 4.21 14.265.92 17.135-.25.21-1.46-.54-2.04-.12-.75.5-.88 2.08-1.42 2.37-3 1.67-12.64 1.26-16.35.51-16.59-3.38-34.98-13.807-51.79-17.852h-13.68Zm-9.13 13.092c1.5-2 8.88 11.05 9.43 12.76 1.91 5.88 1.12 13.05-2.63 17.97-2.54 1.5-4.96-14.05-5.17-15.3-.25-1.42-1.5-2.54-1.71-4.55-.33-3.5.29-7.33.08-10.88Zm-34.23-6.837c-7.01-.709-13.64-3.962-20.48-5.171-6.96-1.251-22.22-.667-27.48-2.377-2.29-.75-9.46-7.38-7.96-9.507 1.5-2.127 30.32-2.168 34.86-.209 3.21 1.377 8.26 6.922 9.92 7.882 1.09.625 3.01 0 3.88.667 2.09 1.584 5.63 6.463 7.17 8.756l.09-.041Zm-2.25 21.637c.83 3.22-.09 12.6 3.42 12.56l-2.26 1.12c3.92 6.67 2.76 18.72-3.42 23.94-1.2-11.43-6.42-28.44 2.26-37.62Zm-53.59 30.78c1.67.21 2.71 4.04 3.13 5.42 1.34 4.71 3.46 11.63 4.42 15.39.54 2.21 2.42 11.46.46 12.84-13.47-3.8-8.84-22.98-7.97-33.61l-.04-.04ZM1728.28 874.487c-.41.709-13.26-3.044-15.72-3.211-34.27-2.335-31.44 35.319-35.57 59.088 7.51-.792 8.59-11.759 10.01-17.972.34-1.502-.5-3.17-.25-4.254 1.09-4.503 4.96-19.056 6.8-22.184.54-.917 6.04-5.17 7.05-5.504 4.12-1.334 20.22.334 24.47 2.127.29.125 5.3 3.544 5.59 3.794 1.88 1.585 8.38 18.265 10.68 22.309 2.41 4.254 8.54 12.844 13.05 14.303 12.59 4.003 14.42-10.967 10.42-19.515-1.46-3.127-8.63-11.05-11.42-13.635-3.67-3.378-14.81-9.383-16.1-12.385-1.42-6.964-7.92-37.487.38-40.948 1.83-.751 12.88-1.918 15.17-1.668.63.083.5 1.668 1.42 1.96 17.85 5.254 20.93 11.342 35.4 19.431 9.22 5.171 27.69 6.172 26.36-8.381-.63-6.547-5.21-25.687-13.55-24.644-1.21 1.376 10.46 25.561 4.04 29.314-2.75-1.084-5.8-.459-8.55-1.459-4.5-1.585-15.84-12.135-21.51-15.221-8.09-4.42-16.81-8.047-26.02-9.048-32.2-3.503-27.82 25.311-22.06 47.662l-.09.041Zm19.94 23.935c4.21 4.212 8.25 8.424 8.54 14.804-3.25-3.044-6.42-7.423-8.63-11.301-1.04-1.793-2.58-1.418.13-3.503h-.04Z"/><path d="M1766.23 865.648c-6.46-1.335-8.8.458-10.59 6.588-7.17-3.711-.84-11.175 3.75-13.927 6.59-3.92 10.05-3.795 16.64-.167 4.38 2.377 6.92 7.172 10.09 9.591 1.92 1.459 4.59 2.001 6.55 3.461 7.34 5.421 9.09 11.008 20.05 8.548 11.47-2.544 12.39-12.385 16.47-21.183l2.84.792c3.67 11.718-7.34 29.523-20.14 29.606-4.34 0-29.86-8.631-33.36-11.634-4.46-3.794-5.42-10.216-12.3-11.634v-.041ZM1816.64 903.719c-3.21-.375-7.46-4.879-3.21-6.255 3.8-1.209 7.51-.5 12.14-2.669 5.21-2.502 9.46-8.423 12.3-13.385l3.25 1.042c-.83 9.758-15.05 22.309-24.52 21.225l.04.042ZM1839.7 844.131c-.62 5.712-6.13 7.047-6.29 2.126-.13-2.96 2.96-4.211.95-7.089 4.09-1 5.84.876 5.38 4.963h-.04ZM1712.73 447.783c0 2.002-1.63 3.67-3.67 3.67a3.65 3.65 0 0 1-3.67-3.67 3.65 3.65 0 0 1 3.67-3.669 3.65 3.65 0 0 1 3.67 3.669ZM1771.53 405.001c2.75 4.461-2.84 10.091-6.72 2.752 1.04-1.96 5.21-5.171 6.72-2.752ZM1633.92 23.664c6.88-10.091 23.77-1.543 31.06 4.378 3.05 2.46 5.72 5.463 8.18 8.549 5.25-8.298 13.63-16.263 23.81-17.264 15.13-1.5 22.22 10.884 13.67 22.81-1.12 1.542-9.88 8.506-8.63 10.007 15.85 1.084 29.11 15.137 27.23 31.066-6.21 5.004-13.09 12.968-21.81 9.758-1.25 3.92-4.75-3.086-8.71-2.044-.63 5.63-3.55 11.175-6.63 15.804-.63.917-2.34.959-2.71 1.585-.09.166.83 1.209.5 1.542-7.51 8.215-15.72 10.926-23.44 1.085-5.79-7.381-5.17-16.43-6.67-25.061-.96.667-1.42 1.96-2.42 2.585-.37.25-7.17 2.877-7.59 3.002-7.5 1.793-20.51-2.502-22.6-10.758-3.83-15.22 11.39-25.311 24.69-27.396-9.09-3.753-24.69-19.724-17.93-29.606v-.042Zm14.84 20.516c2.17 1.793 21.81 13.719 22.48 7.13-2.8-2.877-3.59-7.547-5.8-10.633-4.29-6.005-19.97-17.93-27.1-11.3 2.67 5.963 5.21 10.508 10.42 14.803Zm-13.38 34.443c2.96 5.546 14.13 5.588 18.76 2.502 2.88-1.96 4.3-4.92 7.8-6.38-.96-3.503-.88-8.256 1.13-11.3-1.42-1.418-2.13 1.918-2.71-1.376-8.55.583-20.48 1.125-24.48 10.466-.13.292-.63 5.838-.5 6.088Zm44.49-24.81c1.29.291 2.46-.084 3.63-.668 1.71-.876 15.55-10.633 16.64-11.759 1.96-2.043 5.63-9.216 3.79-11.717-5.38-7.34-21.31 4.044-24.14 10.633-1.84 4.295.62 8.09.83 11.8 0 .71-1.5 1.293-.71 1.669l-.04.041Zm-2.13 54.625c1.76-1.084 3.46-2.502 4.92-4.003 1.46-1.502 5.17-8.715 5.84-10.842 4.38-13.636-8.05-12.927-12.47-24.102-1.08 3.586-5.12 5.963-6.71 8.673-1.58 2.71.38 30.19 8.38 30.274h.04Zm42.83-34.277c-3.38-6.838-9.38-11.55-16.81-13.177-1.04-.25-12.92-1.334-13.59-1.167-3.54.792-4 1.96-2.08 4.753 2.83 4.087 7.25 11.968 9.63 14.804 6.21 7.38 23.56 9.132 22.43-3.336 0-.459.79-1.084.42-1.835v-.042ZM1793.04 229.74c.67 4.087-1.92 11.801 2.92 14.22 6.17 3.085 4.92-9.007 7.96-11.426.67-.542 9.14-2.961 10.85-3.419 6.83-1.71 19.43-.667 18.43-11.009-.8-8.173-8.76-15.929-17.02-12.092-.25-13.094-16.8-18.932-25.56-10.175-8.67 8.715.84 24.06 2.42 33.86v.041Zm1.71-25.394c.17-.709 1.04-.626 1.5-1.085 2.17-2.335 5.05-4.962 8.59-2.376.84.625.71 2.376 1.21 3.044 3.13 4.17.79 2.46 1.67 5.546.54 1.959 4 3.377 1.63 6.796 7.71 2.294 7.5-4.42 9.29-5.462 4.51-2.669 9.64 5.838 8.93 10.049-9.55 1.168-18.56 1.251-27.36 5.713.59-4.92-6.54-17.764-5.46-22.184v-.041Z"/></g><defs><clipPath id="a"><path fill="#fff" d="M0 0h1920v1088H0z"/></clipPath></defs></svg>