<svg width="136" height="95" viewBox="0 0 136 95" fill="none" xmlns="http://www.w3.org/2000/svg">
<path d="M40.8986 23.385C39.6745 24.5083 37.0334 26.4729 35.6206 27.3966C34.9766 27.8162 33.862 27.7143 33.7634 28.6923L35.368 45.3752C35.831 51.9965 35.0341 58.4866 35.0395 64.9074C35.0406 66.1662 34.2849 66.2431 35.3257 67.4282C36.05 68.2544 39.5065 70.966 40.4823 71.5536C49.0964 76.7395 63.9958 82.3525 73.9597 83.2719C79.6324 83.7956 80.2222 82.7287 84.9331 81.0948C87.2859 80.2784 88.3007 80.8259 90.4182 79.0218C92.2462 77.4637 93.3066 75.0047 95.9781 74.5407C97.5469 75.9155 95.7374 78.0232 94.7128 79.2213C81.8192 94.293 59.9852 91.2127 45.0013 81.3658C42.4295 79.6766 40.0833 77.4637 37.6232 75.7507C36.9401 75.2758 33.7916 73.1095 33.3308 73.2537C31.9321 74.7998 31.9733 77.1873 31.4193 78.9188C29.3289 85.4642 25.3509 91.3613 18.8629 94.0707C16.7867 94.9381 13.8278 95.0747 11.5499 94.9695C8.5455 94.8308 2.94767 91.2886 1.5718 88.5737C1.39832 88.23 0.0571402 84.6337 0.0387085 84.4125C-0.564118 77.0908 5.97915 68.3389 12.337 65.1958C14.6226 64.066 16.688 63.9359 18.9106 63.267C20.2399 62.8669 21.8586 61.7241 23.254 61.6016C24.4282 61.4975 28.506 63.3916 28.725 63.1607C29.0622 58.182 29.2053 53.1848 29.06 48.1985C28.9733 45.2375 28.9137 42.0564 28.7217 39.0845C28.5645 36.6526 27.8522 33.8792 27.7796 31.367L21.2905 34.4798C16.9363 35.589 11.1541 39.5041 6.66329 38.151C5.81977 37.8973 4.94372 37.0104 5.23104 36.0823C5.75472 34.3833 7.88846 34.8669 9.26759 34.4245C13.4635 33.0801 19.6533 30.1852 23.7625 28.1361C24.2949 27.8704 27.4706 26.1704 27.6126 26.0023C28.7337 24.6817 27.6332 19.677 27.7871 17.6766C28.4496 9.10583 32.1978 -1.66481 42.7255 0.216316C43.1983 0.30088 43.4411 0.438576 43.8304 0.685776C51.7842 5.71656 46.3891 18.3445 40.8986 23.385ZM37.0258 19.8277C38.0298 18.8866 39.41 18.029 40.2015 16.8645C40.505 16.4178 42.4339 12.6198 42.5119 12.249C42.6258 11.7047 42.3396 6.56116 42.2029 6.08953C41.4874 3.6251 37.2318 5.07471 35.9708 6.65441C34.0604 9.04729 33.2191 15.9072 33.2549 18.9842C33.2625 19.6943 33.4273 22.8624 33.9228 22.8602C35.1219 22.0352 36.0684 20.7254 37.0258 19.8277ZM24.2114 80.3781C25.0159 78.7821 26.6899 74.3748 27.064 72.678C27.1811 72.1456 27.3188 71.121 27.0141 70.696C26.9046 70.5432 24.0336 69.8417 23.5338 69.769C17.2605 68.8626 7.87654 72.4004 6.69907 79.3936C6.37055 81.3409 6.76087 86.1668 8.27987 87.5351C11.371 90.3215 15.4075 89.7295 18.6266 87.5383C20.3711 86.3511 23.2963 82.1942 24.2114 80.3781Z" fill="#486CA1"/>
<path d="M123.751 47.1992C124.101 47.5993 125.322 49.2332 125.723 49.7905C127.313 52.0055 129.272 56.0432 127.144 58.436C126.934 58.6713 121.736 60.2814 121.13 60.2966C119.197 60.3443 117.156 60.2966 115.193 60.3421C112.384 60.4072 109.655 60.0136 106.879 60.3714C105.957 62.2525 107.864 64.0274 108.558 65.6884C109.798 68.6526 109.17 69.4571 111.869 71.8229C117.738 76.9664 126.265 74.2093 130.459 68.361C131.512 66.893 132.049 63.5221 134.631 64.8145C135.915 65.4564 136.077 66.6317 135.73 67.9663C135.595 68.4857 133.144 73.0264 132.665 73.7149C129.817 77.8002 125.154 81.2816 120.166 82.2433C110.271 84.1505 103.761 76.7832 100.693 68.1984C97.8817 60.3334 99.6891 52.3861 106.677 47.107C109.076 45.2942 116.039 43.8327 118.796 44.7521C119.475 44.9787 123.451 46.8555 123.751 47.1992ZM107.151 55.9196C107.455 56.2329 110.747 54.7703 111.434 54.6684C114.494 54.213 118.376 55.243 121.474 54.6586C121.728 54.6109 121.968 54.6001 122.134 54.368C122.526 53.8303 122.054 52.2191 121.415 51.8939C120.946 51.6553 117.809 50.4453 117.315 50.325C112.92 49.2516 108.102 51.3626 107.151 55.9196Z" fill="#486CA1"/>
<path d="M91.9335 41.8561C92.068 41.9548 93.0904 43.4294 93.1316 43.6017C93.4536 44.9321 91.7546 46.3492 91.296 47.4182C88.3448 54.2987 85.1919 60.0385 81.9923 66.8214C80.8615 69.2186 79.9063 74.631 76.6645 74.7525C75.6995 74.7882 74.238 72.7521 73.7013 71.8815C71.02 67.5337 65.0937 52.5737 64.0756 47.506C63.926 46.759 63.8837 45.9404 64.1591 45.2151C64.4421 44.6166 67.9571 43.9736 68.7898 44.3531C69.7721 44.802 70.9073 47.5418 71.3995 48.6824C72.8827 52.114 74.1014 55.8274 75.5976 59.2828C75.9337 60.0613 77.0711 62.8293 78.0132 62.5398C79.4043 59.7761 80.7954 56.9344 82.3133 54.2358C83.5558 52.0261 85.0672 49.643 86.3455 47.4952C87.2768 45.9328 89.6816 40.2016 91.9335 41.8561Z" fill="#486CA1"/>
<path d="M49.5528 71.6213C49.6276 69.8865 49.1993 68.18 49.1863 66.4626C49.1581 62.5149 49.9583 57.9091 50.1719 53.8769C50.2868 51.715 49.7599 48.6185 50.3248 46.3362C50.6847 44.8779 51.074 44.6676 52.5463 44.6968C57.5728 44.7944 55.838 47.6784 55.7968 51.3409C55.7372 56.569 55.4282 61.8579 55.4954 67.0741C55.5193 68.9075 56.6826 69.7564 54.7061 71.3437C52.9432 72.7586 51.5196 72.3054 49.5528 71.6213Z" fill="#486CA1"/>
<path d="M55.7657 34.5603C57.379 40.9507 48.5849 40.3739 51.7139 34.0398C53.0952 33.5519 54.4939 34.0648 55.7657 34.5603Z" fill="#486CA1"/>
</svg>
